SplineFontDB: 3.2
FontName: MFEKglifIconFont
FullName: MFEKglifIconFont
FamilyName: MFEKglifIconFont
Weight: Book
Copyright: (c) 2020-2021 MFEK authors. Tools icons contributed in SVG format by Eli Heuer. Some icons come from Material Design, (c) Google, Apache 2.0 (same license as MFEK). (TransY-=150. Scale uniformly 125%)
Version: 001.000
ItalicAngle: 0
UnderlinePosition: -100
UnderlineWidth: 50
Ascent: 800
Descent: 200
InvalidEm: 0
sfntRevision: 0x00010000
LayerCount: 2
Layer: 0 1 "Back" 1
Layer: 1 1 "Fore" 0
XUID: [1021 640 1538074639 10126076]
StyleMap: 0x0000
FSType: 0
OS2Version: 4
OS2_WeightWidthSlopeOnly: 0
OS2_UseTypoMetrics: 1
CreationTime: 1599609708
ModificationTime: 1620939684
PfmFamily: 17
TTFWeight: 400
TTFWidth: 5
LineGap: 90
VLineGap: 0
Panose: 2 0 5 9 0 0 0 0 0 0
OS2TypoAscent: 800
OS2TypoAOffset: 0
OS2TypoDescent: -200
OS2TypoDOffset: 0
OS2TypoLinegap: 90
OS2WinAscent: 666
OS2WinAOffset: 0
OS2WinDescent: 239
OS2WinDOffset: 0
HheadAscent: 666
HheadAOffset: 0
HheadDescent: -239
HheadDOffset: 0
OS2SubXSize: 650
OS2SubYSize: 700
OS2SubXOff: 0
OS2SubYOff: 140
OS2SupXSize: 650
OS2SupYSize: 700
OS2SupXOff: 0
OS2SupYOff: 480
OS2StrikeYSize: 49
OS2StrikeYPos: 258
OS2Vendor: 'PfEd'
OS2CodePages: 80000001.00000000
OS2UnicodeRanges: 00000000.10000000.00000000.00000000
MarkAttachClasses: 1
DEI: 91125
ShortTable: cvt  2
  33
  633
EndShort
ShortTable: maxp 16
  1
  0
  12
  147
  9
  0
  0
  2
  0
  1
  1
  0
  64
  0
  0
  0
EndShort
LangName: 1033 "" "" "Regular"
GaspTable: 1 65535 2 0
Encoding: Custom
UnicodeInterp: none
NameList: AGL For New Fonts
DisplaySize: -48
AntiAlias: 1
FitToEm: 0
WinInfo: 0 21 7
BeginPrivate: 0
EndPrivate
Grid
-1000 261.078125 m 0
 2000 261.078125 l 1024
  Named: "venn top"
EndSplineSet
AnchorClass2: "theclass"""  "bottom""" 
BeginChars: 40 41

StartChar: knife
Encoding: 0 61440 0
Width: 700
Flags: W
LayerCount: 2
Fore
SplineSet
428 430 m 2,0,-1
 429 430 l 2,1,2
 435 430 435 430 440 425 c 128,-1,3
 445 420 445 420 445 414 c 2,4,-1
 445 48 l 2,5,6
 445 41 445 41 440 37 c 2,7,-1
 429 25 l 1,8,-1
 429 23 l 1,9,-1
 456 -4 l 2,10,11
 461 -9 461 -9 461 -16 c 2,12,-1
 461 -47 l 1,13,14
 467 -47 467 -47 472 -52 c 128,-1,15
 477 -57 477 -57 477 -63 c 2,16,-1
 477 -159 l 2,17,18
 477 -160 477 -160 476 -162 c 2,19,20
 476 -162 476 -162 476 -163 c 128,-1,21
 476 -164 476 -164 475.5 -164.5 c 128,-1,22
 475 -165 475 -165 474.5 -166 c 128,-1,23
 474 -167 474 -167 474 -167 c 2,24,25
 469 -175 469 -175 461 -175 c 2,26,-1
 453 -175 l 1,27,-1
 453 -222 l 2,28,29
 453 -229 453 -229 448 -233.5 c 128,-1,30
 443 -238 443 -238 437 -238 c 2,31,-1
 254 -238 l 2,32,33
 247 -238 247 -238 242.5 -233.5 c 128,-1,34
 238 -229 238 -229 238 -222 c 2,35,-1
 238 -175 l 1,36,37
 231 -175 231 -175 226.5 -170 c 128,-1,38
 222 -165 222 -165 222 -159 c 2,39,-1
 222 -63 l 2,40,41
 222 -62 222 -62 222 -61 c 256,42,43
 222 -60 222 -60 222.5 -59 c 128,-1,44
 223 -58 223 -58 223 -57.5 c 128,-1,45
 223 -57 223 -57 223.5 -56 c 128,-1,46
 224 -55 224 -55 225 -55 c 0,47,48
 229 -47 229 -47 238 -47 c 1,49,-1
 238 -16 l 2,50,51
 238 -9 238 -9 243 -4 c 2,52,-1
 269 22 l 1,53,-1
 247 34 l 2,54,55
 238 38 238 38 238 48 c 2,56,-1
 238 207 l 2,57,58
 238 213 238 213 242 217 c 2,59,-1
 417 424 l 2,60,61
 421 430 421 430 428 430 c 2,0,-1
413 370 m 1,62,-1
 270 201 l 1,63,-1
 270 171 l 1,64,-1
 413 340 l 1,65,-1
 413 370 l 1,62,-1
413 291 m 1,66,-1
 270 122 l 1,67,-1
 270 58 l 1,68,-1
 293 46 l 2,69,70
 302 42 302 42 302 32 c 1,71,-1
 397 32 l 1,72,73
 397 39 397 39 402 43 c 2,74,-1
 413 55 l 1,75,-1
 413 291 l 1,66,-1
292 0 m 1,76,-1
 270 -22 l 1,77,-1
 270 -47 l 1,78,-1
 317 -47 l 1,79,-1
 317 0 l 1,80,-1
 292 0 l 1,76,-1
349 0 m 1,81,-1
 349 -47 l 1,82,-1
 429 -47 l 1,83,-1
 429 -22 l 1,84,-1
 406 0 l 1,85,-1
 349 0 l 1,81,-1
254 -79 m 1,86,-1
 254 -143 l 1,87,-1
 286 -143 l 1,88,-1
 286 -79 l 1,89,-1
 254 -79 l 1,86,-1
317 -79 m 1,90,-1
 317 -143 l 1,91,-1
 381 -143 l 1,92,-1
 381 -79 l 1,93,-1
 317 -79 l 1,90,-1
413 -79 m 1,94,-1
 413 -143 l 1,95,-1
 445 -143 l 1,96,-1
 445 -79 l 1,97,-1
 444 -79 l 1,98,-1
 413 -79 l 1,94,-1
270 -175 m 1,99,-1
 270 -207 l 1,100,-1
 421 -207 l 1,101,-1
 421 -175 l 1,102,-1
 270 -175 l 1,99,-1
EndSplineSet
EndChar

StartChar: measure
Encoding: 1 61441 1
Width: 700
Flags: W
LayerCount: 2
Fore
SplineSet
366 429 m 2,0,-1
 513 429 l 2,1,2
 520 429 520 429 524.5 424.5 c 128,-1,3
 529 420 529 420 529 413 c 2,4,-1
 529 -222 l 2,5,6
 529 -228 529 -228 524.5 -233 c 128,-1,7
 520 -238 520 -238 513 -238 c 2,8,-1
 187 -238 l 2,9,10
 181 -238 181 -238 176 -233 c 128,-1,11
 171 -228 171 -228 171 -222 c 2,12,-1
 171 -91 l 2,13,14
 171 -85 171 -85 176 -80 c 128,-1,15
 181 -75 181 -75 187 -75 c 2,16,-1
 349 -75 l 1,17,-1
 349 413 l 2,18,19
 349 420 349 420 354 424.5 c 128,-1,20
 359 429 359 429 366 429 c 2,0,-1
382 397 m 1,21,-1
 382 348 l 1,22,23
 382 348 382 348 383 348 c 2,24,-1
 416 348 l 2,25,26
 423 348 423 348 427.5 343.5 c 128,-1,27
 432 339 432 339 432 332 c 128,-1,28
 432 325 432 325 427.5 320 c 128,-1,29
 423 315 423 315 416 315 c 2,30,-1
 383 315 l 2,31,32
 382 315 382 315 382 316 c 1,33,-1
 382 250 l 1,34,35
 382 250 382 250 383 250 c 2,36,-1
 416 250 l 2,37,38
 423 250 423 250 427.5 245.5 c 128,-1,39
 432 241 432 241 432 234 c 128,-1,40
 432 227 432 227 427.5 222.5 c 128,-1,41
 423 218 423 218 416 218 c 2,42,-1
 383 218 l 2,43,44
 382 218 382 218 382 218 c 1,45,-1
 382 153 l 1,46,47
 382 153 382 153 383 153 c 2,48,-1
 416 153 l 2,49,50
 423 153 423 153 427.5 148 c 128,-1,51
 432 143 432 143 432 136.5 c 128,-1,52
 432 130 432 130 427.5 125 c 128,-1,53
 423 120 423 120 416 120 c 2,54,-1
 383 120 l 2,55,56
 382 120 382 120 382 120 c 1,57,-1
 382 55 l 1,58,59
 382 55 382 55 383 55 c 2,60,-1
 416 55 l 2,61,62
 423 55 423 55 427.5 50 c 128,-1,63
 432 45 432 45 432 38.5 c 128,-1,64
 432 32 432 32 427.5 27 c 128,-1,65
 423 22 423 22 416 22 c 2,66,-1
 383 22 l 2,67,68
 382 22 382 22 382 22 c 1,69,-1
 382 -43 l 1,70,71
 382 -43 382 -43 383 -43 c 2,72,-1
 416 -43 l 2,73,74
 423 -43 423 -43 427.5 -47.5 c 128,-1,75
 432 -52 432 -52 432 -59 c 128,-1,76
 432 -66 432 -66 427.5 -70.5 c 128,-1,77
 423 -75 423 -75 416 -75 c 2,78,-1
 383 -75 l 2,79,80
 382 -75 382 -75 382 -75 c 1,81,-1
 382 -91 l 2,82,83
 382 -98 382 -98 377 -103 c 128,-1,84
 372 -108 372 -108 366 -108 c 2,85,-1
 301 -108 l 1,86,-1
 301 -141 l 2,87,88
 301 -148 301 -148 296.5 -152.5 c 128,-1,89
 292 -157 292 -157 285 -157 c 128,-1,90
 278 -157 278 -157 273.5 -152.5 c 128,-1,91
 269 -148 269 -148 269 -141 c 2,92,-1
 269 -108 l 1,93,-1
 204 -108 l 1,94,-1
 204 -205 l 1,95,-1
 497 -205 l 1,96,-1
 497 397 l 1,97,-1
 382 397 l 1,21,-1
EndSplineSet
EndChar

StartChar: pan
Encoding: 2 61442 2
Width: 700
Flags: W
LayerCount: 2
Fore
SplineSet
354 429 m 2,0,-1
 358 429 l 2,1,2
 370 429 370 429 377 427 c 0,3,4
 391 423 391 423 399 409.5 c 128,-1,5
 407 396 407 396 410 372 c 1,6,7
 425 381 425 381 438 381 c 0,8,9
 449 381 449 381 460.5 373.5 c 128,-1,10
 472 366 472 366 479 352 c 0,11,12
 488 334 488 334 492 295 c 1,13,14
 502 299 502 299 512 299 c 0,15,16
 539 299 539 299 552 279 c 0,17,18
 561 264 561 264 561 234 c 2,19,-1
 561 14 l 2,20,21
 561 12 561 12 561 10 c 2,22,-1
 529 -110 l 1,23,-1
 529 -222 l 2,24,25
 529 -228 529 -228 524 -233 c 128,-1,26
 519 -238 519 -238 512 -238 c 2,27,-1
 260 -238 l 2,28,29
 253 -238 253 -238 248.5 -233 c 128,-1,30
 244 -228 244 -228 244 -222 c 2,31,-1
 244 -113 l 1,32,-1
 158 -4 l 2,33,34
 155 0 155 0 154 5 c 2,35,-1
 138 200 l 2,36,37
 137 208 137 208 143 213 c 0,38,39
 158 228 158 228 178.5 230.5 c 128,-1,40
 199 233 199 233 214 224 c 0,41,42
 215 224 215 224 217 222.5 c 128,-1,43
 219 221 219 221 219 220 c 1,44,-1
 219 234 l 1,45,46
 219 234 219 234 219 235 c 2,47,-1
 219 299 l 2,48,49
 219 348 219 348 242 368 c 0,50,51
 256 381 256 381 276 381 c 0,52,53
 288 381 288 381 304 373 c 1,54,55
 308 396 308 396 316 409.5 c 128,-1,56
 324 423 324 423 338 427 c 0,57,58
 345 429 345 429 354 429 c 2,0,-1
358 397 m 0,59,60
 350 397 350 397 347.5 396 c 128,-1,61
 345 395 345 395 343 392 c 0,62,63
 333 376 333 376 333 315 c 2,64,-1
 333 136 l 2,65,66
 333 130 333 130 328.5 125 c 128,-1,67
 324 120 324 120 317 120 c 128,-1,68
 310 120 310 120 305.5 125 c 128,-1,69
 301 130 301 130 301 136 c 2,70,-1
 301 316 l 2,71,72
 301 338 301 338 291 345 c 0,73,74
 286 348 286 348 276 348 c 0,75,76
 268 348 268 348 264 344 c 0,77,78
 252 333 252 333 252 299 c 2,79,-1
 252 169 l 1,80,-1
 252 120 l 2,81,82
 252 113 252 113 247 108.5 c 128,-1,83
 242 104 242 104 235.5 104 c 128,-1,84
 229 104 229 104 224 108.5 c 128,-1,85
 219 113 219 113 219 120 c 2,86,-1
 219 169 l 2,87,88
 219 176 219 176 213.5 183.5 c 128,-1,89
 208 191 208 191 200 195 c 0,90,91
 185 202 185 202 171 193 c 1,92,-1
 186 12 l 1,93,-1
 273 -98 l 2,94,95
 276 -102 276 -102 276 -108 c 2,96,-1
 276 -205 l 1,97,-1
 496 -205 l 1,98,-1
 496 -108 l 2,99,100
 496 -106 496 -106 497 -104 c 2,101,-1
 529 16 l 1,102,-1
 529 234 l 2,103,104
 529 255 529 255 524 262 c 0,105,106
 521 267 521 267 512 267 c 0,107,108
 504 267 504 267 501 263 c 0,109,110
 496 257 496 257 496 240 c 0,111,112
 496 149 496 149 496 104 c 0,113,114
 496 97 496 97 491.5 92 c 128,-1,115
 487 87 487 87 480 87 c 128,-1,116
 473 87 473 87 468 92 c 128,-1,117
 463 97 463 97 464 104 c 2,118,-1
 464 241 l 2,119,120
 463 311 463 311 450 337 c 0,121,122
 446 345 446 345 444.5 346.5 c 128,-1,123
 443 348 443 348 440 348 c 0,124,125
 439 348 439 348 438 348 c 0,126,127
 429 348 429 348 423 342 c 0,128,129
 415 335 415 335 415 319 c 2,130,-1
 415 318 l 2,131,132
 415 317 415 317 415 316 c 256,133,134
 415 315 415 315 415 315 c 1,135,-1
 415 120 l 2,136,137
 415 113 415 113 410 108.5 c 128,-1,138
 405 104 405 104 398.5 104 c 128,-1,139
 392 104 392 104 387 108.5 c 128,-1,140
 382 113 382 113 382 120 c 2,141,-1
 382 316 l 2,142,143
 381 376 381 376 371 392 c 0,144,145
 369 396 369 396 367 396.5 c 128,-1,146
 365 397 365 397 358 397 c 0,59,60
EndSplineSet
EndChar

StartChar: pen
Encoding: 3 61443 3
Width: 700
Flags: W
LayerCount: 2
Fore
SplineSet
350 430 m 256,0,1
 351 430 351 430 352 430 c 2,2,-1
 395 430 l 2,3,4
 408 430 408 430 411 418 c 2,5,-1
 460 213 l 1,6,-1
 523 87 l 2,7,8
 525 84 525 84 525 80 c 0,9,10
 525 75 525 75 522 71 c 2,11,-1
 461 -20 l 1,12,-1
 461 -95 l 1,13,-1
 461 -222 l 2,14,15
 461 -223 461 -223 461 -223 c 1,16,-1
 461 -224 l 1,17,18
 461 -224 461 -224 461 -225 c 0,19,20
 459 -238 459 -238 445 -238 c 2,21,-1
 255 -238 l 2,22,23
 250 -238 250 -238 247 -236 c 0,24,25
 246 -236 246 -236 246 -236 c 1,26,27
 239 -231 239 -231 239 -222 c 2,28,-1
 239 -95 l 1,29,30
 239 -95 239 -95 239 -94 c 2,31,-1
 239 -20 l 1,32,-1
 178 71 l 2,33,34
 175 75 175 75 175 80 c 0,35,36
 175 84 175 84 177 87 c 2,37,-1
 239 212 l 1,38,-1
 287 417 l 2,39,40
 290 430 290 430 302 430 c 2,41,-1
 348 430 l 2,42,43
 349 430 349 430 350 430 c 256,0,1
315 398 m 1,44,-1
 270 204 l 2,45,46
 270 202 270 202 269 200 c 2,47,-1
 209 81 l 1,48,-1
 268 -7 l 2,49,50
 270 -11 270 -11 270 -16 c 2,51,-1
 270 -79 l 1,52,-1
 430 -79 l 1,53,-1
 430 -16 l 2,54,55
 430 -11 430 -11 432 -7 c 2,56,-1
 491 81 l 1,57,-1
 431 200 l 2,58,59
 430 202 430 202 430 203 c 2,60,-1
 383 398 l 1,61,-1
 366 398 l 1,62,-1
 366 91 l 1,63,64
 382 82 382 82 382 64 c 0,65,66
 382 51 382 51 372.5 41.5 c 128,-1,67
 363 32 363 32 350 32 c 128,-1,68
 337 32 337 32 327.5 41.5 c 128,-1,69
 318 51 318 51 318 64 c 0,70,71
 318 82 318 82 334 91 c 1,72,-1
 334 398 l 1,73,-1
 315 398 l 1,44,-1
270 -111 m 1,74,-1
 270 -207 l 1,75,-1
 430 -207 l 1,76,-1
 430 -111 l 1,77,-1
 270 -111 l 1,74,-1
EndSplineSet
EndChar

StartChar: pencil
Encoding: 4 61444 4
Width: 700
Flags: W
LayerCount: 2
Fore
SplineSet
351 414 m 0,0,1
 359 414 359 414 364 407 c 2,2,-1
 519 147 l 2,3,4
 521 143 521 143 521 139 c 2,5,-1
 521 130 l 2,6,7
 522 127 522 127 521 125 c 2,8,-1
 521 -223 l 2,9,10
 521 -229 521 -229 516.5 -233.5 c 128,-1,11
 512 -238 512 -238 506 -238 c 2,12,-1
 195 -238 l 2,13,14
 188 -238 188 -238 183.5 -233.5 c 128,-1,15
 179 -229 179 -229 179 -223 c 2,16,-1
 179 124 l 2,17,18
 179 127 179 127 179 130 c 2,19,-1
 179 139 l 2,20,21
 179 143 179 143 181 147 c 2,22,-1
 337 407 l 2,23,24
 342 415 342 415 351 414 c 0,0,1
266 228 m 1,25,-1
 210 135 l 1,26,-1
 210 133 l 1,27,-1
 264 79 l 1,28,-1
 339 161 l 2,29,30
 344 166 344 166 351 166 c 0,31,32
 357 165 357 165 362 161 c 2,33,-1
 436 79 l 1,34,-1
 490 133 l 1,35,-1
 490 135 l 1,36,-1
 434 228 l 1,37,-1
 266 228 l 1,25,-1
350 127 m 1,38,-1
 280 51 l 1,39,-1
 280 -207 l 1,40,-1
 420 -207 l 1,41,-1
 420 51 l 1,42,-1
 350 127 l 1,38,-1
490 89 m 1,43,-1
 451 50 l 1,44,-1
 451 -207 l 1,45,-1
 490 -207 l 1,46,-1
 490 89 l 1,43,-1
210 89 m 1,47,-1
 210 -207 l 1,48,-1
 249 -207 l 1,49,-1
 249 50 l 1,50,-1
 210 89 l 1,47,-1
EndSplineSet
EndChar

StartChar: select
Encoding: 5 61445 5
Width: 700
Flags: W
LayerCount: 2
Fore
SplineSet
179 428 m 0,0,1
 187 428 187 428 192 422 c 2,2,-1
 533 63 l 2,3,4
 541 55 541 55 536.5 44 c 128,-1,5
 532 33 532 33 520 33 c 2,6,-1
 409 33 l 1,7,8
 427 5 427 5 463 -52 c 128,-1,9
 499 -109 499 -109 517 -137 c 0,10,11
 521 -144 521 -144 519 -151 c 0,12,13
 518 -158 518 -158 511 -162 c 2,14,-1
 385 -234 l 2,15,16
 378 -238 378 -238 370.5 -235.5 c 128,-1,17
 363 -233 363 -233 360 -225 c 2,18,-1
 280 -35 l 1,19,-1
 192 -123 l 2,20,21
 183 -132 183 -132 172 -127.5 c 128,-1,22
 161 -123 161 -123 161 -111 c 2,23,-1
 161 410 l 2,24,25
 161 422 161 422 172 426 c 0,26,27
 175 428 175 428 179 428 c 0,0,1
197 365 m 1,28,-1
 197 -67 l 1,29,-1
 274 10 l 2,30,31
 281 16 281 16 290 14.5 c 128,-1,32
 299 13 299 13 303 4 c 2,33,-1
 385 -193 l 1,34,-1
 477 -140 l 1,35,-1
 361 41 l 2,36,37
 356 50 356 50 361 59 c 0,38,39
 366 69 366 69 376 69 c 2,40,-1
 478 69 l 1,41,-1
 197 365 l 1,28,-1
EndSplineSet
EndChar

StartChar: shapes
Encoding: 6 61446 6
Width: 700
Flags: W
LayerCount: 2
Fore
SplineSet
242 428 m 2,0,-1
 566 428 l 2,1,2
 595 428 595 428 616 407 c 128,-1,3
 637 386 637 386 637 356 c 2,4,-1
 637 33 l 2,5,6
 637 3 637 3 616 -18 c 128,-1,7
 595 -39 595 -39 566 -39 c 2,8,-1
 527 -39 l 1,9,10
 514 -123 514 -123 448.5 -179.5 c 128,-1,11
 383 -236 383 -236 296 -236 c 0,12,13
 200 -236 200 -236 131.5 -167.5 c 128,-1,14
 63 -99 63 -99 63 -3 c 0,15,16
 63 58 63 58 92 110 c 128,-1,17
 121 162 121 162 171 194 c 1,18,-1
 171 356 l 2,19,20
 171 386 171 386 192 407 c 128,-1,21
 213 428 213 428 242 428 c 2,0,-1
242 392 m 2,22,23
 227 392 227 392 217 381.5 c 128,-1,24
 207 371 207 371 207 356 c 2,25,-1
 207 212 l 1,26,27
 250 230 250 230 296 230 c 0,28,29
 393 230 393 230 461.5 161.5 c 128,-1,30
 530 93 530 93 530 -3 c 1,31,-1
 566 -3 l 2,32,33
 581 -3 581 -3 591 7.5 c 128,-1,34
 601 18 601 18 601 33 c 2,35,-1
 601 356 l 2,36,37
 601 371 601 371 591 381.5 c 128,-1,38
 581 392 581 392 566 392 c 2,39,-1
 242 392 l 2,22,23
296 194 m 128,-1,41
 214 194 214 194 156.5 136.5 c 128,-1,42
 99 79 99 79 99 -3 c 128,-1,43
 99 -85 99 -85 156.5 -142.5 c 128,-1,44
 214 -200 214 -200 296 -200 c 0,45,46
 374 -200 374 -200 430 -148 c 128,-1,47
 486 -96 486 -96 493 -20 c 1,48,-1
 493 -19 l 2,49,50
 494 -11 494 -11 494 -3 c 0,51,52
 494 79 494 79 436 136.5 c 128,-1,40
 378 194 378 194 296 194 c 128,-1,41
EndSplineSet
EndChar

StartChar: text
Encoding: 7 61447 7
Width: 700
Flags: W
LayerCount: 2
Fore
SplineSet
114 429 m 2,0,-1
 586 429 l 2,1,2
 600 429 600 429 602 416 c 2,3,-1
 635 204 l 2,4,5
 635 203 635 203 635 202 c 0,6,7
 635 195 635 195 630 190 c 128,-1,8
 625 185 625 185 618 185 c 2,9,-1
 570 185 l 2,10,11
 559 185 559 185 555 195 c 2,12,-1
 494 332 l 1,13,-1
 423 332 l 1,14,-1
 423 -134 l 1,15,-1
 432 -143 l 1,16,-1
 511 -174 l 2,17,18
 521 -178 521 -178 521 -189 c 2,19,-1
 521 -222 l 2,20,21
 521 -228 521 -228 516 -233 c 128,-1,22
 511 -238 511 -238 505 -238 c 2,23,-1
 195 -238 l 2,24,25
 188 -238 188 -238 183.5 -233 c 128,-1,26
 179 -228 179 -228 179 -222 c 2,27,-1
 179 -189 l 2,28,29
 179 -178 179 -178 189 -174 c 2,30,-1
 267 -143 l 1,31,-1
 277 -134 l 1,32,-1
 277 332 l 1,33,-1
 206 332 l 1,34,-1
 145 195 l 2,35,36
 141 185 141 185 130 185 c 2,37,-1
 81 185 l 2,38,39
 75 185 75 185 70 190 c 128,-1,40
 65 195 65 195 65 202 c 0,41,42
 65 203 65 203 65 204 c 2,43,-1
 98 416 l 2,44,45
 100 429 100 429 114 429 c 2,0,-1
128 397 m 1,46,-1
 100 218 l 1,47,-1
 120 218 l 1,48,-1
 180 355 l 2,49,50
 185 364 185 364 195 364 c 2,51,-1
 293 364 l 2,52,53
 300 364 300 364 304.5 359.5 c 128,-1,54
 309 355 309 355 309 348 c 2,55,-1
 309 -140 l 2,56,57
 309 -147 309 -147 304 -152 c 2,58,-1
 288 -168 l 2,59,60
 286 -170 286 -170 283 -172 c 2,61,-1
 212 -200 l 1,62,-1
 212 -205 l 1,63,-1
 488 -205 l 1,64,-1
 488 -200 l 1,65,-1
 417 -172 l 2,66,67
 414 -170 414 -170 412 -168 c 2,68,-1
 395 -152 l 2,69,70
 391 -147 391 -147 391 -140 c 2,71,-1
 391 348 l 2,72,73
 391 355 391 355 395.5 359.5 c 128,-1,74
 400 364 400 364 407 364 c 2,75,-1
 505 364 l 2,76,77
 515 364 515 364 519 355 c 2,78,-1
 580 218 l 1,79,-1
 600 218 l 1,80,-1
 572 397 l 1,81,-1
 128 397 l 1,46,-1
EndSplineSet
EndChar

StartChar: zoom
Encoding: 8 61448 8
Width: 700
Flags: W
LayerCount: 2
Fore
SplineSet
350 381 m 128,-1,1
 404 381 404 381 442 342.5 c 128,-1,2
 480 304 480 304 480 250.5 c 128,-1,3
 480 197 480 197 442 158.5 c 128,-1,4
 404 120 404 120 350 120 c 128,-1,5
 296 120 296 120 258 158.5 c 128,-1,6
 220 197 220 197 220 250.5 c 128,-1,7
 220 304 220 304 258 342.5 c 128,-1,0
 296 381 296 381 350 381 c 128,-1,1
350 348 m 128,-1,9
 309 348 309 348 280.5 319.5 c 128,-1,10
 252 291 252 291 252 250.5 c 128,-1,11
 252 210 252 210 280.5 181.5 c 128,-1,12
 309 153 309 153 350 153 c 128,-1,13
 391 153 391 153 419.5 181.5 c 128,-1,14
 448 210 448 210 448 250.5 c 128,-1,15
 448 291 448 291 419.5 319.5 c 128,-1,8
 391 348 391 348 350 348 c 128,-1,9
318 267 m 1,16,-1
 383 267 l 2,17,18
 390 267 390 267 394.5 262 c 128,-1,19
 399 257 399 257 399 250.5 c 128,-1,20
 399 244 399 244 394.5 239 c 128,-1,21
 390 234 390 234 383 234 c 2,22,-1
 318 234 l 1,23,-1
 317 234 l 2,24,25
 311 234 311 234 306 239 c 128,-1,26
 301 244 301 244 301 250.5 c 128,-1,27
 301 257 301 257 306 262 c 128,-1,28
 311 267 311 267 317 267 c 2,29,-1
 318 267 l 1,16,-1
350 299 m 256,30,31
 357 299 357 299 361.5 294.5 c 128,-1,32
 366 290 366 290 366 283 c 2,33,-1
 366 218 l 2,34,35
 366 211 366 211 361.5 206 c 128,-1,36
 357 201 357 201 350 201 c 128,-1,37
 343 201 343 201 338.5 206 c 128,-1,38
 334 211 334 211 334 218 c 2,39,-1
 334 283 l 2,40,41
 334 290 334 290 338.5 294.5 c 128,-1,42
 343 299 343 299 350 299 c 256,30,31
350 429 m 128,-1,44
 424 429 424 429 476.5 376.5 c 128,-1,45
 529 324 529 324 529 250 c 128,-1,46
 529 176 529 176 476.5 123.5 c 128,-1,47
 424 71 424 71 350 71 c 128,-1,48
 276 71 276 71 223.5 123.5 c 128,-1,49
 171 176 171 176 171 250 c 128,-1,50
 171 324 171 324 223.5 376.5 c 128,-1,43
 276 429 276 429 350 429 c 128,-1,44
350 397 m 128,-1,52
 289 397 289 397 246.5 354 c 128,-1,53
 204 311 204 311 204 250.5 c 128,-1,54
 204 190 204 190 246.5 147 c 128,-1,55
 289 104 289 104 350 104 c 128,-1,56
 411 104 411 104 454 147 c 128,-1,57
 497 190 497 190 497 250.5 c 128,-1,58
 497 311 497 311 454 354 c 128,-1,51
 411 397 411 397 350 397 c 128,-1,52
318 55 m 2,59,-1
 383 55 l 2,60,61
 403 55 403 55 417 40.5 c 128,-1,62
 431 26 431 26 431 6 c 2,63,-1
 431 -189 l 2,64,65
 431 -209 431 -209 417 -223.5 c 128,-1,66
 403 -238 403 -238 383 -238 c 2,67,-1
 318 -238 l 2,68,69
 297 -238 297 -238 283 -223.5 c 128,-1,70
 269 -209 269 -209 269 -189 c 2,71,-1
 269 6 l 2,72,73
 269 26 269 26 283 40.5 c 128,-1,74
 297 55 297 55 318 55 c 2,59,-1
318 22 m 2,75,76
 311 22 311 22 306 17.5 c 128,-1,77
 301 13 301 13 301 6 c 2,78,-1
 301 -189 l 2,79,80
 301 -196 301 -196 306 -200.5 c 128,-1,81
 311 -205 311 -205 318 -205 c 2,82,-1
 383 -205 l 2,83,84
 390 -205 390 -205 394.5 -200.5 c 128,-1,85
 399 -196 399 -196 399 -189 c 2,86,-1
 399 6 l 2,87,88
 399 13 399 13 394.5 17.5 c 128,-1,89
 390 22 390 22 383 22 c 2,90,-1
 318 22 l 2,75,76
317 27 m 1,91,-1
 317 148 l 1,92,-1
 383 148 l 1,93,-1
 383 27 l 1,94,-1
 317 27 l 1,91,-1
EndSplineSet
EndChar

StartChar: vws
Encoding: 9 61449 9
Width: 700
Flags: W
LayerCount: 2
Fore
SplineSet
93.9522416684 -26.8776498425 m 1,0,-1
 93.9762934316 -25.1529178895 l 2,1,2
 93.9762934316 -24.8193344482 93.9762934316 -24.8193344482 93.9507941937 -24.6250071293 c 0,3,4
 93.9507941937 36.6710024865 93.9507941937 36.6710024865 126.219390175 113.695017806 c 0,5,6
 158.818334657 192.758668979 158.818334657 192.758668979 199.489748983 249.474596881 c 0,7,8
 240.418519133 308.025907312 240.418519133 308.025907312 309.289546678 357.367772964 c 128,-1,9
 378.160574223 406.709638616 378.160574223 406.709638616 443.411826579 406.709638616 c 2,10,-1
 443.844510683 406.709638616 l 2,11,12
 519.683486611 406.709638616 519.683486611 406.709638616 566.655575581 345.489523205 c 128,-1,13
 613.627664551 284.269407794 613.627664551 284.269407794 613.627664551 208.073514032 c 0,14,15
 613.63454269 207.120233178 613.63454269 207.120233178 613.63454269 206.162383894 c 0,16,17
 613.63454269 147.894610661 613.63454269 147.894610661 587.73046049 71.3804698298 c 128,-1,18
 561.82637829 -5.13367100123 561.82637829 -5.13367100123 528.180265869 -66.8182104398 c 128,-1,19
 494.534153448 -128.502749878 494.534153448 -128.502749878 432.788716587 -181.499835364 c 0,20,21
 370.390803054 -236.106447385 370.390803054 -236.106447385 306.128304584 -236.222648806 c 0,22,23
 211.543660507 -236.108353288 211.543660507 -236.108353288 153.554203613 -179.29310893 c 0,24,25
 93.9522416684 -121.665257298 93.9522416684 -121.665257298 93.9522416684 -26.8776498425 c 1,0,-1
443.870117188 369.88671875 m 0,26,27
 403.157902393 369.88671875 403.157902393 369.88671875 361.682256297 336.517406197 c 128,-1,28
 320.206610201 303.148093643 320.206610201 303.148093643 294.420413928 262.28201623 c 128,-1,29
 268.634217655 221.415938817 268.634217655 221.415938817 248.921507058 168.714786612 c 0,30,31
 228.282150495 116.109183951 228.282150495 116.109183951 218.876012294 66.1643065919 c 0,32,33
 207.627929688 9.88900888174 207.627929688 9.88900888174 207.627929688 -22.5768411565 c 128,-1,34
 207.627929688 -55.0426911948 207.627929688 -55.0426911948 212.933716664 -80.6085685829 c 128,-1,35
 218.23950364 -106.174445971 218.23950364 -106.174445971 228.506192453 -130.451223957 c 128,-1,36
 238.772881266 -154.728001944 238.772881266 -154.728001944 259.844293347 -170.420641597 c 128,-1,37
 280.915705427 -186.11328125 280.915705427 -186.11328125 306.140625 -186.11328125 c 0,38,39
 356.829357244 -186.11328125 356.829357244 -186.11328125 409.14299981 -139.623175182 c 0,40,41
 463.764519239 -91.7115054391 463.764519239 -91.7115054391 495.127219206 -36.3352736329 c 128,-1,42
 526.489919174 19.0409581733 526.489919174 19.0409581733 551.903594102 90.4680919554 c 0,43,44
 575.640072881 155.687842553 575.640072881 155.687842553 576.000240788 208.070058095 c 0,45,46
 575.646270633 270.610099273 575.646270633 270.610099273 538.753743519 321.309687636 c 0,47,48
 502.606534754 369.88671875 502.606534754 369.88671875 443.870117188 369.88671875 c 0,26,27
EndSplineSet
EndChar

StartChar: anchor
Encoding: 10 61450 10
Width: 700
LayerCount: 2
Fore
SplineSet
349.934570312 301.984375 m 132,-1,1
 364.741210938 301.984375 364.741210938 301.984375 375.196289062 312.432617188 c 132,-1,2
 385.65234375 322.88671875 385.65234375 322.88671875 385.655273438 337.655273438 c 132,-1,3
 385.657226562 352.504882812 385.657226562 352.504882812 375.221679688 362.940429688 c 132,-1,4
 364.78515625 373.375976562 364.78515625 373.375976562 350.04296875 373.375976562 c 132,-1,5
 335.270507812 373.375976562 335.270507812 373.375976562 324.842773438 362.926757812 c 132,-1,6
 314.415039062 352.477539062 314.415039062 352.477539062 314.415039062 337.642578125 c 132,-1,7
 314.415039062 322.918945312 314.415039062 322.918945312 324.8515625 312.452148438 c 132,-1,0
 335.287109375 301.984375 335.287109375 301.984375 349.934570312 301.984375 c 132,-1,1
449.951171875 206.251953125 m 6,8,9
 461.651367188 206.251953125 461.651367188 206.251953125 468.8515625 199.952148438 c 4,10,11
 476.951171875 192.751953125 476.951171875 192.751953125 476.951171875 183.751953125 c 132,-1,12
 476.951171875 174.751953125 476.951171875 174.751953125 468.8515625 167.551757812 c 132,-1,13
 460.750976562 160.3515625 460.750976562 160.3515625 449.951171875 160.3515625 c 6,14,-1
 385.807617188 160.3515625 l 5,15,-1
 385.704101562 -131.266601562 l 5,16,17
 432.8515625 -122.248046875 432.8515625 -122.248046875 469.758789062 -90.099609375 c 4,18,19
 506.651367188 -58.34765625 506.651367188 -58.34765625 522.299804688 -13.2236328125 c 5,20,-1
 500.30078125 -5.916015625 l 6,21,22
 498.55078125 -5.248046875 498.55078125 -5.248046875 493.471679688 -2.3251953125 c 4,23,24
 483.250976562 5.5517578125 483.250976562 5.5517578125 483.224609375 18.162109375 c 4,25,26
 483.250976562 28.9521484375 483.250976562 28.9521484375 488.1171875 33.1884765625 c 4,27,28
 489.55078125 34.3515625 489.55078125 34.3515625 492.211914062 37.5732421875 c 6,29,-1
 579.799804688 119.794921875 l 6,30,31
 588.55078125 127.952148438 588.55078125 127.952148438 597.56640625 127.543945312 c 4,32,33
 606.55078125 127.952148438 606.55078125 127.952148438 612.71875 121.981445312 c 4,34,35
 619.75390625 115.62109375 619.75390625 115.62109375 620.971679688 108.032226562 c 6,36,-1
 639.984375 -10.4580078125 l 6,37,38
 640.750976562 -15.1484375 640.750976562 -15.1484375 640.646484375 -16.240234375 c 4,39,40
 640.750976562 -26.84765625 640.750976562 -26.84765625 633.19921875 -34.373046875 c 4,41,42
 626.3515625 -41.248046875 626.3515625 -41.248046875 615.245117188 -41.8125 c 4,43,44
 612.087890625 -42.1337890625 612.087890625 -42.1337890625 607.709960938 -40.6787109375 c 6,45,-1
 587.170898438 -33.849609375 l 5,46,47
 562.451171875 -109.6484375 562.451171875 -109.6484375 497.201171875 -157.508789062 c 4,48,49
 431.951171875 -205.047851562 431.951171875 -205.047851562 350.208984375 -205.48046875 c 4,50,51
 268.151367188 -205.047851562 268.151367188 -205.047851562 203.259765625 -157.543945312 c 4,52,53
 138.55078125 -109.6484375 138.55078125 -109.6484375 113.2734375 -34.0078125 c 5,54,-1
 92.671875 -40.6982421875 l 6,55,56
 73.7509765625 -46.6484375 73.7509765625 -46.6484375 64.525390625 -34.34765625 c 4,57,58
 58.1201171875 -24.541015625 58.1201171875 -24.541015625 60.3779296875 -10.4580078125 c 6,59,-1
 79.373046875 108.032226562 l 6,60,61
 80.951171875 116.251953125 80.951171875 116.251953125 87.60546875 121.97265625 c 4,62,63
 94.451171875 127.952148438 94.451171875 127.952148438 102.934570312 127.537109375 c 4,64,65
 111.798828125 127.963867188 111.798828125 127.963867188 120.5625 119.745117188 c 6,66,-1
 208.181640625 37.5732421875 l 6,67,68
 211.451171875 34.3515625 211.451171875 34.3515625 212.227539062 33.181640625 c 4,69,70
 218.651367188 24.4521484375 218.651367188 24.4521484375 216.958984375 14.36328125 c 4,71,72
 215.05078125 1.9521484375 215.05078125 1.9521484375 206.935546875 -2.3251953125 c 4,73,74
 197.05078125 -7.0478515625 197.05078125 -7.0478515625 177.885742188 -13.2353515625 c 5,75,76
 194.3515625 -59.248046875 194.3515625 -59.248046875 232.004882812 -91.130859375 c 4,77,78
 269.951171875 -123.1484375 269.951171875 -123.1484375 318.375 -131.876953125 c 5,79,-1
 318.271484375 160.3515625 l 5,80,-1
 250.151367188 160.3515625 l 6,81,82
 239.3515625 160.3515625 239.3515625 160.3515625 231.250976562 167.551757812 c 132,-1,83
 223.151367188 174.751953125 223.151367188 174.751953125 223.151367188 183.751953125 c 132,-1,84
 223.151367188 192.751953125 223.151367188 192.751953125 231.250976562 199.952148438 c 4,85,86
 238.451171875 206.251953125 238.451171875 206.251953125 250.151367188 206.251953125 c 6,87,-1
 318.255859375 206.251953125 l 5,88,-1
 318.237304688 257.696289062 l 5,89,90
 294.250976562 267.452148438 294.250976562 267.452148438 279.711914062 289.536132812 c 4,91,92
 264.55078125 311.551757812 264.55078125 311.551757812 264.89453125 337.642578125 c 4,93,94
 264.55078125 373.65234375 264.55078125 373.65234375 290.345703125 399.086914062 c 4,95,96
 315.8515625 424.952148438 315.8515625 424.952148438 351.708984375 424.51953125 c 4,97,98
 387.8515625 424.952148438 387.8515625 424.952148438 413.16015625 399.103515625 c 4,99,100
 438.250976562 373.65234375 438.250976562 373.65234375 438.573242188 337.655273438 c 4,101,102
 438.250976562 310.65234375 438.250976562 310.65234375 424.051757812 289.400390625 c 4,103,104
 409.451171875 267.452148438 409.451171875 267.452148438 385.841796875 257.696289062 c 5,105,-1
 385.82421875 206.251953125 l 5,106,-1
 449.951171875 206.251953125 l 6,8,9
EndSplineSet
EndChar

StartChar: pap
Encoding: 11 61451 11
Width: 700
Flags: W
LayerCount: 2
Back
SplineSet
208.74609375 102.28515625 m 261,0,-1
 233.612304688 186.25 l 261,1,-1
 233.43359375 191.958007812 l 5,2,-1
 228.6875 195.685546875 l 5,3,-1
 140.00390625 221.169921875 l 261,4,-1
 133 219.83203125 l 5,5,-1
 127.625 213.505859375 l 5,6,-1
 95.005859375 104.209960938 l 261,7,-1
 96.3349609375 97.310546875 l 5,8,-1
 101.94921875 94.470703125 l 261,9,-1
 198.530273438 94.359375 l 261,10,-1
 205.135742188 96.69140625 l 5,11,-1
 208.74609375 102.28515625 l 261,0,-1
214.229492188 182.780273438 m 261,12,-1
 192.952148438 110.763671875 l 261,13,-1
 114.356445312 113.392578125 l 261,14,-1
 139.967773438 199.76953125 l 261,15,-1
 214.229492188 182.780273438 l 261,12,-1
163.60546875 151.895507812 m 261,16,-1
 180.618164062 199.877929688 l 261,17,-1
 135.751953125 211.416015625 l 261,18,-1
 116.620117188 157.499023438 l 261,19,-1
 163.60546875 151.895507812 l 261,16,-1
200.026367188 102.43359375 m 261,20,-1
 210.590820312 146.291992188 l 261,21,-1
 163.60546875 151.895507812 l 261,22,-1
 151.875976562 103.248046875 l 261,23,-1
 200.026367188 102.43359375 l 261,20,-1
239.978515625 200.399414062 m 261,24,-1
 285.93359375 268.619140625 l 261,25,-1
 287.733398438 273.818359375 l 5,26,-1
 285.201171875 279.283203125 l 5,27,-1
 222.46484375 341.685546875 l 261,28,-1
 215.853515625 343.120117188 l 5,29,-1
 208.185546875 338.627929688 l 5,30,-1
 136.592773438 233.432617188 l 261,31,-1
 135.696289062 225.682617188 l 5,32,-1
 140.00390625 221.169921875 l 261,33,-1
 228.6875 195.685546875 l 261,34,-1
 235.314453125 196.138671875 l 5,35,-1
 239.978515625 200.399414062 l 261,24,-1
268.661132812 273.547851562 m 261,36,-1
 227.765625 212.836914062 l 261,37,-1
 157.122070312 237.83203125 l 261,38,-1
 212.405273438 319.533203125 l 261,39,-1
 268.661132812 273.547851562 l 261,36,-1
214.081054688 262.26171875 m 261,40,-1
 247.059570312 303.623046875 l 261,41,-1
 214.146484375 333.259765625 l 261,42,-1
 174.563476562 283.674804688 l 261,43,-1
 214.081054688 262.26171875 l 261,40,-1
232.051757812 202.931640625 m 261,44,-1
 253.599609375 240.848632812 l 261,45,-1
 214.081054688 262.26171875 l 261,46,-1
 188.286132812 216.916015625 l 261,47,-1
 232.051757812 202.931640625 l 261,44,-1
295.947265625 278.41015625 m 261,48,-1
 357.94921875 314.290039062 l 261,49,-1
 361.870117188 317.864257812 l 5,50,-1
 363.232421875 324.297851562 l 5,51,-1
 357.133789062 418.203125 l 261,52,-1
 353.172851562 423.36328125 l 5,53,-1
 344.55078125 423.608398438 l 5,54,-1
 225.75 355.794921875 l 261,55,-1
 221.047851562 348.12109375 l 5,56,-1
 222.46484375 341.685546875 l 5,57,-1
 285.201171875 279.283203125 l 261,58,-1
 290.713867188 276.733398438 l 5,59,-1
 295.947265625 278.41015625 l 261,48,-1
349.146484375 328.959960938 m 261,60,-1
 290.999023438 295.375 l 261,61,-1
 245.204101562 351.543945312 l 261,62,-1
 335.59765625 403.427734375 l 261,63,-1
 349.146484375 328.959960938 l 261,60,-1
303.559570312 348.4609375 m 261,64,-1
 351.25 368.94921875 l 261,65,-1
 345.579101562 415.2265625 l 261,66,-1
 284.508789062 389.034179688 l 261,67,-1
 303.559570312 348.4609375 l 261,64,-1
290.565429688 284.34375 m 261,68,-1
 322.612304688 307.887695312 l 261,69,-1
 303.559570312 348.4609375 l 261,70,-1
 260.84765625 317.102539062 l 261,71,-1
 290.565429688 284.34375 l 261,68,-1
369.659179688 317 m 261,72,-1
 430.909179688 310.295898438 l 261,73,-1
 435.897460938 310.884765625 l 5,74,-1
 441.08203125 315.649414062 l 5,75,-1
 499.291015625 402.174804688 l 261,76,-1
 500.158203125 409.241210938 l 261,77,-1
 494.7578125 414.974609375 l 5,78,-1
 368.6328125 429.18359375 l 261,79,-1
 360.234375 424.9375 l 5,80,-1
 357.133789062 418.203125 l 5,81,-1
 363.232421875 324.297851562 l 261,82,-1
 365.377929688 318.67578125 l 5,83,-1
 369.659179688 317 l 261,72,-1
434.90625 328.858398438 m 261,84,-1
 376.359375 335.258789062 l 261,85,-1
 379.8671875 413.686523438 l 261,86,-1
 475.537109375 403.006835938 l 261,87,-1
 434.90625 328.858398438 l 261,84,-1
418.055664062 375.051757812 m 261,88,-1
 462.833984375 362.635742188 l 261,89,-1
 489.862304688 406.94921875 l 261,90,-1
 431.60546875 423.083984375 l 261,91,-1
 418.055664062 375.051757812 l 261,88,-1
369.580078125 325.6015625 m 261,92,-1
 404.505859375 327.01953125 l 261,93,-1
 418.055664062 375.051757812 l 261,94,-1
 369.146484375 373.091796875 l 261,95,-1
 369.580078125 325.6015625 l 261,92,-1
440.623046875 305.01171875 m 261,96,-1
 481.00390625 257.53125 l 261,97,-1
 485.153320312 254.819335938 l 5,98,-1
 491.754882812 256.16796875 l 5,99,-1
 584.118164062 303.995117188 l 261,100,-1
 588.897460938 309.890625 l 5,101,-1
 588.505859375 317.810546875 l 5,102,-1
 513.91796875 404.56640625 l 261,103,-1
 505.737304688 406.1328125 l 5,104,-1
 499.291015625 402.174804688 l 5,105,-1
 441.08203125 315.649414062 l 261,106,-1
 438.802734375 309.303710938 l 5,107,-1
 440.623046875 305.01171875 l 261,96,-1
494.61328125 272.83984375 m 261,108,-1
 457.225585938 316.734375 l 261,109,-1
 510.932617188 383.846679688 l 261,110,-1
 567.875976562 317.309570312 l 261,111,-1
 494.61328125 272.83984375 l 261,108,-1
511.1015625 325.688476562 m 261,112,-1
 534.754882812 287.670898438 l 261,113,-1
 580.263671875 313.188476562 l 261,114,-1
 550.918945312 360.26953125 l 261,115,-1
 511.1015625 325.688476562 l 261,112,-1
446.243164062 312.64453125 m 261,116,-1
 471.284179688 291.107421875 l 261,117,-1
 511.1015625 325.688476562 l 261,118,-1
 477.270507812 354.7890625 l 261,119,-1
 446.243164062 312.64453125 l 261,116,-1
485.571289062 245.9296875 m 261,120,-1
 495.901367188 170.814453125 l 261,121,-1
 498.36328125 165.89453125 l 5,122,-1
 504.559570312 164.513671875 l 5,123,-1
 602.573242188 177.516601562 l 261,124,-1
 608.9609375 181.328125 l 5,125,-1
 611.741210938 188.693359375 l 5,126,-1
 596.02734375 298.725585938 l 261,127,-1
 591.045898438 304.252929688 l 5,128,-1
 584.118164062 303.995117188 l 5,129,-1
 491.754882812 256.16796875 l 261,130,-1
 486.508789062 251.373046875 l 5,131,-1
 485.571289062 245.9296875 l 261,120,-1
513.709960938 181.3515625 m 261,132,-1
 504.66015625 247.372070312 l 261,133,-1
 582.046875 281.479492188 l 261,134,-1
 594.032226562 195.571289062 l 261,135,-1
 513.709960938 181.3515625 l 261,132,-1
551.270507812 227.2421875 m 261,136,-1
 553.821289062 179.75390625 l 261,137,-1
 602.858398438 187.322265625 l 261,138,-1
 599.92578125 241.551757812 l 261,139,-1
 551.270507812 227.2421875 l 261,136,-1
494.040039062 249.977539062 m 261,140,-1
 502.616210938 212.932617188 l 261,141,-1
 551.270507812 227.2421875 l 261,142,-1
 540.798828125 272.327148438 l 261,143,-1
 494.040039062 249.977539062 l 261,140,-1
495.294921875 155.77734375 m 261,144,-1
 481.274414062 69.232421875 l 261,145,-1
 482.360351562 63.5166015625 l 5,146,-1
 487.803710938 60.6533203125 l 5,147,-1
 582.345703125 51.4658203125 l 261,148,-1
 589.193359375 53.8212890625 l 5,149,-1
 593.493164062 60.4873046875 l 5,150,-1
 610.936523438 168.721679688 l 261,151,-1
 608.66015625 175.434570312 l 5,152,-1
 602.573242188 177.516601562 l 5,153,-1
 504.559570312 164.513671875 l 261,154,-1
 498.184570312 161.459960938 l 5,155,-1
 495.294921875 155.77734375 l 261,144,-1
500.465820312 76.0078125 m 261,156,-1
 512.448242188 149.77734375 l 261,157,-1
 592.5078125 157.150390625 l 261,158,-1
 578.607421875 71.337890625 l 261,159,-1
 500.465820312 76.0078125 l 261,156,-1
547.495117188 113.590820312 m 261,160,-1
 537.384765625 64.859375 l 261,161,-1
 584.888671875 61.158203125 l 261,162,-1
 595.89453125 114.172851562 l 261,163,-1
 547.495117188 113.590820312 l 261,160,-1
504.161132812 156.770507812 m 261,164,-1
 499.095703125 113.008789062 l 261,165,-1
 547.495117188 113.590820312 l 261,166,-1
 553.115234375 162.25 l 261,167,-1
 504.161132812 156.770507812 l 261,164,-1
477.079101562 53.806640625 m 261,168,-1
 443.7578125 -24.017578125 l 261,169,-1
 443.129882812 -29.4833984375 l 5,170,-1
 447.053710938 -33.9765625 l 5,171,-1
 526.713867188 -75.8642578125 l 261,172,-1
 533.723632812 -75.6162109375 l 5,173,-1
 540.211914062 -69.76953125 l 5,174,-1
 588.12109375 40.7421875 l 261,175,-1
 587.549804688 48.005859375 l 5,176,-1
 582.345703125 51.4658203125 l 5,177,-1
 487.803710938 60.6533203125 l 261,178,-1
 481.125 58.9716796875 l 5,179,-1
 477.079101562 53.806640625 l 261,168,-1
462.64453125 -24.1337890625 m 261,180,-1
 491.704101562 43.8447265625 l 261,181,-1
 568.204101562 33.17578125 l 261,182,-1
 531.002929688 -53.3505859375 l 261,183,-1
 462.64453125 -24.1337890625 l 261,180,-1
515.623046875 -0.712890625 m 261,184,-1
 491.985351562 -46.8935546875 l 261,185,-1
 532.81640625 -66.26171875 l 261,186,-1
 560.461914062 -12.3173828125 l 261,187,-1
 515.623046875 -0.712890625 l 261,184,-1
485.592773438 52.8046875 m 261,188,-1
 470.784179688 10.892578125 l 261,189,-1
 515.623046875 -0.712890625 l 261,190,-1
 532.600585938 47.2744140625 l 261,191,-1
 485.592773438 52.8046875 l 261,188,-1
435.771484375 -36.1611328125 m 261,192,-1
 381.422851562 -88.0693359375 l 261,193,-1
 378.383789062 -92.583984375 l 5,194,-1
 378.944335938 -98.8271484375 l 5,195,-1
 414.512695312 -181.40234375 l 261,196,-1
 420.03125 -184.888671875 l 5,197,-1
 428.58984375 -182.633789062 l 5,198,-1
 527.260742188 -89.453125 l 261,199,-1
 529.870117188 -81.373046875 l 5,200,-1
 526.713867188 -75.8642578125 l 5,201,-1
 447.053710938 -33.9765625 l 261,202,-1
 440.759765625 -33.0888671875 l 5,203,-1
 435.771484375 -36.1611328125 l 261,192,-1
394.997070312 -98.564453125 m 261,204,-1
 445.146484375 -50.712890625 l 261,205,-1
 506.607421875 -90.359375 l 261,206,-1
 431.216796875 -161.90234375 l 261,207,-1
 394.997070312 -98.564453125 l 261,204,-1
447.049804688 -103.044921875 m 261,208,-1
 405.006835938 -135.3515625 l 261,209,-1
 424.973632812 -175.3828125 l 261,210,-1
 477.954101562 -134.694335938 l 261,211,-1
 447.049804688 -103.044921875 l 261,208,-1
442.786132812 -40.248046875 m 261,212,-1
 416.145507812 -71.3955078125 l 261,213,-1
 447.049804688 -103.044921875 l 261,214,-1
 481.515625 -62.8076171875 l 261,215,-1
 442.786132812 -40.248046875 l 261,212,-1
369.875 -94.40234375 m 261,216,-1
 304.212890625 -108.452148438 l 261,217,-1
 299.315429688 -110.666015625 l 5,218,-1
 295.794921875 -116.630859375 l 5,219,-1
 268.215820312 -212.641601562 l 261,220,-1
 269.827148438 -219.146484375 l 5,221,-1
 277.131835938 -222.333984375 l 5,222,-1
 406.715820312 -194.6328125 l 261,223,-1
 413.58984375 -188.356445312 l 5,224,-1
 414.512695312 -181.40234375 l 5,225,-1
 378.944335938 -98.8271484375 l 261,226,-1
 374.9375 -94.4736328125 l 6,227,228
 372.3203125 -93.162109375 372.3203125 -93.162109375 369.875 -94.40234375 c 5,229,-1
 369.875 -94.40234375 l 261,216,-1
306.939453125 -126.174804688 m 261,230,-1
 368.783203125 -112.946289062 l 261,231,-1
 390.668945312 -184.158203125 l 261,232,-1
 291.94140625 -205.271484375 l 261,233,-1
 306.939453125 -126.174804688 l 261,230,-1
339.79296875 -161.69921875 m 261,234,-1
 290.671875 -165.393554688 l 261,235,-1
 279.208984375 -213.602539062 l 261,236,-1
 341.959960938 -208.84765625 l 261,237,-1
 339.79296875 -161.69921875 l 261,234,-1
372.69921875 -102.086914062 m 261,238,-1
 337.625976562 -114.549804688 l 261,239,-1
 339.79296875 -161.69921875 l 261,240,-1
 388.294921875 -144.517578125 l 261,241,-1
 372.69921875 -102.086914062 l 261,238,-1
292.528320312 -107.130859375 m 261,242,-1
 238.07421875 -78.9892578125 l 261,243,-1
 233.245117188 -78.005859375 l 5,244,-1
 227.08984375 -81.283203125 l 5,245,-1
 148.7578125 -151.9375 l 261,246,-1
 145.842773438 -158.770507812 l 5,247,-1
 148.901367188 -165.974609375 l 5,248,-1
 254.401367188 -219.754882812 l 261,249,-1
 263.178710938 -218.33203125 l 5,250,-1
 268.215820312 -212.641601562 l 5,251,-1
 295.794921875 -116.630859375 l 261,252,-1
 295.821289062 -110.271484375 l 5,253,-1
 292.528320312 -107.130859375 l 261,242,-1
229.053710938 -96.7236328125 m 261,254,-1
 280.215820312 -123.140625 l 261,255,-1
 249.932617188 -200.471679688 l 261,256,-1
 169.69140625 -159.354492188 l 261,257,-1
 229.053710938 -96.7236328125 l 261,254,-1
229.629882812 -148.940429688 m 261,258,-1
 193.48828125 -122.481445312 l 261,259,-1
 155.73828125 -159.3046875 l 261,260,-1
 201.186523438 -192.5546875 l 261,261,-1
 229.629882812 -148.940429688 l 261,258,-1
289.604492188 -115.765625 m 261,262,-1
 258.073242188 -105.326171875 l 261,263,-1
 229.629882812 -148.940429688 l 261,264,-1
 273.46484375 -163.442382812 l 261,265,-1
 289.604492188 -115.765625 l 261,262,-1
230.513671875 -70.5537109375 m 261,266,-1
 204.352539062 -8.68359375 l 261,267,-1
 201.013671875 -4.7958984375 l 5,268,-1
 194.497070312 -4.681640625 l 5,269,-1
 97.2626953125 -33.84375 l 262,270,271
 93.61328125 -34.9384765625 93.61328125 -34.9384765625 91.4736328125 -38.724609375 c 6,272,-1
 90.0537109375 -46.5966796875 l 5,273,-1
 134.872070312 -150.325195312 l 261,274,-1
 141.77734375 -154.133789062 l 5,275,-1
 148.7578125 -151.9375 l 5,276,-1
 227.08984375 -81.283203125 l 261,277,-1
 230.98828125 -75.4892578125 l 5,278,-1
 230.513671875 -70.5537109375 l 261,266,-1
188.196289062 -21.541015625 m 261,279,-1
 211.952148438 -77.646484375 l 261,280,-1
 143.650390625 -130.323242188 l 261,281,-1
 109.435546875 -50.3017578125 l 261,282,-1
 188.196289062 -21.541015625 l 261,279,-1
159.95703125 -71.7861328125 m 261,283,-1
 147.203125 -27.6396484375 l 261,284,-1
 98.8173828125 -43.689453125 l 261,285,-1
 114.112304688 -96.5263671875 l 261,286,-1
 159.95703125 -71.7861328125 l 261,283,-1
223.1796875 -76.669921875 m 261,287,-1
 205.801757812 -47.044921875 l 261,288,-1
 159.95703125 -71.7861328125 l 261,289,-1
 182.693359375 -110.439453125 l 261,290,-1
 223.1796875 -76.669921875 l 261,287,-1
202.466796875 4.7421875 m 261,291,-1
 205.954101562 86.5146484375 l 261,292,-1
 204.311523438 92.041015625 l 5,293,-1
 198.530273438 94.359375 l 5,294,-1
 101.94921875 94.470703125 l 261,295,-1
 95.251953125 91.5478515625 l 5,296,-1
 91.5439453125 84.6494140625 l 5,297,-1
 87.2060546875 -26.3447265625 l 261,298,-1
 90.69921875 -32.75 l 5,299,-1
 97.2626953125 -33.84375 l 5,300,-1
 194.497070312 -4.681640625 l 261,301,-1
 200.456054688 -0.8193359375 l 5,302,-1
 202.466796875 4.7421875 l 261,291,-1
187.186523438 78.123046875 m 261,303,-1
 184.118164062 7.384765625 l 261,304,-1
 104.001953125 -11.9208984375 l 261,305,-1
 107.646484375 75.3798828125 l 261,306,-1
 187.186523438 78.123046875 l 261,303,-1
143.6015625 36.9580078125 m 261,307,-1
 148.748046875 85.58203125 l 261,308,-1
 100.31640625 84.7919921875 l 261,309,-1
 94.6064453125 30.73046875 l 261,310,-1
 143.6015625 36.9580078125 l 261,307,-1
193.629882812 2.3583984375 m 261,311,-1
 192.596679688 43.185546875 l 261,312,-1
 143.6015625 36.9580078125 l 261,313,-1
 144.8359375 -10.8017578125 l 261,314,-1
 193.629882812 2.3583984375 l 261,311,-1
EndSplineSet
Fore
SplineSet
202.466796875 4.7421875 m 1,0,-1
 205.954101562 86.5146484375 l 1,1,-1
 204.311523438 92.041015625 l 1,2,-1
 198.530273438 94.359375 l 1,3,-1
 205.135742188 96.69140625 l 1,4,-1
 208.74609375 102.28515625 l 1,5,-1
 233.612304688 186.25 l 1,6,-1
 233.43359375 191.958007812 l 1,7,-1
 228.6875 195.685546875 l 1,8,-1
 235.314453125 196.138671875 l 1,9,-1
 239.978515625 200.399414062 l 1,10,-1
 285.93359375 268.619140625 l 1,11,-1
 287.733398438 273.818359375 l 1,12,-1
 285.201171875 279.283203125 l 1,13,-1
 290.713867188 276.733398438 l 1,14,-1
 295.947265625 278.41015625 l 1,15,-1
 357.94921875 314.290039062 l 1,16,-1
 361.870117188 317.864257812 l 1,17,-1
 363.232421875 324.297851562 l 1,18,-1
 365.377929688 318.67578125 l 1,19,-1
 369.659179688 317 l 1,20,-1
 430.909179688 310.295898438 l 1,21,-1
 435.897460938 310.884765625 l 1,22,-1
 441.08203125 315.649414062 l 1,23,-1
 438.802734375 309.303710938 l 1,24,-1
 440.623046875 305.01171875 l 1,25,-1
 481.00390625 257.53125 l 1,26,-1
 485.153320312 254.819335938 l 1,27,-1
 491.754882812 256.16796875 l 1,28,-1
 486.508789062 251.373046875 l 1,29,-1
 485.571289062 245.9296875 l 1,30,-1
 495.901367188 170.814453125 l 1,31,-1
 498.36328125 165.89453125 l 1,32,-1
 504.559570312 164.513671875 l 1,33,-1
 498.184570312 161.459960938 l 1,34,-1
 495.294921875 155.77734375 l 1,35,-1
 481.274414062 69.232421875 l 1,36,-1
 482.360351562 63.5166015625 l 1,37,-1
 487.803710938 60.6533203125 l 1,38,-1
 481.125 58.9716796875 l 1,39,-1
 477.079101562 53.806640625 l 1,40,-1
 443.7578125 -24.017578125 l 1,41,-1
 443.129882812 -29.4833984375 l 1,42,-1
 447.053710938 -33.9765625 l 1,43,-1
 440.759765625 -33.0888671875 l 1,44,-1
 435.771484375 -36.1611328125 l 1,45,-1
 381.422851562 -88.0693359375 l 1,46,-1
 378.383789062 -92.583984375 l 1,47,-1
 378.944335938 -98.8271484375 l 1,48,-1
 374.9375 -94.4736328125 l 2,49,50
 372.3203125 -93.162109375 372.3203125 -93.162109375 369.875 -94.40234375 c 2,51,-1
 304.212890625 -108.452148438 l 1,52,-1
 299.315429688 -110.666015625 l 1,53,-1
 295.794921875 -116.630859375 l 1,54,-1
 295.821289062 -110.271484375 l 1,55,-1
 292.528320312 -107.130859375 l 1,56,-1
 238.07421875 -78.9892578125 l 1,57,-1
 233.245117188 -78.005859375 l 1,58,-1
 227.08984375 -81.283203125 l 1,59,-1
 230.98828125 -75.4892578125 l 1,60,-1
 230.513671875 -70.5537109375 l 1,61,-1
 204.352539062 -8.68359375 l 1,62,-1
 201.013671875 -4.7958984375 l 1,63,-1
 194.497070312 -4.681640625 l 1,64,-1
 200.456054688 -0.8193359375 l 1,65,-1
 202.466796875 4.7421875 l 1,0,-1
143.6015625 36.9580078125 m 1,66,-1
 144.611942842 -2.13507844064 l 1,67,-1
 104.001953125 -11.9208984375 l 1,68,-1
 105.842131978 32.1585840729 l 1,69,-1
 143.6015625 36.9580078125 l 1,66,-1
143.6015625 36.9580078125 m 1,70,-1
 147.814852427 76.7652030234 l 1,71,-1
 187.186523438 78.123046875 l 1,72,-1
 185.632671692 42.3003845504 l 1,73,-1
 143.6015625 36.9580078125 l 1,70,-1
159.95703125 -71.7861328125 m 1,74,-1
 178.554838792 -103.403683723 l 1,75,-1
 143.650390625 -130.323242188 l 1,76,-1
 126.371218057 -89.9108104443 l 1,77,-1
 159.95703125 -71.7861328125 l 1,74,-1
159.95703125 -71.7861328125 m 1,78,-1
 149.521301369 -35.6638047109 l 1,79,-1
 188.196289062 -21.541015625 l 1,80,-1
 200.261084144 -50.035079877 l 1,81,-1
 159.95703125 -71.7861328125 l 1,78,-1
97.2626953125 -33.84375 m 1,82,83
 93.61328125 -34.9384765625 93.61328125 -34.9384765625 91.4736328125 -38.724609375 c 2,84,-1
 90.0537109375 -46.5966796875 l 1,85,-1
 134.872070312 -150.325195312 l 1,86,-1
 141.77734375 -154.133789062 l 1,87,-1
 148.7578125 -151.9375 l 1,88,-1
 145.842773438 -158.770507812 l 1,89,-1
 148.901367188 -165.974609375 l 1,90,-1
 254.401367188 -219.754882812 l 1,91,-1
 263.178710938 -218.33203125 l 1,92,-1
 268.215820312 -212.641601562 l 1,93,-1
 269.827148438 -219.146484375 l 1,94,-1
 277.131835938 -222.333984375 l 1,95,-1
 339.264365158 -209.051911909 l 1,96,-1
 341.959960938 -208.84765625 l 1,97,-1
 341.943030596 -208.479293525 l 1,98,-1
 406.715820312 -194.6328125 l 1,99,-1
 413.58984375 -188.356445312 l 1,100,-1
 414.512695312 -181.40234375 l 1,101,-1
 420.03125 -184.888671875 l 1,102,-1
 428.58984375 -182.633789062 l 1,103,-1
 527.260742188 -89.453125 l 1,104,-1
 529.870117188 -81.373046875 l 1,105,-1
 526.713867188 -75.8642578125 l 1,106,-1
 533.723632812 -75.6162109375 l 1,107,-1
 540.211914062 -69.76953125 l 1,108,-1
 588.12109375 40.7421875 l 1,109,-1
 587.549804688 48.005859375 l 1,110,-1
 582.345703125 51.4658203125 l 1,111,-1
 589.193359375 53.8212890625 l 1,112,-1
 593.493164062 60.4873046875 l 1,113,-1
 610.936523438 168.721679688 l 1,114,-1
 608.66015625 175.434570312 l 1,115,-1
 602.573242188 177.516601562 l 1,116,-1
 608.9609375 181.328125 l 1,117,-1
 611.741210938 188.693359375 l 1,118,-1
 596.02734375 298.725585938 l 1,119,-1
 591.045898438 304.252929688 l 1,120,-1
 584.118164062 303.995117188 l 1,121,-1
 588.897460938 309.890625 l 1,122,-1
 588.505859375 317.810546875 l 1,123,-1
 513.91796875 404.56640625 l 1,124,-1
 505.737304688 406.1328125 l 1,125,-1
 499.291015625 402.174804688 l 1,126,-1
 500.158203125 409.241210938 l 1,127,-1
 494.7578125 414.974609375 l 1,128,-1
 437.659965167 421.407136 l 1,129,-1
 431.60546875 423.083984375 l 1,130,-1
 431.333491992 422.11986352 l 1,131,-1
 368.6328125 429.18359375 l 1,132,-1
 360.234375 424.9375 l 1,133,-1
 357.133789062 418.203125 l 1,134,-1
 353.172851562 423.36328125 l 1,135,-1
 344.55078125 423.608398438 l 1,136,-1
 225.75 355.794921875 l 1,137,-1
 221.047851562 348.12109375 l 1,138,-1
 222.46484375 341.685546875 l 1,139,-1
 215.853515625 343.120117188 l 1,140,-1
 208.185546875 338.627929688 l 1,141,-1
 136.592773438 233.432617188 l 1,142,-1
 135.696289062 225.682617188 l 1,143,-1
 140.00390625 221.169921875 l 1,144,-1
 133 219.83203125 l 1,145,-1
 127.625 213.505859375 l 1,146,-1
 95.005859375 104.209960938 l 1,147,-1
 96.3349609375 97.310546875 l 1,148,-1
 101.94921875 94.470703125 l 1,149,-1
 95.251953125 91.5478515625 l 1,150,-1
 91.5439453125 84.6494140625 l 1,151,-1
 87.2060546875 -26.3447265625 l 1,152,-1
 90.69921875 -32.75 l 1,153,-1
 97.2626953125 -33.84375 l 1,82,83
229.629882812 -148.940429688 m 1,154,-1
 265.469322029 -160.797218343 l 1,155,-1
 249.932617188 -200.471679688 l 1,156,-1
 209.526311733 -179.7666876 l 1,157,-1
 229.629882812 -148.940429688 l 1,154,-1
229.629882812 -148.940429688 m 1,158,-1
 200.071873908 -127.301242105 l 1,159,-1
 229.053710938 -96.7236328125 l 1,160,-1
 254.959937035 -110.100027586 l 1,161,-1
 229.629882812 -148.940429688 l 1,158,-1
339.79296875 -161.69921875 m 1,162,-1
 379.449142152 -147.651163444 l 1,163,-1
 390.668945312 -184.158203125 l 1,164,-1
 341.31035102 -194.713737004 l 1,165,-1
 339.79296875 -161.69921875 l 1,162,-1
339.79296875 -161.69921875 m 1,166,-1
 299.630685483 -164.719773772 l 1,167,-1
 306.939453125 -126.174804688 l 1,168,-1
 337.856320051 -119.561618113 l 1,169,-1
 339.79296875 -161.69921875 l 1,166,-1
447.049804688 -103.044921875 m 1,170,-1
 475.244896015 -70.1284129931 l 1,171,-1
 506.607421875 -90.359375 l 1,172,-1
 469.265123126 -125.795862129 l 1,173,-1
 447.049804688 -103.044921875 l 1,170,-1
447.049804688 -103.044921875 m 1,174,-1
 412.667501113 -129.46495734 l 1,175,-1
 394.997070312 -98.564453125 l 1,176,-1
 419.678624905 -75.0138100263 l 1,177,-1
 447.049804688 -103.044921875 l 1,174,-1
515.623046875 -0.712890625 m 1,178,-1
 529.521250839 38.5706207127 l 1,179,-1
 568.204101562 33.17578125 l 1,180,-1
 549.827997356 -9.56527931194 l 1,181,-1
 515.623046875 -0.712890625 l 1,178,-1
515.623046875 -0.712890625 m 1,182,-1
 496.277211783 -38.5086020766 l 1,183,-1
 462.64453125 -24.1337890625 l 1,184,-1
 476.936903323 9.30009271318 l 1,185,-1
 515.623046875 -0.712890625 l 1,182,-1
547.495117188 113.590820312 m 1,186,-1
 552.096379757 153.42871954 l 1,187,-1
 592.5078125 157.150390625 l 1,188,-1
 585.525871529 114.048162367 l 1,189,-1
 547.495117188 113.590820312 l 1,186,-1
547.495117188 113.590820312 m 1,190,-1
 539.217264273 73.6919370608 l 1,191,-1
 500.465820312 76.0078125 l 1,192,-1
 506.490351578 113.097714033 l 1,193,-1
 547.495117188 113.590820312 l 1,190,-1
551.270507812 227.2421875 m 1,194,-1
 542.700854913 264.138127573 l 1,195,-1
 582.046875 281.479492188 l 1,196,-1
 588.102455472 238.074504483 l 1,197,-1
 551.270507812 227.2421875 l 1,194,-1
551.270507812 227.2421875 m 1,198,-1
 553.358448965 188.370670514 l 1,199,-1
 513.709960938 181.3515625 l 1,200,-1
 509.118815093 214.845078724 l 1,201,-1
 551.270507812 227.2421875 l 1,198,-1
511.1015625 325.688476562 m 1,202,-1
 483.435412343 349.486173313 l 1,203,-1
 510.932617188 383.846679688 l 1,204,-1
 539.555976527 350.40089054 l 1,205,-1
 511.1015625 325.688476562 l 1,202,-1
511.1015625 325.688476562 m 1,206,-1
 530.448955832 294.591741398 l 1,207,-1
 494.61328125 272.83984375 l 1,208,-1
 475.750040258 294.98598339 l 1,209,-1
 511.1015625 325.688476562 l 1,206,-1
418.055664062 375.051757812 m 1,210,-1
 378.067509622 373.449293384 l 1,211,-1
 379.8671875 413.686523438 l 1,212,-1
 427.455857509 408.374173283 l 1,213,-1
 418.055664062 375.051757812 l 1,210,-1
418.055664062 375.051757812 m 1,214,-1
 454.657436802 364.902913929 l 1,215,-1
 434.90625 328.858398438 l 1,216,-1
 405.918557687 332.02735586 l 1,217,-1
 418.055664062 375.051757812 l 1,214,-1
303.559570312 348.4609375 m 1,218,-1
 268.627509445 322.814381803 l 1,219,-1
 245.204101562 351.543945312 l 1,220,-1
 290.030910898 377.273486848 l 1,221,-1
 303.559570312 348.4609375 l 1,218,-1
303.559570312 348.4609375 m 1,222,-1
 342.550723732 365.211923447 l 1,223,-1
 349.146484375 328.959960938 l 1,224,-1
 320.489526466 312.408201042 l 1,225,-1
 303.559570312 348.4609375 l 1,222,-1
214.081054688 262.26171875 m 1,226,-1
 192.969231206 225.14858134 l 1,227,-1
 157.122070312 237.83203125 l 1,228,-1
 184.498827437 278.29121257 l 1,229,-1
 214.081054688 262.26171875 l 1,226,-1
214.081054688 262.26171875 m 1,230,-1
 241.065532612 296.105384074 l 1,231,-1
 268.661132812 273.547851562 l 1,232,-1
 248.497023215 243.613463582 l 1,233,-1
 214.081054688 262.26171875 l 1,230,-1
163.60546875 151.895507812 m 1,234,-1
 154.002209516 112.066487853 l 1,235,-1
 114.356445312 113.392578125 l 1,236,-1
 127.064946833 156.253363585 l 1,237,-1
 163.60546875 151.895507812 l 1,234,-1
163.60546875 151.895507812 m 1,238,-1
 177.53266006 191.175607567 l 1,239,-1
 214.229492188 182.780273438 l 1,240,-1
 203.692091362 147.114740857 l 1,241,-1
 163.60546875 151.895507812 l 1,238,-1
EndSplineSet
EndChar

StartChar: openeye
Encoding: 12 61452 12
Width: 700
LayerCount: 2
Fore
SplineSet
664.538085938 81.490234375 m 0,0,-1
 668.169921875 76 l 1,1,-1
 664.543945312 70.560546875 l 2,2,3
 612.01953125 -9.07421875 612.01953125 -9.07421875 528.638671875 -54.037109375 c 128,-1,4
 445.2578125 -99 445.2578125 -99 350.135742188 -99 c 128,-1,5
 254.998046875 -99 254.998046875 -99 171.598632812 -54.04296875 c 128,-1,6
 88.1982421875 -9.0859375 88.1982421875 -9.0859375 35.6572265625 70.529296875 c 2,7,-1
 32.03125 76 l 1,8,-1
 35.6572265625 81.490234375 l 2,9,10
 88.2490234375 161.095703125 88.2490234375 161.095703125 171.64453125 206.047851562 c 128,-1,11
 255.0390625 251 255.0390625 251 350.141601562 251 c 128,-1,12
 445.256835938 251 445.256835938 251 528.6328125 206.046875 c 128,-1,13
 612.008789062 161.09375 612.008789062 161.09375 664.538085938 81.490234375 c 0,0,-1
70.4150390625 76 m 1,14,15
 109.40234375 21.98828125 109.40234375 21.98828125 164.98828125 -13.37109375 c 128,-1,16
 220.573242188 -48.728515625 220.573242188 -48.728515625 285.243164062 -61.07421875 c 1,17,18
 262.094726562 -49.880859375 262.094726562 -49.880859375 243.86328125 -31.748046875 c 0,19,20
 222.688476562 -10.703125 222.688476562 -10.703125 210.865234375 17.134765625 c 128,-1,21
 199.041015625 44.9736328125 199.041015625 44.9736328125 199.041015625 75.98828125 c 0,22,23
 199.041015625 76.19140625 199.041015625 76.19140625 199.041015625 76.39453125 c 0,24,25
 199.041015625 107.006835938 199.041015625 107.006835938 210.615234375 134.922851562 c 128,-1,26
 222.189453125 162.838867188 222.189453125 162.838867188 243.86328125 184.499023438 c 0,27,28
 261.068359375 201.659179688 261.068359375 201.659179688 282.755859375 212.616210938 c 1,29,30
 218.82421875 199.920898438 218.82421875 199.920898438 163.923828125 164.708007812 c 128,-1,31
 109.0234375 129.49609375 109.0234375 129.49609375 70.4150390625 76 c 1,14,15
351.712890625 -18.3134765625 m 0,32,33
 351.765625 -18.236328125 351.765625 -18.236328125 351.836914062 -18.244140625 c 0,34,35
 390.926757812 -18.2509765625 390.926757812 -18.2509765625 418.481445312 9.390625 c 128,-1,36
 446.08984375 37.0185546875 446.08984375 37.0185546875 446.08984375 76.1337890625 c 0,37,38
 446.08984375 76.169921875 446.08984375 76.169921875 446.096679688 76.2451171875 c 0,39,40
 446.103515625 115.328125 446.103515625 115.328125 418.462890625 142.864257812 c 128,-1,41
 390.78515625 170.471679688 390.78515625 170.471679688 351.70703125 170.471679688 c 0,42,43
 351.44921875 170.486328125 351.44921875 170.486328125 351.3984375 170.486328125 c 0,44,45
 312.447265625 170.486328125 312.447265625 170.486328125 284.938476562 142.844726562 c 128,-1,46
 257.330078125 115.087890625 257.330078125 115.087890625 257.330078125 76.0888671875 c 128,-1,47
 257.330078125 37.0537109375 257.330078125 37.0537109375 284.998046875 9.3701171875 c 128,-1,48
 312.666015625 -18.3134765625 312.666015625 -18.3134765625 351.712890625 -18.3134765625 c 0,32,33
421.077148438 -59.9345703125 m 1,49,50
 483.928710938 -46.7548828125 483.928710938 -46.7548828125 537.83984375 -11.7451171875 c 128,-1,51
 591.750976562 23.2646484375 591.750976562 23.2646484375 629.8046875 76 c 1,52,53
 592.071289062 128.3359375 592.071289062 128.3359375 538.69140625 163.251953125 c 128,-1,54
 485.310546875 198.16796875 485.310546875 198.16796875 423.07421875 211.629882812 c 1,55,56
 460.122070312 192.091796875 460.122070312 192.091796875 482.48828125 155.890625 c 128,-1,57
 504.85546875 119.689453125 504.85546875 119.689453125 504.85546875 76.451171875 c 0,58,59
 504.87890625 76.1142578125 504.87890625 76.1142578125 504.87890625 76.048828125 c 0,60,61
 504.87890625 45.0439453125 504.87890625 45.0439453125 493.057617188 17.208984375 c 128,-1,62
 481.236328125 -10.6259765625 481.236328125 -10.6259765625 460.072265625 -31.69140625 c 0,63,64
 442.830078125 -48.927734375 442.830078125 -48.927734375 421.077148438 -59.9345703125 c 1,49,50
318.926757812 70.7841796875 m 128,-1,66
 305.966757812 70.7841796875 305.966757812 70.7841796875 296.866191406 79.8671875 c 128,-1,67
 287.765625 88.9501953125 287.765625 88.9501953125 287.705078125 101.986328125 c 128,-1,68
 287.765625 114.849609375 287.765625 114.849609375 296.863261719 124.012695312 c 128,-1,69
 305.960898438 133.17578125 305.960898438 133.17578125 318.920898438 133.17578125 c 260,70,71
 331.860898438 133.17578125 331.860898438 133.17578125 340.963164063 124.012695312 c 128,-1,72
 350.065429688 114.849609375 350.065429688 114.849609375 350.154296875 101.966796875 c 128,-1,73
 350.065429688 88.9501953125 350.065429688 88.9501953125 340.97609375 79.8671875 c 128,-1,74
 331.886757812 70.7841796875 331.886757812 70.7841796875 318.926757812 70.7841796875 c 128,-1,66
EndSplineSet
EndChar

StartChar: closedeye
Encoding: 13 61453 13
Width: 700
Flags: W
LayerCount: 2
Back
SplineSet
697.8046875 116 m 5,0,-1
 697.8046875 79 l 5,1,-1
 629.8046875 79 l 5,2,-1
 629.8046875 116 l 5,3,-1
 697.8046875 116 l 5,0,-1
70.4150390625 116 m 5,4,-1
 70.4150390625 79 l 5,5,-1
 2.4150390625 79 l 5,6,-1
 2.4150390625 116 l 5,7,-1
 70.4150390625 116 l 5,4,-1
158.459960938 13.123046875 m 5,8,-1
 184.623046875 -13.0400390625 l 5,9,-1
 136.540039062 -61.123046875 l 5,10,-1
 110.376953125 -34.9599609375 l 5,11,-1
 158.459960938 13.123046875 l 5,8,-1
516.376953125 -13.0400390625 m 5,12,-1
 542.540039062 13.123046875 l 5,13,-1
 590.623046875 -34.9599609375 l 5,14,-1
 564.459960938 -61.123046875 l 5,15,-1
 516.376953125 -13.0400390625 l 5,12,-1
332 -50 m 5,16,-1
 369 -50 l 5,17,-1
 369 -118 l 5,18,-1
 332 -118 l 5,19,-1
 332 -50 l 5,16,-1
668.169921875 116 m 5,20,-1
 664.543945312 110.560546875 l 6,21,22
 610.75390625 29.8681640625 610.75390625 29.8681640625 527.9453125 -14.4638671875 c 4,23,24
 445 -59 445 -59 350 -59 c 132,-1,25
 255 -59 255 -59 171.5078125 -13.7333984375 c 4,26,27
 88 32 88 32 35.6572265625 110.529296875 c 6,28,-1
 32.03125 116 l 5,29,-1
 70.4150390625 116 l 5,30,31
 109 62 109 62 166.5 25.5 c 132,-1,32
 224 -11 224 -11 285.243164062 -21.07421875 c 4,33,34
 315 -26 315 -26 351 -26 c 4,35,36
 390 -26 390 -26 421.077148438 -19.9345703125 c 4,37,38
 488 -5 488 -5 537.83984375 28.2548828125 c 4,39,40
 592 63 592 63 629.8046875 116 c 5,41,-1
 668.169921875 116 l 5,20,-1
EndSplineSet
Fore
SplineSet
697.8046875 116 m 1,0,-1
 697.8046875 79 l 1,1,-1
 641.26667963 79 l 1,2,3
 603.63844315 32.8700656569 603.63844315 32.8700656569 554.497529708 1.16555622952 c 1,4,-1
 590.623046875 -34.9599609375 l 1,5,-1
 564.459960938 -61.123046875 l 1,6,-1
 521.29173163 -17.9548175671 l 1,7,8
 449.597112169 -54.697019693 449.597112169 -54.697019693 369 -58.5488961572 c 1,9,-1
 369 -118 l 1,10,-1
 332 -118 l 1,11,-1
 332 -58.5889988037 l 1,12,13
 251.602931539 -54.8960854562 251.602931539 -54.8960854562 179.641347645 -18.0217382925 c 1,14,-1
 136.540039062 -61.123046875 l 1,15,-1
 110.376953125 -34.9599609375 l 1,16,-1
 146.490458044 1.15354398176 l 1,17,18
 96.4508018236 33.4476680361 96.4508018236 33.4476680361 59.0100554388 79 c 1,19,-1
 2.4150390625 79 l 1,20,-1
 2.4150390625 116 l 1,21,-1
 70.4150390625 116 l 1,22,23
 109 62 109 62 166.5 25.5 c 128,-1,24
 224 -11 224 -11 285.243164062 -21.07421875 c 0,25,26
 315 -26 315 -26 351 -26 c 0,27,28
 390 -26 390 -26 421.077148438 -19.9345703125 c 0,29,30
 488 -5 488 -5 537.83984375 28.2548828125 c 0,31,32
 592 63 592 63 629.8046875 116 c 1,33,-1
 697.8046875 116 l 1,0,-1
EndSplineSet
EndChar

StartChar: minus
Encoding: 14 61454 14
Width: 576
VWidth: 426
Flags: W
LayerCount: 2
Fore
SplineSet
474.25 79.75 m 1,0,-1
 474.25 132.25 l 1,1,-1
 101.75 132.25 l 1,2,-1
 101.75 79.75 l 1,3,-1
 474.25 79.75 l 1,0,-1
EndSplineSet
EndChar

StartChar: plus
Encoding: 15 61455 15
Width: 576
VWidth: 426
Flags: W
LayerCount: 2
Back
SplineSet
435 192 m 6,0,-1
 435 -66 l 6,1,2
 435 -78 435 -78 426 -87 c 132,-1,3
 417 -96 417 -96 405 -96 c 6,4,-1
 359 -96 l 6,5,6
 347 -96 347 -96 338 -87 c 132,-1,7
 329 -78 329 -78 329 -66 c 6,8,-1
 329 192 l 6,9,10
 329 204 329 204 338 213 c 132,-1,11
 347 222 347 222 359 222 c 6,12,-1
 405 222 l 6,13,14
 417 222 417 222 426 213 c 132,-1,15
 435 204 435 204 435 192 c 6,0,-1
253 116 m 6,16,-1
 511 116 l 6,17,18
 523 116 523 116 532 107 c 132,-1,19
 541 98 541 98 541 86 c 6,20,-1
 541 40 l 6,21,22
 541 28 541 28 532 19 c 132,-1,23
 523 10 523 10 511 10 c 6,24,-1
 253 10 l 6,25,26
 241 10 241 10 232 19 c 132,-1,27
 223 28 223 28 223 40 c 6,28,-1
 223 86 l 6,29,30
 223 98 223 98 232 107 c 132,-1,31
 241 116 241 116 253 116 c 6,16,-1
EndSplineSet
Fore
SplineSet
474.25 79.75 m 1,0,-1
 474.25 132.25 l 1,1,-1
 314.25 132.25 l 1,2,-1
 314.25 292.25 l 1,3,-1
 261.75 292.25 l 1,4,-1
 261.75 132.25 l 1,5,-1
 101.75 132.25 l 1,6,-1
 101.75 79.75 l 1,7,-1
 261.75 79.75 l 1,8,-1
 261.75 -80.25 l 1,9,-1
 314.25 -80.25 l 1,10,-1
 314.25 79.75 l 1,11,-1
 474.25 79.75 l 1,0,-1
EndSplineSet
EndChar

StartChar: left
Encoding: 16 61456 16
Width: 576
VWidth: 426
Flags: W
LayerCount: 2
Back
SplineSet
108 72 m 29,0,-1
 216 180 l 5,1,-1
 216 -36 l 5,2,-1
 108 72 l 29,0,-1
184 88 m 5,3,-1
 618 88 l 5,4,-1
 618 55 l 5,5,-1
 184 55 l 5,6,-1
 184 88 l 5,3,-1
EndSplineSet
Fore
SplineSet
501.75 132.25 m 1,0,-1
 501.75 79.75 l 1,1,-1
 176.75 79.75 l 1,2,-1
 325.5 -70.25 l 1,3,-1
 288 -107.75 l 1,4,-1
 74.25 106 l 1,5,-1
 288 319.75 l 1,6,-1
 325.5 282.25 l 1,7,-1
 176.75 132.25 l 1,8,-1
 501.75 132.25 l 1,0,-1
EndSplineSet
EndChar

StartChar: down
Encoding: 17 61457 17
Width: 576
VWidth: 426
Flags: W
LayerCount: 2
Back
SplineSet
363 -183 m 29,0,-1
 471 -75 l 5,1,-1
 255 -75 l 5,2,-1
 363 -183 l 29,0,-1
379 -107 m 5,3,-1
 379 327 l 5,4,-1
 346 327 l 5,5,-1
 346 -107 l 5,6,-1
 379 -107 l 5,3,-1
EndSplineSet
Fore
SplineSet
501.75 106 m 1,0,-1
 288 -107.75 l 1,1,-1
 74.25 106 l 1,2,-1
 113 143.5 l 1,3,-1
 261.75 -5.25 l 1,4,-1
 261.75 319.75 l 1,5,-1
 314.25 319.75 l 1,6,-1
 314.25 -5.25 l 1,7,-1
 464.25 143.5 l 1,8,-1
 501.75 106 l 1,0,-1
EndSplineSet
EndChar

StartChar: up
Encoding: 18 61458 18
Width: 576
VWidth: 426
Flags: W
LayerCount: 2
Back
SplineSet
363 327 m 29,0,-1
 471 219 l 5,1,-1
 255 219 l 5,2,-1
 363 327 l 29,0,-1
379 251 m 5,3,-1
 379 -183 l 5,4,-1
 346 -183 l 5,5,-1
 346 251 l 5,6,-1
 379 251 l 5,3,-1
EndSplineSet
Fore
SplineSet
74.25 106 m 1,0,-1
 288 319.75 l 1,1,-1
 501.75 106 l 1,2,-1
 463 68.5 l 1,3,-1
 314.25 217.25 l 1,4,-1
 314.25 -107.75 l 1,5,-1
 261.75 -107.75 l 1,6,-1
 261.75 217.25 l 1,7,-1
 111.75 68.5 l 1,8,-1
 74.25 106 l 1,0,-1
EndSplineSet
EndChar

StartChar: right
Encoding: 19 61460 19
Width: 576
VWidth: 426
Flags: W
LayerCount: 2
Back
SplineSet
618 72 m 29,0,-1
 510 180 l 5,1,-1
 510 -36 l 5,2,-1
 618 72 l 29,0,-1
542 88 m 5,3,-1
 108 88 l 5,4,-1
 108 55 l 5,5,-1
 542 55 l 5,6,-1
 542 88 l 5,3,-1
EndSplineSet
Fore
SplineSet
288 319.75 m 1,0,-1
 501.75 106 l 1,1,-1
 288 -107.75 l 1,2,-1
 250.5 -70.25 l 1,3,-1
 399.25 79.75 l 1,4,-1
 74.25 79.75 l 1,5,-1
 74.25 132.25 l 1,6,-1
 399.25 132.25 l 1,7,-1
 250.5 282.25 l 1,8,-1
 288 319.75 l 1,0,-1
EndSplineSet
EndChar

StartChar: rename
Encoding: 20 61461 20
Width: 789
VWidth: 2408
Flags: WO
LayerCount: 2
Fore
SplineSet
245.576171875 -5.1552734375 m 5,0,-1
 146.333007812 -5.1552734375 l 5,1,-1
 130.5859375 -54.9599609375 l 5,2,-1
 66.865234375 -54.9599609375 l 5,3,-1
 158.051757812 218.416015625 l 5,4,-1
 233.673828125 218.416015625 l 5,5,-1
 324.861328125 -54.9599609375 l 5,6,-1
 260.95703125 -54.9599609375 l 5,7,-1
 245.576171875 -5.1552734375 l 5,0,-1
162.080078125 45.564453125 m 5,8,-1
 229.462890625 45.564453125 l 5,9,-1
 195.955078125 154.329101562 l 5,10,-1
 162.080078125 45.564453125 l 5,8,-1
441.743164062 -12.6630859375 m 132,-1,12
 460.786132812 -12.6630859375 460.786132812 -12.6630859375 470.765625 2.7177734375 c 132,-1,13
 480.744140625 18.0986328125 480.744140625 18.0986328125 480.744140625 47.3955078125 c 260,14,15
 480.744140625 76.6923828125 480.744140625 76.6923828125 470.765625 92.0732421875 c 132,-1,16
 460.786132812 107.454101562 460.786132812 107.454101562 441.743164062 107.454101562 c 132,-1,17
 422.8828125 107.454101562 422.8828125 107.454101562 412.720703125 91.982421875 c 132,-1,18
 402.55859375 76.509765625 402.55859375 76.509765625 402.55859375 47.3955078125 c 260,19,20
 402.55859375 18.2822265625 402.55859375 18.2822265625 412.720703125 2.8095703125 c 132,-1,11
 422.8828125 -12.6630859375 422.8828125 -12.6630859375 441.743164062 -12.6630859375 c 132,-1,12
402.55859375 120.088867188 m 5,21,22
 414.826171875 138.033203125 414.826171875 138.033203125 429.658203125 146.546875 c 132,-1,23
 444.490234375 155.061523438 444.490234375 155.061523438 463.715820312 155.061523438 c 4,24,25
 497.7734375 155.061523438 497.7734375 155.061523438 519.74609375 124.94140625 c 132,-1,26
 541.71875 94.8203125 541.71875 94.8203125 541.71875 47.3955078125 c 260,27,28
 541.71875 -0.0283203125 541.71875 -0.0283203125 519.74609375 -30.1494140625 c 132,-1,29
 497.7734375 -60.2705078125 497.7734375 -60.2705078125 463.715820312 -60.2705078125 c 4,30,31
 444.490234375 -60.2705078125 444.490234375 -60.2705078125 429.658203125 -51.755859375 c 132,-1,32
 414.826171875 -43.2412109375 414.826171875 -43.2412109375 402.55859375 -25.296875 c 5,33,-1
 402.55859375 -54.9599609375 l 5,34,-1
 343.598632812 -54.9599609375 l 5,35,-1
 343.598632812 229.952148438 l 5,36,-1
 402.55859375 229.952148438 l 5,37,-1
 402.55859375 120.088867188 l 5,21,22
721.396484375 143.708984375 m 5,38,-1
 721.396484375 90.2421875 l 5,39,40
 708.966796875 98.7900390625 708.966796875 98.7900390625 697.318359375 103.791992188 c 4,41,42
 685.216796875 108.790039062 685.216796875 108.790039062 672.140625 108.186523438 c 4,43,44
 647.716796875 108.790039062 647.716796875 108.790039062 633.689453125 92.1650390625 c 4,45,46
 620.216796875 76.2900390625 620.216796875 76.2900390625 619.956054688 47.3955078125 c 260,47,48
 620.216796875 18.7900390625 620.216796875 18.7900390625 633.689453125 2.626953125 c 4,49,50
 647.716796875 -13.7099609375 647.716796875 -13.7099609375 672.140625 -13.3955078125 c 4,51,52
 686.466796875 -13.7099609375 686.466796875 -13.7099609375 698.5078125 -8.8173828125 c 4,53,54
 711.466796875 -3.7099609375 711.466796875 -3.7099609375 721.396484375 4.732421875 c 5,55,-1
 721.396484375 -48.91796875 l 5,56,57
 707.716796875 -54.9599609375 707.716796875 -54.9599609375 693.380859375 -57.431640625 c 132,-1,58
 678.966796875 -59.9599609375 678.966796875 -59.9599609375 664.81640625 -60.2705078125 c 4,59,60
 615.216796875 -59.9599609375 615.216796875 -59.9599609375 586.630859375 -31.796875 c 4,61,62
 558.966796875 -3.7099609375 558.966796875 -3.7099609375 558.432617188 47.3955078125 c 260,63,64
 558.966796875 97.5400390625 558.966796875 97.5400390625 586.630859375 126.588867188 c 4,65,66
 615.216796875 155.040039062 615.216796875 155.040039062 664.81640625 155.061523438 c 4,67,68
 678.966796875 155.040039062 678.966796875 155.040039062 693.380859375 152.223632812 c 4,69,70
 707.716796875 148.790039062 707.716796875 148.790039062 721.396484375 143.708984375 c 5,38,-1
EndSplineSet
EndChar

StartChar: union
Encoding: 21 61462 21
Width: 700
VWidth: 900
Flags: W
LayerCount: 2
Back
SplineSet
248.241210938 229.5625 m 0,0,1
 299.53515625 229.5625 299.53515625 229.5625 340.006835938 199.78515625 c 2,2,-1
 349.864257812 192.533203125 l 1,3,-1
 359.734375 199.767578125 l 2,4,5
 383.330078125 217.0625 383.330078125 217.0625 411.91015625 224.568359375 c 0,6,7
 430.33203125 229.751953125 430.33203125 229.751953125 450.010742188 229.751953125 c 0,8,9
 497.041992188 229.751953125 497.041992188 229.751953125 537.178710938 203.006835938 c 0,10,11
 569.2890625 181.610351562 569.2890625 181.610351562 586.307617188 148.920898438 c 1,12,13
 604.842773438 116.12890625 604.842773438 116.12890625 604.842773438 76.6181640625 c 0,14,15
 604.842773438 42.634765625 604.842773438 42.634765625 590.876953125 11.306640625 c 128,-1,16
 576.91015625 -20.0205078125 576.91015625 -20.0205078125 551.662109375 -41.06640625 c 1,17,18
 531.474609375 -59.2265625 531.474609375 -59.2265625 505.1328125 -68.841796875 c 128,-1,19
 478.79296875 -78.45703125 478.79296875 -78.45703125 450.642578125 -78.45703125 c 0,20,21
 425.87890625 -78.45703125 425.87890625 -78.45703125 402.4375 -70.9609375 c 128,-1,22
 378.99609375 -63.46484375 378.99609375 -63.46484375 359.95703125 -49.017578125 c 2,23,-1
 349.9609375 -41.431640625 l 1,24,-1
 339.908203125 -48.9423828125 l 2,25,26
 320.590820312 -63.375 320.590820312 -63.375 296.888671875 -70.9853515625 c 128,-1,27
 273.1875 -78.595703125 273.1875 -78.595703125 248.440429688 -78.595703125 c 0,28,29
 212.84375 -78.595703125 212.84375 -78.595703125 182.084960938 -63.4208984375 c 0,30,31
 147.21484375 -47.328125 147.21484375 -47.328125 123.884765625 -14.41796875 c 0,32,33
 109.837890625 5.396484375 109.837890625 5.396484375 102.220703125 28.73046875 c 128,-1,34
 94.6015625 52.06640625 94.6015625 52.06640625 94.6015625 75.826171875 c 0,35,36
 94.6015625 91.345703125 94.6015625 91.345703125 97.9736328125 106.458007812 c 0,37,38
 106.499023438 152.11328125 106.499023438 152.11328125 141.986328125 186.15625 c 0,39,40
 163.259765625 206.5625 163.259765625 206.5625 190.413085938 218.072265625 c 128,-1,41
 217.56640625 229.58203125 217.56640625 229.58203125 245.96484375 229.58203125 c 0,42,43
 246.34375 229.58203125 246.34375 229.58203125 247.102539062 229.572265625 c 128,-1,44
 247.861328125 229.5625 247.861328125 229.5625 248.241210938 229.5625 c 0,0,1
245.96484375 262.958984375 m 0,45,46
 210.646484375 262.958984375 210.646484375 262.958984375 177.668945312 248.9765625 c 128,-1,47
 144.69140625 234.994140625 144.69140625 234.994140625 118.888671875 210.241210938 c 0,48,49
 98.294921875 190.486328125 98.294921875 190.486328125 84.392578125 165.6796875 c 128,-1,50
 70.490234375 140.873046875 70.490234375 140.873046875 65.2705078125 113.182617188 c 0,51,52
 61.224609375 94.900390625 61.224609375 94.900390625 61.224609375 75.826171875 c 0,53,54
 61.224609375 46.62109375 61.224609375 46.62109375 70.412109375 18.482421875 c 128,-1,55
 79.599609375 -9.65625 79.599609375 -9.65625 96.63671875 -33.689453125 c 0,56,57
 125.079101562 -73.810546875 125.079101562 -73.810546875 167.736328125 -93.5634765625 c 0,58,59
 205.16796875 -111.973632812 205.16796875 -111.973632812 248.440429688 -111.973632812 c 0,60,61
 304.29296875 -111.973632812 304.29296875 -111.973632812 349.818359375 -82.6650390625 c 1,62,63
 394.60546875 -111.833984375 394.60546875 -111.833984375 450.642578125 -111.833984375 c 0,64,65
 484.62109375 -111.833984375 484.62109375 -111.833984375 516.5546875 -100.278320312 c 128,-1,66
 548.48828125 -88.72265625 548.48828125 -88.72265625 573.499023438 -66.30859375 c 1,67,68
 604.6875 -40.212890625 604.6875 -40.212890625 621.453125 -2.31640625 c 128,-1,69
 638.219726562 35.580078125 638.219726562 35.580078125 638.219726562 76.6181640625 c 0,70,71
 638.219726562 124.751953125 638.219726562 124.751953125 615.66796875 164.809570312 c 1,72,73
 594.806640625 204.711914062 594.806640625 204.711914062 555.654296875 230.802734375 c 0,74,75
 507.139648438 263.129882812 507.139648438 263.129882812 450.010742188 263.129882812 c 0,76,77
 425.778320312 263.129882812 425.778320312 263.129882812 403.00390625 256.7421875 c 0,78,79
 374.665039062 249.28125 374.665039062 249.28125 349.895507812 233.458984375 c 1,80,81
 303.611328125 263.07421875 303.611328125 263.07421875 248.818359375 262.935546875 c 0,82,83
 248.341796875 262.935546875 248.341796875 262.935546875 247.390625 262.947265625 c 128,-1,84
 246.440429688 262.958984375 246.440429688 262.958984375 245.96484375 262.958984375 c 0,45,46
631.799804688 100.243164062 m 4,85,86
 631.799804688 102.030273438 631.799804688 102.030273438 630.53515625 103.295898438 c 132,-1,87
 629.26953125 104.561523438 629.26953125 104.561523438 627.482421875 104.561523438 c 132,-1,88
 625.701171875 104.561523438 625.701171875 104.561523438 624.436523438 103.303710938 c 132,-1,89
 623.172851562 102.045898438 623.172851562 102.045898438 623.1640625 100.265625 c 4,90,91
 622.326171875 93.712890625 622.326171875 93.712890625 622.0390625 84.6015625 c 5,92,93
 620.797851562 115.974609375 620.797851562 115.974609375 619.979492188 127.919921875 c 4,94,95
 619.392578125 136.490234375 619.392578125 136.490234375 618.740234375 141.278320312 c 132,-1,96
 618.091796875 146.044921875 618.091796875 146.044921875 617.189453125 147.967773438 c 4,97,98
 615.817382812 150.892578125 615.817382812 150.892578125 612.875 150.892578125 c 4,99,100
 610.607421875 150.892578125 610.607421875 150.892578125 609.193359375 149.018554688 c 4,101,102
 608.435546875 148.012695312 608.435546875 148.012695312 608.0078125 146.26953125 c 132,-1,103
 607.547851562 144.39453125 607.547851562 144.39453125 607.149414062 140.586914062 c 4,104,105
 606.3984375 133.41796875 606.3984375 133.41796875 605.685546875 117.724609375 c 4,106,107
 605.060546875 103.936523438 605.060546875 103.936523438 603.958007812 69.2041015625 c 5,108,109
 603.916992188 70.859375 603.916992188 70.859375 603.53125 74.19140625 c 132,-1,110
 603.14453125 77.5244140625 603.14453125 77.5244140625 603.103515625 79.197265625 c 4,111,112
 601.827148438 131.982421875 601.827148438 131.982421875 600.989257812 150.913085938 c 4,113,114
 600.392578125 164.40234375 600.392578125 164.40234375 599.725585938 171.141601562 c 4,115,116
 599.215820312 176.296875 599.215820312 176.296875 598.55078125 178.258789062 c 4,117,118
 598.201171875 179.29296875 598.201171875 179.29296875 597.655273438 180.020507812 c 4,119,120
 596.259765625 181.881835938 596.259765625 181.881835938 594.004882812 181.881835938 c 4,121,122
 592.547851562 181.881835938 592.547851562 181.881835938 591.364257812 181.01953125 c 132,-1,123
 590.3359375 180.26953125 590.3359375 180.26953125 589.766601562 179.006835938 c 132,-1,124
 589.231445312 177.818359375 589.231445312 177.818359375 588.875976562 175.337890625 c 4,125,126
 588.37109375 171.81640625 588.37109375 171.81640625 587.924804688 164.27734375 c 4,127,128
 587.359375 154.743164062 587.359375 154.743164062 586.833007812 137.77734375 c 4,129,130
 586.24609375 118.845703125 586.24609375 118.845703125 585.263671875 71.435546875 c 5,131,132
 585.2421875 72.521484375 585.2421875 72.521484375 584.970703125 74.6953125 c 132,-1,133
 584.69921875 76.869140625 584.69921875 76.869140625 584.677734375 77.95703125 c 4,134,135
 583.39453125 143.637695312 583.39453125 143.637695312 582.552734375 166.841796875 c 4,136,137
 581.955078125 183.328125 581.955078125 183.328125 581.287109375 191.28125 c 4,138,139
 580.951171875 195.275390625 580.951171875 195.275390625 580.576171875 197.372070312 c 4,140,141
 580.36328125 198.556640625 580.36328125 198.556640625 580.100585938 199.333984375 c 4,142,143
 579.626953125 200.73828125 579.626953125 200.73828125 578.703125 201.609375 c 4,144,145
 577.396484375 202.837890625 577.396484375 202.837890625 575.626953125 202.837890625 c 4,146,147
 572.771484375 202.837890625 572.771484375 202.837890625 571.478515625 200.115234375 c 4,148,149
 570.970703125 199.044921875 570.970703125 199.044921875 570.655273438 196.94140625 c 4,150,151
 568.8671875 185.018554688 568.8671875 185.018554688 567.315429688 73.31640625 c 5,152,153
 565.967773438 151.436523438 565.967773438 151.436523438 565.069335938 179.43359375 c 4,154,155
 564.470703125 198.090820312 564.470703125 198.090820312 563.801757812 206.931640625 c 4,156,157
 563.466796875 211.3515625 563.466796875 211.3515625 563.094726562 213.592773438 c 4,158,159
 562.515625 217.068359375 562.515625 217.068359375 560.736328125 218.323242188 c 4,160,161
 559.580078125 219.137695312 559.580078125 219.137695312 558.172851562 219.137695312 c 132,-1,162
 556.670898438 219.137695312 556.670898438 219.137695312 555.470703125 218.220703125 c 4,163,164
 554.487304688 217.470703125 554.487304688 217.470703125 553.95703125 216.244140625 c 132,-1,165
 553.484375 215.150390625 553.484375 215.150390625 553.168945312 212.91015625 c 4,166,167
 551.284179688 199.494140625 551.284179688 199.494140625 548.979492188 73.5625 c 4,168,169
 548.698242188 58.162109375 548.698242188 58.162109375 548.50390625 47.8916015625 c 5,170,171
 546.57421875 164.8203125 546.57421875 164.8203125 545.905273438 187.506835938 c 4,172,173
 545.306640625 207.803710938 545.306640625 207.803710938 544.637695312 217.32421875 c 4,174,175
 544.3046875 222.068359375 544.3046875 222.068359375 543.93359375 224.416992188 c 132,-1,176
 543.57421875 226.693359375 543.57421875 226.693359375 542.89453125 227.809570312 c 132,-1,177
 542.21875 228.919921875 542.21875 228.919921875 541.109375 229.510742188 c 132,-1,178
 540.134765625 230.029296875 540.134765625 230.029296875 539.029296875 230.029296875 c 4,179,180
 537.443359375 230.029296875 537.443359375 230.029296875 536.208984375 229.017578125 c 4,181,182
 535.265625 228.244140625 535.265625 228.244140625 534.76953125 227.013671875 c 132,-1,183
 534.322265625 225.90234375 534.322265625 225.90234375 534.017578125 223.564453125 c 4,184,185
 532.133789062 209.141601562 532.133789062 209.141601562 529.875976562 73.55078125 c 4,186,187
 529.611328125 57.6318359375 529.611328125 57.6318359375 529.427734375 46.982421875 c 5,188,189
 527.55078125 168.578125 527.55078125 168.578125 526.85546875 193.5546875 c 4,190,191
 526.255859375 215.068359375 526.255859375 215.068359375 525.586914062 225.09375 c 4,192,193
 525.25390625 230.079101562 525.25390625 230.079101562 524.884765625 232.504882812 c 132,-1,194
 524.520507812 234.890625 524.520507812 234.890625 523.795898438 236.030273438 c 132,-1,195
 522.977539062 237.31640625 522.977539062 237.31640625 521.606445312 237.853515625 c 4,196,197
 519.125 238.829101562 519.125 238.829101562 517.090820312 237.078125 c 4,198,199
 516.177734375 236.291015625 516.177734375 236.291015625 515.705078125 235.056640625 c 132,-1,200
 515.274414062 233.931640625 515.274414062 233.931640625 514.977539062 231.5234375 c 4,201,202
 513.109375 216.37890625 513.109375 216.37890625 511.001953125 73.8447265625 c 5,203,204
 510.997070312 74.162109375 510.997070312 74.162109375 510.642578125 74.796875 c 132,-1,205
 510.288085938 75.431640625 510.288085938 75.431640625 510.283203125 75.7490234375 c 4,206,207
 508.9921875 166.623046875 508.9921875 166.623046875 508.1484375 198.165039062 c 4,208,209
 507.548828125 220.552734375 507.548828125 220.552734375 506.879882812 230.90625 c 4,210,211
 506.546875 236.0546875 506.546875 236.0546875 506.177734375 238.529296875 c 132,-1,212
 505.80859375 241.005859375 505.80859375 241.005859375 505.037109375 242.163085938 c 4,213,214
 504.072265625 243.608398438 504.072265625 243.608398438 502.447265625 244.046875 c 4,215,216
 500.140625 244.66796875 500.140625 244.66796875 498.34375 243.0703125 c 4,217,218
 497.44921875 242.275390625 497.44921875 242.275390625 496.993164062 241.04296875 c 132,-1,219
 496.571289062 239.90625 496.571289062 239.90625 496.276367188 237.443359375 c 4,220,221
 494.397460938 221.760742188 494.397460938 221.760742188 492.224609375 74.1240234375 c 5,222,223
 492.22265625 74.3125 492.22265625 74.3125 491.831054688 74.689453125 c 132,-1,224
 491.440429688 75.06640625 491.440429688 75.06640625 491.4375 75.2548828125 c 4,225,226
 490.404296875 149.927734375 490.404296875 149.927734375 489.786132812 179.93359375 c 4,227,228
 489.083984375 213.939453125 489.083984375 213.939453125 488.310546875 229.48046875 c 4,229,230
 487.918945312 237.361328125 487.918945312 237.361328125 487.485351562 241.0546875 c 132,-1,231
 487.053710938 244.7265625 487.053710938 244.7265625 486.045898438 246.075195312 c 4,232,233
 484.684570312 247.897460938 484.684570312 247.897460938 482.45703125 247.897460938 c 4,234,235
 480.75 247.897460938 480.75 247.897460938 479.473632812 246.740234375 c 4,236,237
 478.58984375 245.939453125 478.58984375 245.939453125 478.142578125 244.701171875 c 132,-1,238
 477.73046875 243.55859375 477.73046875 243.55859375 477.447265625 241.068359375 c 4,239,240
 475.634765625 225.138671875 475.634765625 225.138671875 474.09765625 75.125 c 5,241,242
 472.018554688 227.3203125 472.018554688 227.3203125 470.080078125 244.046875 c 4,243,244
 469.790039062 246.5546875 469.790039062 246.5546875 469.379882812 247.703125 c 132,-1,245
 468.953125 248.904296875 468.953125 248.904296875 468.12109375 249.6953125 c 4,246,247
 466.826171875 250.930664062 466.826171875 250.930664062 465.053710938 250.930664062 c 132,-1,248
 463.338867188 250.930664062 463.338867188 250.930664062 462.059570312 249.764648438 c 4,249,250
 461.18359375 248.96484375 461.18359375 248.96484375 460.737304688 247.731445312 c 132,-1,251
 460.323242188 246.583984375 460.323242188 246.583984375 460.03125 244.073242188 c 4,252,253
 458.153320312 227.935546875 458.153320312 227.935546875 456.055664062 76.021484375 c 4,254,255
 456.0546875 75.9990234375 456.0546875 75.9990234375 455.70703125 75.955078125 c 132,-1,256
 455.357421875 75.912109375 455.357421875 75.912109375 455.357421875 75.8896484375 c 5,257,258
 453.2890625 227.633789062 453.2890625 227.633789062 451.415039062 243.752929688 c 4,259,260
 451.123046875 246.26171875 451.123046875 246.26171875 450.708984375 247.408203125 c 132,-1,261
 450.263671875 248.642578125 450.263671875 248.642578125 449.385742188 249.44140625 c 4,262,263
 447.970703125 250.731445312 447.970703125 250.731445312 446.075195312 250.595703125 c 132,-1,264
 444.10546875 250.455078125 444.10546875 250.455078125 442.865234375 248.86328125 c 4,265,266
 441.802734375 247.501953125 441.802734375 247.501953125 441.359375 243.711914062 c 4,267,268
 439.462890625 227.505859375 439.462890625 227.505859375 437.180664062 76.091796875 c 4,269,270
 436.892578125 57.017578125 436.892578125 57.017578125 436.69921875 44.6357421875 c 5,271,272
 436.52734375 56.6630859375 436.52734375 56.6630859375 436.2734375 75.0712890625 c 4,273,274
 434.208007812 224.953125 434.208007812 224.953125 432.338867188 240.873046875 c 4,275,276
 432.046875 243.360351562 432.046875 243.360351562 431.630859375 244.501953125 c 132,-1,277
 431.1796875 245.736328125 431.1796875 245.736328125 430.296875 246.533203125 c 4,278,279
 428.647460938 248.022460938 428.647460938 248.022460938 426.48046875 247.604492188 c 4,280,281
 423.171875 246.966796875 423.171875 246.966796875 422.4453125 242.014648438 c 4,282,283
 422.079101562 239.517578125 422.079101562 239.517578125 421.75390625 234.296875 c 4,284,285
 421.09765625 223.7890625 421.09765625 223.7890625 420.526367188 200.995117188 c 4,286,287
 419.72265625 168.881835938 419.72265625 168.881835938 418.548828125 76.23046875 c 5,288,289
 416.56640625 216.740234375 416.56640625 216.740234375 414.166992188 236.70703125 c 4,290,291
 413.873046875 239.155273438 413.873046875 239.155273438 413.44921875 240.2890625 c 132,-1,292
 412.98828125 241.5234375 412.98828125 241.5234375 412.08984375 242.315429688 c 4,293,294
 410.2265625 243.95703125 410.2265625 243.95703125 407.869140625 243.2421875 c 4,295,296
 406.315429688 242.771484375 406.315429688 242.771484375 405.392578125 241.372070312 c 4,297,298
 404.633789062 240.220703125 404.633789062 240.220703125 404.263671875 237.768554688 c 132,-1,299
 403.892578125 235.305664062 403.892578125 235.305664062 403.553710938 230.196289062 c 4,300,301
 402.873046875 219.91796875 402.873046875 219.91796875 402.250976562 197.749023438 c 4,302,303
 401.372070312 166.48046875 401.372070312 166.48046875 399.984375 76.546875 c 4,304,305
 399.978515625 76.158203125 399.978515625 76.158203125 399.563476562 75.37890625 c 132,-1,306
 399.1484375 74.6005859375 399.1484375 74.6005859375 399.142578125 74.2109375 c 5,307,308
 397.081054688 214.712890625 397.081054688 214.712890625 395.21875 229.643554688 c 4,309,310
 394.921875 232.03125 394.921875 232.03125 394.487304688 233.15234375 c 132,-1,311
 394.0078125 234.38671875 394.0078125 234.38671875 393.086914062 235.169921875 c 4,312,313
 391.8359375 236.232421875 391.8359375 236.232421875 390.208007812 236.232421875 c 4,314,315
 389.284179688 236.232421875 389.284179688 236.232421875 388.443359375 235.865234375 c 4,316,317
 387.15625 235.305664062 387.15625 235.305664062 386.384765625 234.076171875 c 132,-1,318
 385.674804688 232.9453125 385.674804688 232.9453125 385.309570312 230.592773438 c 132,-1,319
 384.935546875 228.185546875 384.935546875 228.185546875 384.59375 223.264648438 c 4,320,321
 383.908203125 213.384765625 383.908203125 213.384765625 383.272460938 192.1796875 c 4,322,323
 382.5546875 168.255859375 382.5546875 168.255859375 380.41796875 46.21484375 c 5,324,325
 380.248046875 56.6640625 380.248046875 56.6640625 379.9921875 73.1640625 c 4,326,327
 377.934570312 205.69140625 377.934570312 205.69140625 376.076171875 219.791992188 c 4,328,329
 375.771484375 222.099609375 375.771484375 222.099609375 375.318359375 223.203125 c 132,-1,330
 374.813476562 224.435546875 374.813476562 224.435546875 373.857421875 225.204101562 c 4,331,332
 372.6328125 226.189453125 372.6328125 226.189453125 371.0703125 226.189453125 c 4,333,334
 369.861328125 226.189453125 369.861328125 226.189453125 368.818359375 225.57421875 c 4,335,336
 366.76171875 224.361328125 366.76171875 224.361328125 366.161132812 220.588867188 c 4,337,338
 365.791015625 218.26953125 365.791015625 218.26953125 365.461914062 213.619140625 c 4,339,340
 364.802734375 204.291015625 364.802734375 204.291015625 364.223632812 184.485351562 c 4,341,342
 363.408203125 156.559570312 363.408203125 156.559570312 362.203125 76.7431640625 c 5,343,344
 361.576171875 114.294921875 361.576171875 114.294921875 359.530273438 179.771484375 c 4,345,346
 358.9296875 198.994140625 358.9296875 198.994140625 358.256835938 208.067382812 c 4,347,348
 357.921875 212.599609375 357.921875 212.599609375 357.546875 214.877929688 c 4,349,350
 356.954101562 218.486328125 356.954101562 218.486328125 355.052734375 219.724609375 c 4,351,352
 353.9453125 220.447265625 353.9453125 220.447265625 352.625976562 220.447265625 c 132,-1,353
 351.110351562 220.447265625 351.110351562 220.447265625 349.904296875 219.513671875 c 4,354,355
 348.922851562 218.755859375 348.922851562 218.755859375 348.400390625 217.5234375 c 132,-1,356
 347.935546875 216.426757812 347.935546875 216.426757812 347.6328125 214.1796875 c 4,357,358
 345.811523438 200.6796875 345.811523438 200.6796875 344.0625 73.8671875 c 5,359,360
 344.052734375 74.4609375 344.052734375 74.4609375 343.899414062 75.6494140625 c 132,-1,361
 343.74609375 76.837890625 343.74609375 76.837890625 343.736328125 77.431640625 c 4,362,363
 342.447265625 160.24609375 342.447265625 160.24609375 341.603515625 189.168945312 c 4,364,365
 341.00390625 209.681640625 341.00390625 209.681640625 340.3359375 219.2890625 c 4,366,367
 340.001953125 224.07421875 340.001953125 224.07421875 339.630859375 226.440429688 c 132,-1,368
 339.271484375 228.735351562 339.271484375 228.735351562 338.584960938 229.854492188 c 132,-1,369
 337.888671875 230.991210938 337.888671875 230.991210938 336.744140625 231.577148438 c 132,-1,370
 335.796875 232.0625 335.796875 232.0625 334.727539062 232.0625 c 4,371,372
 333.131835938 232.0625 333.131835938 232.0625 331.893554688 231.038085938 c 4,373,374
 330.953125 230.259765625 330.953125 230.259765625 330.462890625 229.025390625 c 132,-1,375
 330.020507812 227.912109375 330.020507812 227.912109375 329.721679688 225.56640625 c 4,376,377
 327.876953125 211.064453125 327.876953125 211.064453125 325.953125 74.650390625 c 5,378,379
 325.946289062 75.0966796875 325.946289062 75.0966796875 325.696289062 75.990234375 c 132,-1,380
 325.4453125 76.8828125 325.4453125 76.8828125 325.439453125 77.330078125 c 4,381,382
 324.1484375 165.1328125 324.1484375 165.1328125 323.3046875 195.681640625 c 4,383,384
 322.705078125 217.357421875 322.705078125 217.357421875 322.036132812 227.432617188 c 4,385,386
 321.703125 232.446289062 321.703125 232.446289062 321.333007812 234.879882812 c 132,-1,387
 320.96875 237.283203125 320.96875 237.283203125 320.235351562 238.42578125 c 132,-1,388
 319.390625 239.740234375 319.390625 239.740234375 317.9765625 240.26171875 c 4,389,390
 315.522460938 241.169921875 315.522460938 241.169921875 313.532226562 239.4453125 c 4,391,392
 312.62109375 238.65625 312.62109375 238.65625 312.15234375 237.422851562 c 132,-1,393
 311.724609375 236.296875 311.724609375 236.296875 311.428710938 233.877929688 c 4,394,395
 309.56640625 218.639648438 309.56640625 218.639648438 307.521484375 75.2451171875 c 5,396,397
 307.517578125 75.5390625 307.517578125 75.5390625 307.198242188 76.1279296875 c 132,-1,398
 306.87890625 76.716796875 306.87890625 76.716796875 306.875 77.0107421875 c 4,399,400
 305.583984375 168.375 305.583984375 168.375 304.73828125 200.076171875 c 4,401,402
 304.138671875 222.578125 304.138671875 222.578125 303.469726562 232.97265625 c 4,403,404
 303.13671875 238.143554688 303.13671875 238.143554688 302.767578125 240.62109375 c 4,405,406
 301.923828125 246.287109375 301.923828125 246.287109375 297.887695312 246.287109375 c 4,407,408
 296.19921875 246.287109375 296.19921875 246.287109375 294.927734375 245.153320312 c 4,409,410
 294.0390625 244.359375 294.0390625 244.359375 293.583007812 243.12890625 c 132,-1,411
 293.162109375 241.991210938 293.162109375 241.991210938 292.862304688 239.517578125 c 4,412,413
 290.952148438 223.732421875 290.952148438 223.732421875 288.502929688 75.1171875 c 4,414,415
 288.1484375 53.5625 288.1484375 53.5625 287.9140625 39.9462890625 c 5,416,417
 286.1328125 162.526367188 286.1328125 162.526367188 285.756835938 180.837890625 c 4,418,419
 285.0546875 214.931640625 285.0546875 214.931640625 284.28125 230.501953125 c 4,420,421
 283.888671875 238.40234375 283.888671875 238.40234375 283.455078125 242.090820312 c 132,-1,422
 283.022460938 245.780273438 283.022460938 245.780273438 281.997070312 247.131835938 c 4,423,424
 280.63671875 248.924804688 280.63671875 248.924804688 278.4296875 248.924804688 c 4,425,426
 276.720703125 248.924804688 276.720703125 248.924804688 275.443359375 247.765625 c 4,427,428
 274.5625 246.966796875 274.5625 246.966796875 274.115234375 245.73046875 c 132,-1,429
 273.701171875 244.5859375 273.701171875 244.5859375 273.413085938 242.088867188 c 4,430,431
 271.5625 226.081054688 271.5625 226.081054688 269.688476562 75.3583984375 c 5,432,433
 269.6875 75.46484375 269.6875 75.46484375 269.462890625 75.6796875 c 132,-1,434
 269.23828125 75.8935546875 269.23828125 75.8935546875 269.237304688 76.0009765625 c 4,435,436
 267.166992188 227.73828125 267.166992188 227.73828125 265.291992188 243.891601562 c 4,437,438
 265.000976562 246.400390625 265.000976562 246.400390625 264.588867188 247.548828125 c 4,439,440
 263.458984375 250.697265625 263.458984375 250.697265625 260.267578125 250.76171875 c 4,441,442
 258.552734375 250.76171875 258.552734375 250.76171875 257.274414062 249.595703125 c 4,443,444
 256.396484375 248.794921875 256.396484375 248.794921875 255.951171875 247.560546875 c 132,-1,445
 255.537109375 246.412109375 255.537109375 246.412109375 255.247070312 243.90234375 c 4,446,447
 253.3828125 227.776367188 253.3828125 227.776367188 251.41796875 75.95703125 c 4,448,449
 251.41796875 75.9541015625 251.41796875 75.9541015625 251.142578125 75.947265625 c 132,-1,450
 250.869140625 75.9404296875 250.869140625 75.9404296875 250.869140625 75.9375 c 5,451,452
 248.80078125 227.588867188 248.80078125 227.588867188 246.926757812 243.696289062 c 4,453,454
 246.634765625 246.203125 246.634765625 246.203125 246.220703125 247.350585938 c 132,-1,455
 245.775390625 248.583984375 245.775390625 248.583984375 244.897460938 249.383789062 c 4,456,457
 243.466796875 250.6875 243.466796875 250.6875 241.548828125 250.534179688 c 132,-1,458
 239.595703125 250.376953125 239.595703125 250.376953125 238.368164062 248.79296875 c 4,459,460
 237.3125 247.431640625 237.3125 247.431640625 236.876953125 243.649414062 c 4,461,462
 235.01171875 227.4765625 235.01171875 227.4765625 233.02734375 76.568359375 c 5,463,464
 231.048828125 219.81640625 231.048828125 219.81640625 228.520507812 241.310546875 c 4,465,466
 228.228515625 243.793945312 228.228515625 243.793945312 227.811523438 244.935546875 c 132,-1,467
 227.361328125 246.169921875 227.361328125 246.169921875 226.475585938 246.966796875 c 4,468,469
 224.807617188 248.469726562 224.807617188 248.469726562 222.622070312 248.02734375 c 4,470,471
 219.354492188 247.365234375 219.354492188 247.365234375 218.625 242.450195312 c 4,472,473
 218.25390625 239.955078125 218.25390625 239.955078125 217.918945312 234.739257812 c 4,474,475
 217.244140625 224.243164062 217.244140625 224.243164062 216.6328125 201.48046875 c 4,476,477
 215.76953125 169.396484375 215.76953125 169.396484375 214.428710938 76.9013671875 c 5,478,479
 212.494140625 213.486328125 212.494140625 213.486328125 209.744140625 236.290039062 c 4,480,481
 209.44921875 238.731445312 209.44921875 238.731445312 209.025390625 239.86328125 c 132,-1,482
 208.5625 241.09765625 208.5625 241.09765625 207.661132812 241.889648438 c 4,483,484
 205.748046875 243.5703125 205.748046875 243.5703125 203.344726562 242.779296875 c 4,485,486
 201.842773438 242.283203125 201.842773438 242.283203125 200.953125 240.913085938 c 4,487,488
 200.205078125 239.763671875 200.205078125 239.763671875 199.841796875 237.328125 c 132,-1,489
 199.474609375 234.87109375 199.474609375 234.87109375 199.145507812 229.7890625 c 4,490,491
 198.484375 219.56640625 198.484375 219.56640625 197.90234375 197.54296875 c 4,492,493
 197.08203125 166.50390625 197.08203125 166.50390625 195.862304688 77.1943359375 c 5,494,495
 193.912109375 209.329101562 193.912109375 209.329101562 191.40234375 229.305664062 c 4,496,497
 191.104492188 231.681640625 191.104492188 231.681640625 190.66796875 232.80078125 c 132,-1,498
 190.185546875 234.03515625 190.185546875 234.03515625 189.259765625 234.81640625 c 4,499,500
 188.01171875 235.869140625 188.01171875 235.869140625 186.392578125 235.869140625 c 4,501,502
 185.408203125 235.869140625 185.408203125 235.869140625 184.522460938 235.455078125 c 4,503,504
 183.29296875 234.880859375 183.29296875 234.880859375 182.552734375 233.6875 c 132,-1,505
 181.854492188 232.5625 181.854492188 232.5625 181.490234375 230.228515625 c 132,-1,506
 181.1171875 227.833007812 181.1171875 227.833007812 180.776367188 222.9453125 c 4,507,508
 180.090820312 213.12890625 180.090820312 213.12890625 179.456054688 192.119140625 c 4,509,510
 178.73828125 168.376953125 178.73828125 168.376953125 176.61328125 47.634765625 c 5,511,512
 176.451171875 57.5458984375 176.451171875 57.5458984375 176.193359375 73.9453125 c 4,513,514
 174.13671875 204.928710938 174.13671875 204.928710938 172.278320312 218.866210938 c 4,515,516
 171.973632812 221.15625 171.973632812 221.15625 171.516601562 222.258789062 c 132,-1,517
 171.006835938 223.490234375 171.006835938 223.490234375 170.043945312 224.255859375 c 4,518,519
 168.82421875 225.225585938 168.82421875 225.225585938 167.275390625 225.225585938 c 4,520,521
 163.986328125 225.225585938 163.986328125 225.225585938 162.83984375 221.755859375 c 4,522,523
 162.572265625 220.9453125 162.572265625 220.9453125 162.358398438 219.641601562 c 4,524,525
 161.98046875 217.334960938 161.98046875 217.334960938 161.630859375 212.725585938 c 4,526,527
 160.931640625 203.483398438 160.931640625 203.483398438 160.266601562 183.880859375 c 4,528,529
 159.611328125 164.576171875 159.611328125 164.576171875 157.08984375 43.796875 c 5,530,531
 156.889648438 54.904296875 156.889648438 54.904296875 156.591796875 72.318359375 c 4,532,533
 154.541015625 192.0078125 154.541015625 192.0078125 152.688476562 204.771484375 c 4,534,535
 152.185546875 208.241210938 152.185546875 208.241210938 150.823242188 209.5703125 c 132,-1,536
 149.509765625 210.852539062 149.509765625 210.852539062 147.697265625 210.852539062 c 4,537,538
 146.103515625 210.852539062 146.103515625 210.852539062 144.86328125 209.833007812 c 132,-1,539
 143.759765625 208.926757812 143.759765625 208.926757812 143.236328125 207.3515625 c 4,540,541
 142.97265625 206.556640625 142.97265625 206.556640625 142.764648438 205.32421875 c 4,542,543
 142.396484375 203.146484375 142.396484375 203.146484375 142.07421875 198.915039062 c 4,544,545
 141.431640625 190.474609375 141.431640625 190.474609375 140.892578125 172.801757812 c 4,546,547
 140.1328125 147.923828125 140.1328125 147.923828125 139.088867188 77.267578125 c 5,548,549
 137.188476562 175.00390625 137.188476562 175.00390625 134.990234375 188.354492188 c 4,550,551
 134.444335938 191.666015625 134.444335938 191.666015625 132.942382812 192.958984375 c 4,552,553
 131.673828125 194.049804688 131.673828125 194.049804688 130.018554688 194.049804688 c 4,554,555
 126.728515625 194.049804688 126.728515625 194.049804688 125.521484375 190.51953125 c 4,556,557
 124.84375 188.541015625 124.84375 188.541015625 124.3203125 182.900390625 c 4,558,559
 123.631835938 175.50390625 123.631835938 175.50390625 122.989257812 160.37109375 c 4,560,561
 122.086914062 139.11328125 122.086914062 139.11328125 120.62109375 79.1513671875 c 4,562,563
 120.586914062 77.771484375 120.586914062 77.771484375 120.1171875 75.017578125 c 132,-1,564
 119.646484375 72.263671875 119.646484375 72.263671875 119.61328125 70.890625 c 5,565,566
 118.6015625 112.802734375 118.6015625 112.802734375 118.006835938 129.487304688 c 4,567,568
 117.47265625 144.455078125 117.47265625 144.455078125 116.90625 152.881835938 c 4,569,570
 116.45703125 159.567382812 116.45703125 159.567382812 115.948242188 162.711914062 c 4,571,572
 115.35546875 166.377929688 115.35546875 166.377929688 113.802734375 167.727539062 c 4,573,574
 112.51953125 168.841796875 112.51953125 168.841796875 110.83984375 168.841796875 c 4,575,576
 108.3203125 168.841796875 108.3203125 168.841796875 106.91796875 166.600585938 c 4,577,578
 106.21875 165.481445312 106.21875 165.481445312 105.78515625 163.420898438 c 4,579,580
 105.41015625 161.631835938 105.41015625 161.631835938 105.079101562 158.60546875 c 4,581,582
 104.427734375 152.65625 104.427734375 152.65625 103.864257812 141.130859375 c 4,583,584
 103.076171875 124.99609375 103.076171875 124.99609375 101.9375 80.751953125 c 5,585,586
 101.767578125 84.986328125 101.767578125 84.986328125 101.028320312 92.1904296875 c 132,-1,587
 100.2890625 99.3935546875 100.2890625 99.3935546875 100.142578125 102.029296875 c 4,588,589
 99.5263671875 113.069335938 99.5263671875 113.069335938 98.861328125 118.133789062 c 4,590,591
 98.400390625 121.647460938 98.400390625 121.647460938 97.7607421875 123.177734375 c 132,-1,592
 97.177734375 124.572265625 97.177734375 124.572265625 96.1298828125 125.389648438 c 132,-1,593
 94.8857421875 126.359375 94.8857421875 126.359375 93.3251953125 126.359375 c 4,594,595
 91.0751953125 126.359375 91.0751953125 126.359375 89.638671875 124.505859375 c 4,596,597
 88.826171875 123.458984375 88.826171875 123.458984375 88.3037109375 121.521484375 c 4,598,599
 85.5849609375 111.458984375 85.5849609375 111.458984375 84.3662109375 84.21875 c 4,600,601
 83.552734375 66.03515625 83.552734375 66.03515625 83.552734375 47.9306640625 c 4,602,603
 83.5546875 46.14453125 83.5546875 46.14453125 84.8203125 44.880859375 c 132,-1,604
 86.0849609375 43.6171875 86.0849609375 43.6171875 87.87109375 43.6171875 c 132,-1,605
 89.6640625 43.6171875 89.6640625 43.6171875 90.927734375 44.89453125 c 132,-1,606
 92.189453125 46.171875 92.189453125 46.171875 92.189453125 48.0107421875 c 4,607,608
 92.189453125 48.2119140625 92.189453125 48.2119140625 92.337890625 50.828125 c 132,-1,609
 92.4853515625 53.4443359375 92.4853515625 53.4443359375 92.689453125 58.103515625 c 132,-1,610
 92.89453125 62.7626953125 92.89453125 62.7626953125 93.0029296875 67.4013671875 c 5,611,612
 94.2470703125 35.17578125 94.2470703125 35.17578125 95.0673828125 22.9248046875 c 4,613,614
 95.654296875 14.142578125 95.654296875 14.142578125 96.3076171875 9.24609375 c 132,-1,615
 96.955078125 4.3876953125 96.955078125 4.3876953125 97.853515625 2.443359375 c 4,616,617
 99.220703125 -0.517578125 99.220703125 -0.517578125 102.181640625 -0.517578125 c 4,618,619
 104.46875 -0.517578125 104.46875 -0.517578125 105.877929688 1.3828125 c 4,620,621
 106.624023438 2.388671875 106.624023438 2.388671875 107.03515625 4.12109375 c 132,-1,622
 107.474609375 5.978515625 107.474609375 5.978515625 107.844726562 9.7470703125 c 4,623,624
 108.540039062 16.8447265625 108.540039062 16.8447265625 109.149414062 32.384765625 c 4,625,626
 109.685546875 46.07421875 109.685546875 46.07421875 110.571289062 80.525390625 c 5,627,628
 110.611328125 78.904296875 110.611328125 78.904296875 110.775390625 75.619140625 c 132,-1,629
 110.939453125 72.3359375 110.939453125 72.3359375 110.978515625 70.677734375 c 4,630,631
 112.255859375 17.72265625 112.255859375 17.72265625 113.09375 -1.275390625 c 4,632,633
 113.69140625 -14.8046875 113.69140625 -14.8046875 114.358398438 -21.5703125 c 4,634,635
 114.869140625 -26.740234375 114.869140625 -26.740234375 115.53125 -28.7060546875 c 4,636,637
 115.87890625 -29.7373046875 115.87890625 -29.7373046875 116.422851562 -30.4658203125 c 4,638,639
 117.818359375 -32.337890625 117.818359375 -32.337890625 120.080078125 -32.337890625 c 4,640,641
 123.017578125 -32.337890625 123.017578125 -32.337890625 124.317382812 -29.46875 c 4,642,643
 124.857421875 -28.2783203125 124.857421875 -28.2783203125 125.224609375 -25.7822265625 c 4,644,645
 125.74609375 -22.2314453125 125.74609375 -22.2314453125 126.224609375 -14.6279296875 c 4,646,647
 126.830078125 -4.9921875 126.830078125 -4.9921875 127.423828125 12.09375 c 4,648,649
 127.890625 25.533203125 127.890625 25.533203125 129.727539062 98.005859375 c 5,650,651
 131.765625 -0.087890625 131.765625 -0.087890625 132.3671875 -16.689453125 c 132,-1,652
 132.96484375 -33.212890625 132.96484375 -33.212890625 133.6328125 -41.17578125 c 4,653,654
 133.96875 -45.1787109375 133.96875 -45.1787109375 134.34375 -47.283203125 c 4,655,656
 134.5546875 -48.470703125 134.5546875 -48.470703125 134.815429688 -49.24609375 c 4,657,658
 135.283203125 -50.6396484375 135.283203125 -50.6396484375 136.18359375 -51.5048828125 c 4,659,660
 137.499023438 -52.767578125 137.499023438 -52.767578125 139.294921875 -52.767578125 c 4,661,662
 142.150390625 -52.767578125 142.150390625 -52.767578125 143.443359375 -50.04296875 c 4,663,664
 143.952148438 -48.970703125 143.952148438 -48.970703125 144.268554688 -46.865234375 c 4,665,666
 146.068359375 -34.9052734375 146.068359375 -34.9052734375 147.724609375 77.1376953125 c 5,667,668
 147.73828125 76.3095703125 147.73828125 76.3095703125 147.83984375 74.65234375 c 132,-1,669
 147.94140625 72.99609375 147.94140625 72.99609375 147.956054688 72.16796875 c 4,670,671
 149.244140625 -2.9541015625 149.244140625 -2.9541015625 150.0859375 -29.2705078125 c 4,672,673
 150.684570312 -47.9716796875 150.684570312 -47.9716796875 151.353515625 -56.833984375 c 4,674,675
 151.6875 -61.2646484375 151.6875 -61.2646484375 152.060546875 -63.509765625 c 4,676,677
 152.63671875 -66.984375 152.63671875 -66.984375 154.408203125 -68.240234375 c 4,678,679
 155.56640625 -69.0634765625 155.56640625 -69.0634765625 156.983398438 -69.0634765625 c 132,-1,680
 158.486328125 -69.0634765625 158.486328125 -69.0634765625 159.6875 -68.14453125 c 4,681,682
 160.669921875 -67.3935546875 160.669921875 -67.3935546875 161.19921875 -66.169921875 c 132,-1,683
 161.673828125 -65.07421875 161.673828125 -65.07421875 161.991210938 -62.830078125 c 4,684,685
 163.900390625 -49.3564453125 163.900390625 -49.3564453125 166.400390625 77.083984375 c 4,686,687
 166.78125 96.287109375 166.78125 96.287109375 167.014648438 107.59375 c 5,688,689
 169.08203125 -16.25390625 169.08203125 -16.25390625 169.689453125 -36.876953125 c 4,690,691
 170.2890625 -57.2001953125 170.2890625 -57.2001953125 170.95703125 -66.7236328125 c 4,692,693
 171.291015625 -71.4736328125 171.291015625 -71.4736328125 171.662109375 -73.818359375 c 132,-1,694
 172.022460938 -76.1015625 172.022460938 -76.1015625 172.708984375 -77.21875 c 132,-1,695
 173.400390625 -78.34375 173.400390625 -78.34375 174.528320312 -78.927734375 c 132,-1,696
 175.485351562 -79.423828125 175.485351562 -79.423828125 176.564453125 -79.423828125 c 4,697,698
 178.151367188 -79.423828125 178.151367188 -79.423828125 179.38671875 -78.41015625 c 4,699,700
 180.330078125 -77.6357421875 180.330078125 -77.6357421875 180.82421875 -76.4052734375 c 132,-1,701
 181.272460938 -75.29296875 181.272460938 -75.29296875 181.578125 -72.953125 c 4,702,703
 183.465820312 -58.4990234375 183.465820312 -58.4990234375 185.76171875 77.388671875 c 4,704,705
 186.0390625 93.875 186.0390625 93.875 186.235351562 105.0703125 c 5,706,707
 188.138671875 -18.11328125 188.138671875 -18.11328125 188.823242188 -42.7412109375 c 4,708,709
 189.421875 -64.298828125 189.421875 -64.298828125 190.091796875 -74.330078125 c 4,710,711
 190.423828125 -79.3193359375 190.423828125 -79.3193359375 190.793945312 -81.751953125 c 132,-1,712
 191.158203125 -84.140625 191.158203125 -84.140625 191.8828125 -85.279296875 c 132,-1,713
 192.703125 -86.568359375 192.703125 -86.568359375 194.078125 -87.1064453125 c 4,714,715
 196.560546875 -88.076171875 196.560546875 -88.076171875 198.590820312 -86.32421875 c 4,716,717
 199.50390625 -85.53515625 199.50390625 -85.53515625 199.974609375 -84.30078125 c 132,-1,718
 200.404296875 -83.1748046875 200.404296875 -83.1748046875 200.698242188 -80.7646484375 c 4,719,720
 202.548828125 -65.6064453125 202.548828125 -65.6064453125 204.498046875 77.07421875 c 5,721,722
 204.501953125 76.744140625 204.501953125 76.744140625 204.767578125 76.083984375 c 132,-1,723
 205.033203125 75.423828125 205.033203125 75.423828125 205.038085938 75.09375 c 4,724,725
 206.328125 -15.9697265625 206.328125 -15.9697265625 207.173828125 -47.572265625 c 4,726,727
 207.771484375 -69.9921875 207.771484375 -69.9921875 208.44140625 -80.3701171875 c 4,728,729
 208.7734375 -85.525390625 208.7734375 -85.525390625 209.142578125 -88.001953125 c 4,730,731
 209.987304688 -93.66796875 209.987304688 -93.66796875 214.024414062 -93.66796875 c 4,732,733
 215.7109375 -93.66796875 215.7109375 -93.66796875 216.98046875 -92.5361328125 c 4,734,735
 217.872070312 -91.7421875 217.872070312 -91.7421875 218.328125 -90.5087890625 c 132,-1,736
 218.748046875 -89.37109375 218.748046875 -89.37109375 219.04296875 -86.904296875 c 4,737,738
 220.919921875 -71.189453125 220.919921875 -71.189453125 223.064453125 76.7744140625 c 5,739,740
 223.06640625 76.599609375 223.06640625 76.599609375 223.44140625 76.251953125 c 132,-1,741
 223.81640625 75.904296875 223.81640625 75.904296875 223.819335938 75.73046875 c 4,742,743
 224.852539062 0.92578125 224.852539062 0.92578125 225.471679688 -29.1298828125 c 4,744,745
 226.171875 -63.1865234375 226.171875 -63.1865234375 226.946289062 -78.7509765625 c 4,746,747
 227.338867188 -86.646484375 227.338867188 -86.646484375 227.772460938 -90.3349609375 c 132,-1,748
 228.205078125 -94.017578125 228.205078125 -94.017578125 229.224609375 -95.3681640625 c 4,749,750
 230.583984375 -97.171875 230.583984375 -97.171875 232.798828125 -97.171875 c 4,751,752
 234.5078125 -97.171875 234.5078125 -97.171875 235.784179688 -96.013671875 c 4,753,754
 236.665039062 -95.21484375 236.665039062 -95.21484375 237.11328125 -93.98046875 c 132,-1,755
 237.52734375 -92.8359375 237.52734375 -92.8359375 237.818359375 -90.337890625 c 4,756,757
 239.6796875 -74.32421875 239.6796875 -74.32421875 241.663085938 76.4521484375 c 5,758,759
 241.6640625 76.345703125 241.6640625 76.345703125 241.948242188 76.134765625 c 132,-1,760
 242.232421875 75.9228515625 242.232421875 75.9228515625 242.233398438 75.8173828125 c 4,761,762
 244.302734375 -75.89453125 244.302734375 -75.89453125 246.177734375 -92.06640625 c 4,763,764
 246.46875 -94.5751953125 246.46875 -94.5751953125 246.879882812 -95.7236328125 c 4,765,766
 247.998046875 -98.849609375 247.998046875 -98.849609375 251.203125 -98.943359375 c 4,767,768
 252.91796875 -98.943359375 252.91796875 -98.943359375 254.197265625 -97.77734375 c 4,769,770
 255.076171875 -96.9765625 255.076171875 -96.9765625 255.520507812 -95.7421875 c 132,-1,771
 255.934570312 -94.59375 255.934570312 -94.59375 256.224609375 -92.083984375 c 4,772,773
 258.087890625 -75.9599609375 258.087890625 -75.9599609375 260.052734375 75.84375 c 4,774,775
 260.052734375 75.849609375 260.052734375 75.849609375 260.327148438 75.8623046875 c 132,-1,776
 260.6015625 75.875 260.6015625 75.875 260.6015625 75.880859375 c 5,777,778
 262.669921875 -75.79296875 262.669921875 -75.79296875 264.543945312 -91.90234375 c 4,779,780
 264.8359375 -94.41015625 264.8359375 -94.41015625 265.25 -95.5576171875 c 132,-1,781
 265.6953125 -96.791015625 265.6953125 -96.791015625 266.573242188 -97.5908203125 c 4,782,783
 267.998046875 -98.8876953125 267.998046875 -98.8876953125 269.904296875 -98.7421875 c 132,-1,784
 271.865234375 -98.59375 271.865234375 -98.59375 273.099609375 -97.0048828125 c 4,785,786
 274.158203125 -95.640625 274.158203125 -95.640625 274.591796875 -91.8564453125 c 4,787,788
 276.447265625 -75.689453125 276.447265625 -75.689453125 278.32421875 75.2490234375 c 5,789,790
 280.323242188 -69.6494140625 280.323242188 -69.6494140625 282.709960938 -89.958984375 c 4,791,792
 283.001953125 -92.4462890625 283.001953125 -92.4462890625 283.418945312 -93.587890625 c 132,-1,793
 283.869140625 -94.8212890625 283.869140625 -94.8212890625 284.75390625 -95.619140625 c 4,794,795
 286.388671875 -97.091796875 286.388671875 -97.091796875 288.536132812 -96.6943359375 c 4,796,797
 291.861328125 -96.078125 291.861328125 -96.078125 292.607421875 -91.115234375 c 4,798,799
 292.982421875 -88.619140625 292.982421875 -88.619140625 293.328125 -83.390625 c 4,800,801
 294.0234375 -72.865234375 294.0234375 -72.865234375 294.681640625 -50.0361328125 c 4,802,803
 295.391601562 -25.40625 295.391601562 -25.40625 297.745117188 111.171875 c 5,804,805
 297.939453125 98.0986328125 297.939453125 98.0986328125 298.239257812 76.88671875 c 4,806,807
 300.302734375 -69.16015625 300.302734375 -69.16015625 302.168945312 -84.6728515625 c 4,808,809
 302.462890625 -87.119140625 302.462890625 -87.119140625 302.88671875 -88.251953125 c 132,-1,810
 303.34765625 -89.486328125 303.34765625 -89.486328125 304.247070312 -90.2783203125 c 4,811,812
 306.106445312 -91.916015625 306.106445312 -91.916015625 308.462890625 -91.205078125 c 4,813,814
 310.017578125 -90.734375 310.017578125 -90.734375 310.94140625 -89.3349609375 c 4,815,816
 311.701171875 -88.1826171875 311.701171875 -88.1826171875 312.069335938 -85.7314453125 c 132,-1,817
 312.439453125 -83.2705078125 312.439453125 -83.2705078125 312.771484375 -78.173828125 c 4,818,819
 313.439453125 -67.92578125 313.439453125 -67.92578125 314.036132812 -45.798828125 c 4,820,821
 314.876953125 -14.62109375 314.876953125 -14.62109375 316.157226562 75.1201171875 c 5,822,823
 318.095703125 -56.951171875 318.095703125 -56.951171875 320.728515625 -78.01953125 c 4,824,825
 321.026367188 -80.40625 321.026367188 -80.40625 321.4609375 -81.5263671875 c 132,-1,826
 321.940429688 -82.759765625 321.940429688 -82.759765625 322.864257812 -83.5439453125 c 4,827,828
 324.11328125 -84.603515625 324.11328125 -84.603515625 325.740234375 -84.603515625 c 4,829,830
 326.662109375 -84.603515625 326.662109375 -84.603515625 327.50390625 -84.2373046875 c 4,831,832
 328.7890625 -83.677734375 328.7890625 -83.677734375 329.563476562 -82.447265625 c 132,-1,833
 330.274414062 -81.314453125 330.274414062 -81.314453125 330.634765625 -78.9619140625 c 132,-1,834
 331.002929688 -76.5625 331.002929688 -76.5625 331.331054688 -71.65625 c 4,835,836
 331.991210938 -61.7958984375 331.991210938 -61.7958984375 332.568359375 -40.6806640625 c 4,837,838
 333.383789062 -10.908203125 333.383789062 -10.908203125 334.588867188 74.525390625 c 5,839,840
 336.525390625 -50.1240234375 336.525390625 -50.1240234375 339.015625 -68.978515625 c 4,841,842
 339.3203125 -71.279296875 339.3203125 -71.279296875 339.7734375 -72.384765625 c 132,-1,843
 340.279296875 -73.6171875 340.279296875 -73.6171875 341.236328125 -74.384765625 c 4,844,845
 342.4609375 -75.3671875 342.4609375 -75.3671875 344.020507812 -75.3671875 c 4,846,847
 345.2421875 -75.3671875 345.2421875 -75.3671875 346.291992188 -74.7412109375 c 4,848,849
 348.333984375 -73.5234375 348.333984375 -73.5234375 348.9296875 -69.7626953125 c 4,850,851
 349.296875 -67.447265625 349.296875 -67.447265625 349.620117188 -62.8037109375 c 4,852,853
 350.267578125 -53.4990234375 350.267578125 -53.4990234375 350.8203125 -33.7314453125 c 4,854,855
 351.599609375 -5.880859375 351.599609375 -5.880859375 352.697265625 73.7451171875 c 5,856,857
 353.560546875 22.02734375 353.560546875 22.02734375 355.173828125 -29.64453125 c 4,858,859
 355.775390625 -48.8837890625 355.775390625 -48.8837890625 356.446289062 -57.9755859375 c 4,860,861
 356.78125 -62.515625 356.78125 -62.515625 357.155273438 -64.80859375 c 4,862,863
 357.732421875 -68.349609375 357.732421875 -68.349609375 359.534179688 -69.609375 c 4,864,865
 360.68359375 -70.412109375 360.68359375 -70.412109375 362.08203125 -70.412109375 c 132,-1,866
 363.600585938 -70.412109375 363.600585938 -70.412109375 364.807617188 -69.4765625 c 4,867,868
 365.78515625 -68.71875 365.78515625 -68.71875 366.307617188 -67.48828125 c 132,-1,869
 366.772460938 -66.392578125 366.772460938 -66.392578125 367.078125 -64.140625 c 4,870,871
 368.91796875 -50.59765625 368.91796875 -50.59765625 370.837890625 76.6103515625 c 5,872,873
 370.84765625 76.013671875 370.84765625 76.013671875 371.09765625 74.8193359375 c 132,-1,874
 371.34765625 73.625 371.34765625 73.625 371.357421875 73.02734375 c 4,875,876
 372.645507812 -9.95703125 372.645507812 -9.95703125 373.489257812 -38.9169921875 c 4,877,878
 374.087890625 -59.46484375 374.087890625 -59.46484375 374.756835938 -69.0869140625 c 4,879,880
 375.08984375 -73.880859375 375.08984375 -73.880859375 375.4609375 -76.2470703125 c 132,-1,881
 375.8203125 -78.544921875 375.8203125 -78.544921875 376.506835938 -79.6640625 c 132,-1,882
 377.20703125 -80.8046875 377.20703125 -80.8046875 378.356445312 -81.390625 c 4,883,884
 379.30078125 -81.87109375 379.30078125 -81.87109375 380.36328125 -81.87109375 c 4,885,886
 381.9609375 -81.87109375 381.9609375 -81.87109375 383.200195312 -80.8447265625 c 4,887,888
 384.13671875 -80.068359375 384.13671875 -80.068359375 384.627929688 -78.8369140625 c 132,-1,889
 385.072265625 -77.72265625 385.072265625 -77.72265625 385.376953125 -75.369140625 c 4,890,891
 387.265625 -60.783203125 387.265625 -60.783203125 389.5703125 76.3818359375 c 4,892,893
 389.859375 93.62890625 389.859375 93.62890625 390.05078125 104.61328125 c 5,894,895
 391.95703125 -19.673828125 391.95703125 -19.673828125 392.641601562 -44.4619140625 c 4,896,897
 393.241210938 -66.1728515625 393.241210938 -66.1728515625 393.91015625 -76.2568359375 c 4,898,899
 394.243164062 -81.275390625 394.243164062 -81.275390625 394.612304688 -83.7109375 c 132,-1,900
 394.978515625 -86.119140625 394.978515625 -86.119140625 395.716796875 -87.2626953125 c 132,-1,901
 396.5703125 -88.587890625 396.5703125 -88.587890625 398.005859375 -89.103515625 c 4,902,903
 400.4453125 -89.982421875 400.4453125 -89.982421875 402.415039062 -88.2724609375 c 4,904,905
 403.323242188 -87.484375 403.323242188 -87.484375 403.79296875 -86.251953125 c 132,-1,906
 404.221679688 -85.123046875 404.221679688 -85.123046875 404.51953125 -82.701171875 c 4,907,908
 406.401367188 -67.419921875 406.401367188 -67.419921875 408.620117188 76.4111328125 c 4,909,910
 408.876953125 93.060546875 408.876953125 93.060546875 409.046875 103.770507812 c 5,911,912
 410.884765625 -21.515625 410.884765625 -21.515625 411.59765625 -48.306640625 c 4,913,914
 412.197265625 -70.8095703125 412.197265625 -70.8095703125 412.866210938 -81.2138671875 c 4,915,916
 413.19921875 -86.3837890625 413.19921875 -86.3837890625 413.567382812 -88.861328125 c 4,917,918
 414.41015625 -94.521484375 414.41015625 -94.521484375 418.446289062 -94.521484375 c 4,919,920
 420.13671875 -94.521484375 420.13671875 -94.521484375 421.407226562 -93.3857421875 c 4,921,922
 422.298828125 -92.5888671875 422.298828125 -92.5888671875 422.752929688 -91.353515625 c 132,-1,923
 423.171875 -90.216796875 423.171875 -90.216796875 423.4609375 -87.7470703125 c 4,924,925
 425.30859375 -72.0146484375 425.30859375 -72.0146484375 427.184570312 76.119140625 c 5,926,927
 427.1875 75.923828125 427.1875 75.923828125 427.412109375 75.53515625 c 132,-1,928
 427.635742188 75.14453125 427.635742188 75.14453125 427.638671875 74.9501953125 c 4,929,930
 428.671875 -0.005859375 428.671875 -0.005859375 429.290039062 -30.1220703125 c 4,931,932
 429.991210938 -64.234375 429.991210938 -64.234375 430.765625 -79.828125 c 4,933,934
 431.157226562 -87.728515625 431.157226562 -87.728515625 431.591796875 -91.4228515625 c 132,-1,935
 432.025390625 -95.119140625 432.025390625 -95.119140625 433.057617188 -96.4716796875 c 4,936,937
 434.41796875 -98.25390625 434.41796875 -98.25390625 436.616210938 -98.25390625 c 4,938,939
 438.326171875 -98.25390625 438.326171875 -98.25390625 439.603515625 -97.09375 c 4,940,941
 440.482421875 -96.2958984375 440.482421875 -96.2958984375 440.9296875 -95.064453125 c 132,-1,942
 441.345703125 -93.91796875 441.345703125 -93.91796875 441.640625 -91.416015625 c 4,943,944
 443.53515625 -75.345703125 443.53515625 -75.345703125 445.81640625 75.958984375 c 4,945,946
 446.10546875 95.18359375 446.10546875 95.18359375 446.290039062 106.97265625 c 5,947,948
 446.46484375 94.662109375 446.46484375 94.662109375 446.721679688 75.76953125 c 4,949,950
 448.791015625 -76.03515625 448.791015625 -76.03515625 450.666015625 -92.1884765625 c 4,951,952
 450.95703125 -94.697265625 450.95703125 -94.697265625 451.370117188 -95.8466796875 c 132,-1,953
 451.809570312 -97.068359375 451.809570312 -97.068359375 452.668945312 -97.865234375 c 4,954,955
 453.923828125 -99.029296875 453.923828125 -99.029296875 455.690429688 -99.056640625 c 132,-1,956
 457.405273438 -99.056640625 457.405273438 -99.056640625 458.684570312 -97.890625 c 4,957,958
 459.561523438 -97.0908203125 459.561523438 -97.0908203125 460.006835938 -95.857421875 c 132,-1,959
 460.421875 -94.7109375 460.421875 -94.7109375 460.713867188 -92.197265625 c 4,960,961
 462.591796875 -76.0546875 462.591796875 -76.0546875 464.69140625 75.8994140625 c 4,962,963
 464.69140625 75.9423828125 464.69140625 75.9423828125 465.040039062 76.02734375 c 132,-1,964
 465.388671875 76.111328125 465.388671875 76.111328125 465.388671875 76.154296875 c 5,965,966
 467.45703125 -75.37109375 467.45703125 -75.37109375 469.331054688 -91.466796875 c 4,967,968
 469.623046875 -93.97265625 469.623046875 -93.97265625 470.037109375 -95.119140625 c 132,-1,969
 470.482421875 -96.3515625 470.482421875 -96.3515625 471.361328125 -97.15234375 c 4,970,971
 472.80859375 -98.470703125 472.80859375 -98.470703125 474.747070312 -98.298828125 c 132,-1,972
 476.684570312 -98.1259765625 476.684570312 -98.1259765625 477.8984375 -96.548828125 c 4,973,974
 478.94921875 -95.18359375 478.94921875 -95.18359375 479.375 -91.4111328125 c 4,975,976
 481.193359375 -75.2861328125 481.193359375 -75.2861328125 482.733398438 75.03515625 c 5,977,-1
 482.802734375 75.1337890625 l 5,978,979
 484.868164062 -74.193359375 484.868164062 -74.193359375 486.737304688 -90.052734375 c 4,980,981
 487.029296875 -92.53515625 487.029296875 -92.53515625 487.447265625 -93.67578125 c 132,-1,982
 487.8984375 -94.908203125 487.8984375 -94.908203125 488.78515625 -95.7060546875 c 4,983,984
 490.443359375 -97.197265625 490.443359375 -97.197265625 492.616210938 -96.767578125 c 4,985,986
 495.8984375 -96.1181640625 495.8984375 -96.1181640625 496.6328125 -91.1953125 c 4,987,988
 497.00390625 -88.7060546875 497.00390625 -88.7060546875 497.33984375 -83.501953125 c 4,989,990
 498.017578125 -73.029296875 498.017578125 -73.029296875 498.6328125 -50.31640625 c 4,991,992
 499.501953125 -18.3046875 499.501953125 -18.3046875 500.860351562 73.9951171875 c 5,993,994
 502.791015625 -62.09375 502.791015625 -62.09375 505.578125 -85.14453125 c 4,995,996
 505.873046875 -87.58203125 505.873046875 -87.58203125 506.297851562 -88.71484375 c 132,-1,997
 506.762695312 -89.94921875 506.762695312 -89.94921875 507.665039062 -90.740234375 c 4,998,999
 509.55078125 -92.3935546875 509.55078125 -92.3935546875 511.92578125 -91.6435546875 c 4,1000,1001
 513.44921875 -91.1611328125 513.44921875 -91.1611328125 514.356445312 -89.78125 c 4,1002,1003
 515.112304688 -88.6318359375 515.112304688 -88.6318359375 515.48046875 -86.193359375 c 132,-1,1004
 515.8515625 -83.7412109375 515.8515625 -83.7412109375 516.185546875 -78.6689453125 c 4,1005,1006
 516.857421875 -68.46875 516.857421875 -68.46875 517.463867188 -46.4755859375 c 4,1007,1008
 518.319335938 -15.4453125 518.319335938 -15.4453125 519.63671875 73.71484375 c 5,1009,1010
 521.5625 -56.4951171875 521.5625 -56.4951171875 524.276367188 -78.0654296875 c 4,1011,1012
 524.576171875 -80.44140625 524.576171875 -80.44140625 525.012695312 -81.55859375 c 132,-1,1013
 525.494140625 -82.7919921875 525.494140625 -82.7919921875 526.422851562 -83.57421875 c 4,1014,1015
 527.669921875 -84.6240234375 527.669921875 -84.6240234375 529.287109375 -84.6240234375 c 4,1016,1017
 530.244140625 -84.6240234375 530.244140625 -84.6240234375 531.112304688 -84.23046875 c 4,1018,1019
 532.361328125 -83.666015625 532.361328125 -83.666015625 533.116210938 -82.4599609375 c 132,-1,1020
 533.822265625 -81.33203125 533.822265625 -81.33203125 534.186523438 -78.99609375 c 132,-1,1021
 534.560546875 -76.6064453125 534.560546875 -76.6064453125 534.900390625 -71.73046875 c 4,1022,1023
 535.583007812 -61.939453125 535.583007812 -61.939453125 536.211914062 -40.9677734375 c 4,1024,1025
 536.93359375 -16.8955078125 536.93359375 -16.8955078125 538.998046875 102.171875 c 5,1026,1027
 539.162109375 92.0966796875 539.162109375 92.0966796875 539.40234375 76.83984375 c 4,1028,1029
 541.458984375 -53.96484375 541.458984375 -53.96484375 543.317382812 -67.8857421875 c 4,1030,1031
 543.622070312 -70.173828125 543.622070312 -70.173828125 544.080078125 -71.2763671875 c 132,-1,1032
 544.590820312 -72.5078125 544.590820312 -72.5078125 545.553710938 -73.2734375 c 4,1033,1034
 546.7734375 -74.2412109375 546.7734375 -74.2412109375 548.3203125 -74.2412109375 c 4,1035,1036
 551.610351562 -74.2412109375 551.610351562 -74.2412109375 552.755859375 -70.771484375 c 4,1037,1038
 553.0234375 -69.9609375 553.0234375 -69.9609375 553.236328125 -68.658203125 c 4,1039,1040
 553.611328125 -66.35546875 553.611328125 -66.35546875 553.954101562 -61.75390625 c 4,1041,1042
 554.640625 -52.53125 554.640625 -52.53125 555.276367188 -32.9697265625 c 4,1043,1044
 555.975585938 -11.474609375 555.975585938 -11.474609375 558.146484375 101.974609375 c 5,1045,1046
 558.3125 92.724609375 558.3125 92.724609375 558.564453125 78.08203125 c 4,1047,1048
 560.615234375 -41.330078125 560.615234375 -41.330078125 562.466796875 -54.0625 c 4,1049,1050
 562.970703125 -57.5302734375 562.970703125 -57.5302734375 564.333984375 -58.8583984375 c 132,-1,1051
 565.647460938 -60.13671875 565.647460938 -60.13671875 567.458007812 -60.13671875 c 132,-1,1052
 569.080078125 -60.13671875 569.080078125 -60.13671875 570.333984375 -59.0830078125 c 132,-1,1053
 571.41015625 -58.177734375 571.41015625 -58.177734375 571.923828125 -56.62109375 c 4,1054,1055
 572.185546875 -55.828125 572.185546875 -55.828125 572.392578125 -54.595703125 c 4,1056,1057
 572.7578125 -52.4150390625 572.7578125 -52.4150390625 573.076171875 -48.1875 c 4,1058,1059
 573.7109375 -39.75390625 573.7109375 -39.75390625 574.234375 -22.1162109375 c 4,1060,1061
 574.970703125 2.6875 574.970703125 2.6875 575.951171875 73.1943359375 c 5,1062,1063
 577.87109375 -25.4013671875 577.87109375 -25.4013671875 579.928710938 -37.884765625 c 4,1064,1065
 580.474609375 -41.1953125 580.474609375 -41.1953125 581.978515625 -42.4873046875 c 4,1066,1067
 583.24609375 -43.576171875 583.24609375 -43.576171875 584.900390625 -43.576171875 c 4,1068,1069
 588.19921875 -43.576171875 588.19921875 -43.576171875 589.401367188 -40.0322265625 c 4,1070,1071
 590.075195312 -38.046875 590.075195312 -38.046875 590.58203125 -32.4013671875 c 4,1072,1073
 591.245117188 -25 591.245117188 -25 591.833007812 -9.869140625 c 4,1074,1075
 592.658203125 11.40234375 592.658203125 11.40234375 593.8984375 71.25390625 c 5,1076,1077
 594.15234375 60.8408203125 594.15234375 60.8408203125 595.024414062 43.21484375 c 132,-1,1078
 595.896484375 25.5888671875 595.896484375 25.5888671875 596.07421875 20.650390625 c 4,1079,1080
 596.606445312 5.748046875 596.606445312 5.748046875 597.171875 -2.6357421875 c 4,1081,1082
 597.620117188 -9.291015625 597.620117188 -9.291015625 598.126953125 -12.4228515625 c 4,1083,1084
 598.719726562 -16.080078125 598.719726562 -16.080078125 600.2734375 -17.427734375 c 4,1085,1086
 601.556640625 -18.5390625 601.556640625 -18.5390625 603.232421875 -18.5390625 c 4,1087,1088
 605.8125 -18.5390625 605.8125 -18.5390625 607.208984375 -16.2080078125 c 4,1089,1090
 607.87109375 -15.1044921875 607.87109375 -15.1044921875 608.298828125 -13.0859375 c 4,1091,1092
 608.677734375 -11.296875 608.677734375 -11.296875 609.021484375 -8.2900390625 c 4,1093,1094
 609.698242188 -2.3671875 609.698242188 -2.3671875 610.323242188 9.052734375 c 4,1095,1096
 611.197265625 25.044921875 611.197265625 25.044921875 612.58984375 68.92578125 c 4,1097,1098
 612.673828125 71.5498046875 612.673828125 71.5498046875 613 76.669921875 c 132,-1,1099
 613.326171875 81.7890625 613.326171875 81.7890625 613.41015625 84.255859375 c 5,1100,1101
 614.349609375 60.4892578125 614.349609375 60.4892578125 614.8828125 51.1484375 c 4,1102,1103
 615.490234375 40.4921875 615.490234375 40.4921875 616.142578125 35.60546875 c 4,1104,1105
 616.598632812 32.1923828125 616.598632812 32.1923828125 617.234375 30.6923828125 c 132,-1,1106
 617.822265625 29.310546875 617.822265625 29.310546875 618.875 28.5009765625 c 132,-1,1107
 620.109375 27.552734375 620.109375 27.552734375 621.651367188 27.552734375 c 4,1108,1109
 624.025390625 27.552734375 624.025390625 27.552734375 625.46875 29.583984375 c 4,1110,1111
 626.248046875 30.6796875 626.248046875 30.6796875 626.771484375 32.78515625 c 4,1112,1113
 631.799804688 52.9990234375 631.799804688 52.9990234375 631.799804688 100.243164062 c 4,85,86
EndSplineSet
Fore
SplineSet
245.96484375 260.958984375 m 0,0,1
 210.646484375 260.958984375 210.646484375 260.958984375 177.668945312 246.9765625 c 128,-1,2
 144.69140625 232.994140625 144.69140625 232.994140625 118.888671875 208.241210938 c 0,3,4
 98.294921875 188.486328125 98.294921875 188.486328125 84.392578125 163.6796875 c 128,-1,5
 70.490234375 138.873046875 70.490234375 138.873046875 65.2705078125 111.182617188 c 0,6,7
 61.224609375 92.900390625 61.224609375 92.900390625 61.224609375 73.826171875 c 0,8,9
 61.224609375 44.62109375 61.224609375 44.62109375 70.412109375 16.482421875 c 128,-1,10
 79.599609375 -11.65625 79.599609375 -11.65625 96.63671875 -35.689453125 c 0,11,12
 125.079101562 -75.810546875 125.079101562 -75.810546875 167.736328125 -95.5634765625 c 0,13,14
 205.16796875 -113.973632812 205.16796875 -113.973632812 248.440429688 -113.973632812 c 0,15,16
 304.29296875 -113.973632812 304.29296875 -113.973632812 349.818359375 -84.6650390625 c 1,17,18
 394.60546875 -113.833984375 394.60546875 -113.833984375 450.642578125 -113.833984375 c 0,19,20
 484.62109375 -113.833984375 484.62109375 -113.833984375 516.5546875 -102.278320312 c 128,-1,21
 548.48828125 -90.72265625 548.48828125 -90.72265625 573.499023438 -68.30859375 c 0,22,23
 604.6875 -42.212890625 604.6875 -42.212890625 621.453125 -4.31640625 c 128,-1,24
 638.219726562 33.580078125 638.219726562 33.580078125 638.219726562 74.6181640625 c 0,25,26
 638.219726562 122.751953125 638.219726562 122.751953125 615.66796875 162.809570312 c 0,27,28
 594.806640625 202.711914062 594.806640625 202.711914062 555.654296875 228.802734375 c 0,29,30
 507.139648438 261.129882812 507.139648438 261.129882812 450.010742188 261.129882812 c 0,31,32
 425.778320312 261.129882812 425.778320312 261.129882812 403.00390625 254.7421875 c 0,33,34
 374.665039062 247.28125 374.665039062 247.28125 349.895507812 231.458984375 c 1,35,36
 303.611328125 261.07421875 303.611328125 261.07421875 248.818359375 260.935546875 c 0,37,38
 248.341796875 260.935546875 248.341796875 260.935546875 247.390625 260.947265625 c 128,-1,39
 246.440429688 260.958984375 246.440429688 260.958984375 245.96484375 260.958984375 c 0,0,1
247.78125 227.564453125 m 1,40,41
 248.055664062 227.5625 248.055664062 227.5625 248.241210938 227.5625 c 0,42,43
 251.334960938 227.5625 251.334960938 227.5625 254.389648438 227.454101562 c 1,44,45
 252.93359375 191.095703125 252.93359375 191.095703125 251.41796875 73.95703125 c 0,46,47
 251.41796875 73.9541015625 251.41796875 73.9541015625 251.142578125 73.947265625 c 128,-1,48
 250.869140625 73.9404296875 250.869140625 73.9404296875 250.869140625 73.9375 c 1,49,50
 249.266601562 191.432617188 249.266601562 191.432617188 247.78125 227.564453125 c 1,40,41
236.018554688 227.2265625 m 1,51,52
 234.55859375 190.998046875 234.55859375 190.998046875 233.02734375 74.568359375 c 1,53,54
 231.427734375 190.361328125 231.427734375 190.361328125 229.469726562 226.598632812 c 0,55,56
 232.735351562 226.990234375 232.735351562 226.990234375 236.018554688 227.2265625 c 1,51,52
217.487304688 224.623046875 m 1,57,58
 217.045898438 214.846679688 217.045898438 214.846679688 216.6328125 199.48046875 c 0,59,60
 215.76953125 167.396484375 215.76953125 167.396484375 214.428710938 74.9013671875 c 1,61,62
 212.828125 187.884765625 212.828125 187.884765625 210.669921875 223.01171875 c 0,63,64
 214.069335938 223.904296875 214.069335938 223.904296875 217.487304688 224.623046875 c 1,57,58
198.697265625 219.305664062 m 1,65,66
 198.283203125 209.94921875 198.283203125 209.94921875 197.90234375 195.54296875 c 0,67,68
 197.08203125 164.50390625 197.08203125 164.50390625 195.862304688 75.1943359375 c 1,69,70
 194.25390625 184.146484375 194.25390625 184.146484375 192.265625 216.84375 c 0,71,72
 195.47265625 218.154296875 195.47265625 218.154296875 198.697265625 219.305664062 c 1,65,66
180.23828125 211.342773438 m 1,73,74
 179.837890625 202.754882812 179.837890625 202.754882812 179.456054688 190.119140625 c 0,75,76
 178.73828125 166.376953125 178.73828125 166.376953125 176.61328125 45.634765625 c 1,77,78
 176.451171875 55.5458984375 176.451171875 55.5458984375 176.193359375 71.9453125 c 0,79,80
 174.525390625 178.185546875 174.525390625 178.185546875 172.987304688 207.423828125 c 0,81,82
 176.553710938 209.47265625 176.553710938 209.47265625 180.23828125 211.342773438 c 1,73,74
160.983398438 199.791015625 m 1,83,84
 160.620117188 192.299804688 160.620117188 192.299804688 160.266601562 181.880859375 c 0,85,86
 159.611328125 162.576171875 159.611328125 162.576171875 157.08984375 41.796875 c 1,87,88
 156.889648438 52.904296875 156.889648438 52.904296875 156.591796875 70.318359375 c 0,89,90
 154.928710938 167.384765625 154.928710938 167.384765625 153.395507812 194.125976562 c 0,91,92
 157.111328125 197.077148438 157.111328125 197.077148438 160.983398438 199.791015625 c 1,83,84
141.34375 183.536132812 m 1,93,94
 141.109375 177.916992188 141.109375 177.916992188 140.892578125 170.801757812 c 0,95,96
 140.1328125 145.923828125 140.1328125 145.923828125 139.088867188 75.267578125 c 1,97,98
 137.55859375 153.969726562 137.55859375 153.969726562 135.834960938 177.954101562 c 0,99,100
 138.501953125 180.783203125 138.501953125 180.783203125 141.34375 183.536132812 c 1,93,94
123.184570312 162.7734375 m 1,101,102
 123.086914062 160.661132812 123.086914062 160.661132812 122.989257812 158.37109375 c 0,103,104
 122.086914062 137.11328125 122.086914062 137.11328125 120.62109375 77.1513671875 c 0,105,106
 120.586914062 75.771484375 120.586914062 75.771484375 120.1171875 73.017578125 c 128,-1,107
 119.646484375 70.263671875 119.646484375 70.263671875 119.61328125 68.890625 c 1,108,109
 118.6015625 110.802734375 118.6015625 110.802734375 118.006835938 127.487304688 c 0,110,111
 117.47265625 142.455078125 117.47265625 142.455078125 116.90625 150.881835938 c 0,112,113
 116.82421875 152.099609375 116.82421875 152.099609375 116.740234375 153.201171875 c 0,114,115
 119.750976562 158.078125 119.750976562 158.078125 123.184570312 162.7734375 c 1,101,102
103.28125 124.727539062 m 1,116,117
 102.684570312 107.796875 102.684570312 107.796875 101.9375 78.751953125 c 1,118,119
 101.767578125 82.986328125 101.767578125 82.986328125 101.028320312 90.1904296875 c 128,-1,120
 100.2890625 97.3935546875 100.2890625 97.3935546875 100.142578125 100.029296875 c 0,121,122
 99.771484375 106.672851562 99.771484375 106.672851562 99.3828125 111.15234375 c 0,123,124
 101.009765625 118.079101562 101.009765625 118.079101562 103.28125 124.727539062 c 1,116,117
108.145507812 11.265625 m 0,125,126
 108.673828125 18.2529296875 108.673828125 18.2529296875 109.149414062 30.384765625 c 0,127,128
 109.685546875 44.07421875 109.685546875 44.07421875 110.571289062 78.525390625 c 1,129,130
 110.611328125 76.904296875 110.611328125 76.904296875 110.775390625 73.619140625 c 128,-1,131
 110.939453125 70.3359375 110.939453125 70.3359375 110.978515625 68.677734375 c 0,132,133
 112.111328125 21.70703125 112.111328125 21.70703125 112.8984375 1.4521484375 c 1,134,135
 110.358398438 6.26953125 110.358398438 6.26953125 108.145507812 11.265625 c 0,125,126
126.040039062 -19.388671875 m 0,136,137
 126.1328125 -18.0830078125 126.1328125 -18.0830078125 126.224609375 -16.6279296875 c 0,138,139
 126.830078125 -6.9921875 126.830078125 -6.9921875 127.423828125 10.09375 c 0,140,141
 127.890625 23.533203125 127.890625 23.533203125 129.727539062 96.005859375 c 1,142,143
 131.765625 -2.087890625 131.765625 -2.087890625 132.3671875 -18.689453125 c 0,144,145
 132.545898438 -23.630859375 132.545898438 -23.630859375 132.731445312 -27.806640625 c 1,146,147
 129.279296875 -23.7529296875 129.279296875 -23.7529296875 126.040039062 -19.388671875 c 0,136,137
144.955078125 -40.5771484375 m 0,148,149
 146.38671875 -15.3818359375 146.38671875 -15.3818359375 147.724609375 75.1376953125 c 1,150,151
 147.73828125 74.3095703125 147.73828125 74.3095703125 147.83984375 72.65234375 c 128,-1,152
 147.94140625 70.99609375 147.94140625 70.99609375 147.956054688 70.16796875 c 0,153,154
 149.244140625 -4.9541015625 149.244140625 -4.9541015625 150.0859375 -31.2705078125 c 0,155,156
 150.34375 -39.3251953125 150.34375 -39.3251953125 150.614257812 -45.5546875 c 1,157,158
 147.728515625 -43.1484375 147.728515625 -43.1484375 144.955078125 -40.5771484375 c 0,148,149
162.793945312 -54.6484375 m 0,159,160
 164.41015625 -25.5908203125 164.41015625 -25.5908203125 166.400390625 75.083984375 c 0,161,162
 166.78125 94.287109375 166.78125 94.287109375 167.014648438 105.59375 c 1,163,164
 169.08203125 -18.25390625 169.08203125 -18.25390625 169.689453125 -38.876953125 c 0,165,166
 170.049804688 -51.080078125 170.049804688 -51.080078125 170.434570312 -59.3896484375 c 1,167,168
 166.533203125 -57.13671875 166.533203125 -57.13671875 162.793945312 -54.6484375 c 0,159,160
182.287109375 -65.5205078125 m 0,169,170
 183.888671875 -35.4912109375 183.888671875 -35.4912109375 185.76171875 75.388671875 c 0,171,172
 186.0390625 91.875 186.0390625 91.875 186.235351562 103.0703125 c 1,173,174
 188.138671875 -20.11328125 188.138671875 -20.11328125 188.823242188 -44.7412109375 c 0,175,176
 189.234375 -59.5380859375 189.234375 -59.5380859375 189.678710938 -68.904296875 c 1,177,178
 185.948242188 -67.3203125 185.948242188 -67.3203125 182.287109375 -65.5205078125 c 0,169,170
201.362304688 -73.287109375 m 0,179,180
 202.896484375 -42.1318359375 202.896484375 -42.1318359375 204.498046875 75.07421875 c 1,181,182
 204.501953125 74.744140625 204.501953125 74.744140625 204.767578125 74.083984375 c 128,-1,183
 205.033203125 73.423828125 205.033203125 73.423828125 205.038085938 73.09375 c 0,184,185
 206.328125 -17.9697265625 206.328125 -17.9697265625 207.173828125 -49.572265625 c 0,186,187
 207.59765625 -65.4560546875 207.59765625 -65.4560546875 208.056640625 -75.2958984375 c 1,188,189
 204.68359375 -74.3720703125 204.68359375 -74.3720703125 201.362304688 -73.287109375 c 0,179,180
219.7734375 -77.990234375 m 0,190,191
 221.33203125 -44.7734375 221.33203125 -44.7734375 223.064453125 74.7744140625 c 1,192,193
 223.06640625 74.599609375 223.06640625 74.599609375 223.44140625 74.251953125 c 128,-1,194
 223.81640625 73.904296875 223.81640625 73.904296875 223.819335938 73.73046875 c 0,195,196
 224.852539062 -1.07421875 224.852539062 -1.07421875 225.471679688 -31.1298828125 c 0,197,198
 226.13671875 -63.4775390625 226.13671875 -63.4775390625 226.869140625 -79.1416015625 c 1,199,200
 223.294921875 -78.6494140625 223.294921875 -78.6494140625 219.7734375 -77.990234375 c 0,190,191
238.578125 -80.298828125 m 0,201,202
 240.08203125 -45.744140625 240.08203125 -45.744140625 241.663085938 74.4521484375 c 1,203,204
 241.6640625 74.345703125 241.6640625 74.345703125 241.948242188 74.134765625 c 128,-1,205
 242.232421875 73.9228515625 242.232421875 73.9228515625 242.233398438 73.8173828125 c 0,206,207
 243.8515625 -44.8095703125 243.8515625 -44.8095703125 245.350585938 -80.5673828125 c 1,208,209
 241.942382812 -80.5029296875 241.942382812 -80.5029296875 238.578125 -80.298828125 c 0,201,202
257.051757812 -80.36328125 m 1,210,211
 258.521484375 -44.4658203125 258.521484375 -44.4658203125 260.052734375 73.84375 c 0,212,213
 260.052734375 73.849609375 260.052734375 73.849609375 260.327148438 73.8623046875 c 128,-1,214
 260.6015625 73.875 260.6015625 73.875 260.6015625 73.880859375 c 1,215,216
 262.206054688 -43.78515625 262.206054688 -43.78515625 263.693359375 -79.86328125 c 0,217,218
 260.3828125 -80.18359375 260.3828125 -80.18359375 257.051757812 -80.36328125 c 1,210,211
275.486328125 -78.26953125 m 1,219,220
 276.899414062 -41.3642578125 276.899414062 -41.3642578125 278.32421875 73.2490234375 c 1,221,222
 279.884765625 -39.876953125 279.884765625 -39.876953125 281.681640625 -77.0615234375 c 0,223,224
 278.592773438 -77.728515625 278.592773438 -77.728515625 275.486328125 -78.26953125 c 1,219,220
293.92578125 -73.9052734375 m 1,225,226
 294.309570312 -64.9345703125 294.309570312 -64.9345703125 294.681640625 -52.0361328125 c 0,227,228
 295.391601562 -27.40625 295.391601562 -27.40625 297.745117188 109.171875 c 1,229,230
 297.939453125 96.0986328125 297.939453125 96.0986328125 298.239257812 74.88671875 c 0,231,232
 299.802734375 -35.8056640625 299.802734375 -35.8056640625 301.25390625 -71.5126953125 c 0,233,234
 299.08984375 -72.2783203125 299.08984375 -72.2783203125 296.888671875 -72.9853515625 c 0,235,236
 295.409179688 -73.4599609375 295.409179688 -73.4599609375 293.92578125 -73.9052734375 c 1,225,226
313.435546875 -66.599609375 m 1,237,238
 313.744140625 -58.619140625 313.744140625 -58.619140625 314.036132812 -47.798828125 c 0,239,240
 314.876953125 -16.62109375 314.876953125 -16.62109375 316.157226562 73.1201171875 c 1,241,242
 317.633789062 -27.4580078125 317.633789062 -27.4580078125 319.512695312 -63.66015625 c 0,243,244
 316.516601562 -65.1962890625 316.516601562 -65.1962890625 313.435546875 -66.599609375 c 1,237,238
332.14453125 -56.3525390625 m 1,245,246
 332.361328125 -50.2373046875 332.361328125 -50.2373046875 332.568359375 -42.6806640625 c 0,247,248
 333.383789062 -12.908203125 333.383789062 -12.908203125 334.588867188 72.525390625 c 1,249,250
 335.9921875 -17.7958984375 335.9921875 -17.7958984375 337.685546875 -52.5693359375 c 0,251,252
 334.958007812 -54.52734375 334.958007812 -54.52734375 332.14453125 -56.3525390625 c 1,245,246
350.573242188 -43.896484375 m 2,253,254
 350.69921875 -40.0654296875 350.69921875 -40.0654296875 350.8203125 -35.7314453125 c 0,255,256
 351.599609375 -7.880859375 351.599609375 -7.880859375 352.697265625 71.7451171875 c 1,257,258
 353.560546875 20.02734375 353.560546875 20.02734375 355.173828125 -31.64453125 c 0,259,260
 355.463867188 -40.921875 355.463867188 -40.921875 355.770507812 -47.83984375 c 1,261,-1
 350.573242188 -43.896484375 l 2,253,254
367.797851562 -56.55078125 m 0,262,263
 369.291992188 -27.8173828125 369.291992188 -27.8173828125 370.837890625 74.6103515625 c 1,264,265
 370.84765625 74.013671875 370.84765625 74.013671875 371.09765625 72.8193359375 c 128,-1,266
 371.34765625 71.625 371.34765625 71.625 371.357421875 71.02734375 c 0,267,268
 372.645507812 -11.95703125 372.645507812 -11.95703125 373.489257812 -40.9169921875 c 0,269,270
 373.82421875 -52.4111328125 373.82421875 -52.4111328125 374.180664062 -60.4873046875 c 1,271,272
 370.934570312 -58.60546875 370.934570312 -58.60546875 367.797851562 -56.55078125 c 0,262,263
386.147460938 -66.6708984375 m 0,273,274
 387.725585938 -35.4189453125 387.725585938 -35.4189453125 389.5703125 74.3818359375 c 0,275,276
 389.859375 91.62890625 389.859375 91.62890625 390.05078125 102.61328125 c 1,277,278
 391.95703125 -21.673828125 391.95703125 -21.673828125 392.641601562 -46.4619140625 c 0,279,280
 393.03125 -60.5693359375 393.03125 -60.5693359375 393.450195312 -69.7685546875 c 1,281,282
 389.739257812 -68.3134765625 389.739257812 -68.3134765625 386.147460938 -66.6708984375 c 0,273,274
405.266601562 -73.8369140625 m 0,283,284
 406.834960938 -41.34375 406.834960938 -41.34375 408.620117188 74.4111328125 c 0,285,286
 408.876953125 91.060546875 408.876953125 91.060546875 409.046875 101.770507812 c 1,287,288
 410.884765625 -23.515625 410.884765625 -23.515625 411.59765625 -50.306640625 c 0,289,290
 412.015625 -66.0009765625 412.015625 -66.0009765625 412.467773438 -75.810546875 c 1,291,292
 408.8515625 -74.9111328125 408.8515625 -74.9111328125 405.266601562 -73.8369140625 c 0,283,284
424.197265625 -78.2568359375 m 0,293,294
 425.681640625 -44.5615234375 425.681640625 -44.5615234375 427.184570312 74.119140625 c 1,295,296
 427.1875 73.923828125 427.1875 73.923828125 427.412109375 73.53515625 c 128,-1,297
 427.635742188 73.14453125 427.635742188 73.14453125 427.638671875 72.9501953125 c 0,298,299
 428.671875 -2.005859375 428.671875 -2.005859375 429.290039062 -32.1220703125 c 0,300,301
 429.934570312 -63.498046875 429.934570312 -63.498046875 430.641601562 -79.20703125 c 1,302,303
 427.407226562 -78.798828125 427.407226562 -78.798828125 424.197265625 -78.2568359375 c 0,293,294
442.473632812 -80.2509765625 m 0,304,305
 444.025390625 -44.8095703125 444.025390625 -44.8095703125 445.81640625 73.958984375 c 0,306,307
 446.10546875 93.18359375 446.10546875 93.18359375 446.290039062 104.97265625 c 1,308,309
 446.46484375 92.662109375 446.46484375 92.662109375 446.721679688 73.76953125 c 0,310,311
 448.333984375 -44.5380859375 448.333984375 -44.5380859375 449.829101562 -80.455078125 c 1,312,313
 446.13671875 -80.4365234375 446.13671875 -80.4365234375 442.473632812 -80.2509765625 c 0,304,305
461.568359375 -80.08984375 m 1,314,315
 463.063476562 -43.91796875 463.063476562 -43.91796875 464.69140625 73.8994140625 c 0,316,317
 464.69140625 73.9423828125 464.69140625 73.9423828125 465.040039062 74.02734375 c 128,-1,318
 465.388671875 74.111328125 465.388671875 74.111328125 465.388671875 74.154296875 c 1,319,320
 466.994140625 -43.447265625 466.994140625 -43.447265625 468.482421875 -79.4716796875 c 0,321,322
 465.040039062 -79.85546875 465.040039062 -79.85546875 461.568359375 -80.08984375 c 1,314,315
480.240234375 -77.7060546875 m 1,323,324
 481.56640625 -40.84375 481.56640625 -40.84375 482.733398438 73.03515625 c 1,325,-1
 482.802734375 73.1337890625 l 1,326,327
 484.368164062 -40.03125 484.368164062 -40.03125 485.8203125 -76.5439453125 c 0,328,329
 483.040039062 -77.17578125 483.040039062 -77.17578125 480.240234375 -77.7060546875 c 1,323,324
497.950195312 -73.2744140625 m 1,330,331
 498.30078125 -64.5791015625 498.30078125 -64.5791015625 498.6328125 -52.31640625 c 0,332,333
 499.501953125 -20.3046875 499.501953125 -20.3046875 500.860351562 71.9951171875 c 1,334,335
 502.358398438 -33.5703125 502.358398438 -33.5703125 504.37109375 -71.1181640625 c 0,336,337
 501.173828125 -72.2666015625 501.173828125 -72.2666015625 497.950195312 -73.2744140625 c 1,330,331
516.901367188 -65.9775390625 m 1,338,339
 517.189453125 -58.435546875 517.189453125 -58.435546875 517.463867188 -48.4755859375 c 0,340,341
 518.319335938 -17.4453125 518.319335938 -17.4453125 519.63671875 71.71484375 c 1,342,343
 521.090820312 -26.5908203125 521.090820312 -26.5908203125 522.994140625 -62.97265625 c 0,344,345
 519.995117188 -64.541015625 519.995117188 -64.541015625 516.901367188 -65.9775390625 c 1,338,339
535.798828125 -55.3896484375 m 1,346,347
 536.0078125 -49.7666015625 536.0078125 -49.7666015625 536.211914062 -42.9677734375 c 0,348,349
 536.93359375 -18.8955078125 536.93359375 -18.8955078125 538.998046875 100.171875 c 1,350,351
 539.162109375 90.0966796875 539.162109375 90.0966796875 539.40234375 74.83984375 c 0,352,353
 540.838867188 -16.5341796875 540.838867188 -16.5341796875 542.178710938 -50.87109375 c 0,354,355
 539.053710938 -53.220703125 539.053710938 -53.220703125 535.798828125 -55.3896484375 c 1,346,347
555.102539062 -40.1044921875 m 1,356,357
 555.189453125 -37.6328125 555.189453125 -37.6328125 555.276367188 -34.9697265625 c 0,358,359
 555.975585938 -13.474609375 555.975585938 -13.474609375 558.146484375 99.974609375 c 1,360,361
 558.3125 90.724609375 558.3125 90.724609375 558.564453125 76.08203125 c 0,362,363
 559.903320312 -1.904296875 559.903320312 -1.904296875 561.158203125 -34.3896484375 c 0,364,365
 558.221679688 -37.330078125 558.221679688 -37.330078125 555.102539062 -40.1044921875 c 1,356,357
574.374023438 -19.068359375 m 1,366,367
 575.0625 7.2919921875 575.0625 7.2919921875 575.951171875 71.1943359375 c 1,368,369
 577.053710938 14.560546875 577.053710938 14.560546875 578.202148438 -13.6611328125 c 0,370,371
 576.345703125 -16.4169921875 576.345703125 -16.4169921875 574.374023438 -19.068359375 c 1,366,367
592.61328125 13.3427734375 m 1,372,373
 593.1875 34.96875 593.1875 34.96875 593.8984375 69.25390625 c 1,374,375
 594.15234375 58.8408203125 594.15234375 58.8408203125 595.024414062 41.21484375 c 0,376,377
 595.671875 28.1279296875 595.671875 28.1279296875 595.936523438 22.03515625 c 0,378,379
 594.40625 17.6640625 594.40625 17.6640625 592.61328125 13.3427734375 c 1,372,373
604.530273438 84.771484375 m 0,380,381
 604.26171875 76.7841796875 604.26171875 76.7841796875 603.958007812 67.2041015625 c 1,382,383
 603.916992188 68.859375 603.916992188 68.859375 603.53125 72.19140625 c 128,-1,384
 603.14453125 75.5244140625 603.14453125 75.5244140625 603.103515625 77.197265625 c 0,385,386
 602.77734375 90.6943359375 602.77734375 90.6943359375 602.479492188 101.978515625 c 1,387,388
 603.982421875 93.5478515625 603.982421875 93.5478515625 604.530273438 84.771484375 c 0,380,381
587.15625 145.3984375 m 0,389,390
 586.993164062 140.930664062 586.993164062 140.930664062 586.833007812 135.77734375 c 0,391,392
 586.24609375 116.845703125 586.24609375 116.845703125 585.263671875 69.435546875 c 1,393,394
 585.2421875 70.521484375 585.2421875 70.521484375 584.970703125 72.6953125 c 128,-1,395
 584.69921875 74.869140625 584.69921875 74.869140625 584.677734375 75.95703125 c 0,396,397
 583.66796875 127.66015625 583.66796875 127.66015625 582.930664062 153.041992188 c 1,398,399
 584.6875 150.032226562 584.6875 150.032226562 586.307617188 146.920898438 c 0,400,401
 586.737304688 146.161132812 586.737304688 146.161132812 587.15625 145.3984375 c 0,389,390
569.361328125 172.374023438 m 0,402,403
 568.291992188 141.591796875 568.291992188 141.591796875 567.315429688 71.31640625 c 1,404,405
 565.971679688 149.209960938 565.971679688 149.209960938 565.07421875 177.270507812 c 1,406,407
 567.278320312 174.8671875 567.278320312 174.8671875 569.361328125 172.374023438 c 0,402,403
551.884765625 189.948242188 m 0,408,409
 550.52734375 156.118164062 550.52734375 156.118164062 548.979492188 71.5625 c 0,410,411
 548.698242188 56.162109375 548.698242188 56.162109375 548.50390625 45.8916015625 c 1,412,413
 546.57421875 162.8203125 546.57421875 162.8203125 545.905273438 185.506835938 c 0,414,415
 545.754882812 190.59375 545.754882812 190.59375 545.600585938 195.002929688 c 1,416,417
 548.830078125 192.541015625 548.830078125 192.541015625 551.884765625 189.948242188 c 0,408,409
532.923828125 203.754882812 m 0,418,419
 531.49609375 168.850585938 531.49609375 168.850585938 529.875976562 71.55078125 c 0,420,421
 529.611328125 55.6318359375 529.611328125 55.6318359375 529.427734375 44.982421875 c 1,422,423
 527.55078125 166.578125 527.55078125 166.578125 526.85546875 191.5546875 c 0,424,425
 526.602539062 200.637695312 526.602539062 200.637695312 526.336914062 207.672851562 c 1,426,427
 529.65234375 205.80078125 529.65234375 205.80078125 532.923828125 203.754882812 c 0,418,419
514.026367188 213.94921875 m 0,428,429
 512.58203125 178.684570312 512.58203125 178.684570312 511.001953125 71.8447265625 c 1,430,431
 510.997070312 72.162109375 510.997070312 72.162109375 510.642578125 72.796875 c 128,-1,432
 510.288085938 73.431640625 510.288085938 73.431640625 510.283203125 73.7490234375 c 0,433,434
 508.9921875 164.623046875 508.9921875 164.623046875 508.1484375 196.165039062 c 0,435,436
 507.826171875 208.200195312 507.826171875 208.200195312 507.483398438 216.7578125 c 1,437,438
 510.775390625 215.43359375 510.775390625 215.43359375 514.026367188 213.94921875 c 0,428,429
495.387695312 221.043945312 m 0,439,440
 493.892578125 185.477539062 493.892578125 185.477539062 492.224609375 72.1240234375 c 1,441,442
 492.22265625 72.3125 492.22265625 72.3125 491.831054688 72.689453125 c 128,-1,443
 491.440429688 73.06640625 491.440429688 73.06640625 491.4375 73.2548828125 c 0,444,445
 490.404296875 147.927734375 490.404296875 147.927734375 489.786132812 177.93359375 c 0,446,447
 489.177734375 207.377929688 489.177734375 207.377929688 488.516601562 222.978515625 c 1,448,449
 491.973632812 222.09375 491.973632812 222.09375 495.387695312 221.043945312 c 0,439,440
476.661132812 225.510742188 m 0,450,451
 475.295898438 190.0390625 475.295898438 190.0390625 474.09765625 73.125 c 1,452,453
 472.514648438 189.038085938 472.514648438 189.038085938 471.012695312 226.373046875 c 1,454,455
 473.849609375 225.994140625 473.849609375 225.994140625 476.661132812 225.510742188 c 0,450,451
459.157226562 227.495117188 m 0,456,457
 457.671875 191.040039062 457.671875 191.040039062 456.055664062 74.021484375 c 0,458,459
 456.0546875 73.9990234375 456.0546875 73.9990234375 455.70703125 73.955078125 c 128,-1,460
 455.357421875 73.912109375 455.357421875 73.912109375 455.357421875 73.8896484375 c 1,461,462
 453.751953125 191.659179688 453.751953125 191.659179688 452.263671875 227.736328125 c 1,463,464
 455.729492188 227.689453125 455.729492188 227.689453125 459.157226562 227.495117188 c 0,456,457
440.48046875 227.443359375 m 1,465,466
 438.946289062 191.225585938 438.946289062 191.225585938 437.180664062 74.091796875 c 0,467,468
 436.892578125 55.017578125 436.892578125 55.017578125 436.69921875 42.6357421875 c 1,469,470
 436.52734375 54.6630859375 436.52734375 54.6630859375 436.2734375 73.0712890625 c 0,471,472
 434.629882812 192.319335938 434.629882812 192.319335938 433.111328125 226.76953125 c 0,473,474
 436.7734375 227.201171875 436.7734375 227.201171875 440.48046875 227.443359375 c 1,465,466
421.3671875 224.87109375 m 1,475,476
 420.92578125 214.938476562 420.92578125 214.938476562 420.526367188 198.995117188 c 0,477,478
 419.72265625 166.881835938 419.72265625 166.881835938 418.548828125 74.23046875 c 1,479,480
 416.927734375 189.100585938 416.927734375 189.100585938 415.028320312 223.40625 c 0,481,482
 418.1796875 224.213867188 418.1796875 224.213867188 421.3671875 224.87109375 c 1,475,476
403.104492188 219.985351562 m 1,483,484
 402.665039062 210.499023438 402.665039062 210.499023438 402.250976562 195.749023438 c 0,485,486
 401.372070312 164.48046875 401.372070312 164.48046875 399.984375 74.546875 c 0,487,488
 399.978515625 74.158203125 399.978515625 74.158203125 399.563476562 73.37890625 c 128,-1,489
 399.1484375 72.6005859375 399.1484375 72.6005859375 399.142578125 72.2109375 c 1,490,491
 397.471679688 186.059570312 397.471679688 186.059570312 395.932617188 217.459960938 c 0,492,493
 399.4765625 218.805664062 399.4765625 218.805664062 403.104492188 219.985351562 c 1,483,484
384.092773438 212.383789062 m 1,494,495
 383.672851562 203.524414062 383.672851562 203.524414062 383.272460938 190.1796875 c 0,496,497
 382.5546875 166.255859375 382.5546875 166.255859375 380.41796875 44.21484375 c 1,498,499
 380.248046875 54.6640625 380.248046875 54.6640625 379.9921875 71.1640625 c 0,500,501
 378.3125 179.358398438 378.3125 179.358398438 376.765625 208.622070312 c 0,502,503
 380.377929688 210.602539062 380.377929688 210.602539062 384.092773438 212.383789062 c 1,494,495
364.897460938 201.39453125 m 1,504,505
 364.547851562 193.5859375 364.547851562 193.5859375 364.223632812 182.485351562 c 0,506,507
 363.408203125 154.559570312 363.408203125 154.559570312 362.203125 74.7431640625 c 1,508,509
 361.576171875 112.294921875 361.576171875 112.294921875 359.530273438 177.771484375 c 0,510,511
 359.172851562 189.224609375 359.172851562 189.224609375 358.7890625 197.07421875 c 1,512,-1
 359.734375 197.767578125 l 2,513,514
 362.287109375 199.638671875 362.287109375 199.638671875 364.897460938 201.39453125 c 1,504,505
346.513671875 192.998046875 m 1,515,516
 345.270507812 159.469726562 345.270507812 159.469726562 344.0625 71.8671875 c 1,517,518
 344.052734375 72.4609375 344.052734375 72.4609375 343.899414062 73.6494140625 c 128,-1,519
 343.74609375 74.837890625 343.74609375 74.837890625 343.736328125 75.431640625 c 0,520,521
 342.447265625 158.24609375 342.447265625 158.24609375 341.603515625 187.168945312 c 0,522,523
 341.452148438 192.350585938 341.452148438 192.350585938 341.295898438 196.836914062 c 1,524,-1
 346.513671875 192.998046875 l 1,515,516
328.6640625 205.416015625 m 0,525,526
 327.329101562 170.2109375 327.329101562 170.2109375 325.953125 72.650390625 c 1,527,528
 325.946289062 73.0966796875 325.946289062 73.0966796875 325.696289062 73.990234375 c 128,-1,529
 325.4453125 74.8828125 325.4453125 74.8828125 325.439453125 75.330078125 c 0,530,531
 324.1484375 163.1328125 324.1484375 163.1328125 323.3046875 193.681640625 c 0,532,533
 323.071289062 202.129882812 323.071289062 202.129882812 322.827148438 208.815429688 c 1,534,535
 325.771484375 207.186523438 325.771484375 207.186523438 328.6640625 205.416015625 c 0,525,526
310.434570312 214.9453125 m 0,536,537
 309.02734375 178.848632812 309.02734375 178.848632812 307.521484375 73.2451171875 c 1,538,539
 307.517578125 73.5390625 307.517578125 73.5390625 307.198242188 74.1279296875 c 128,-1,540
 306.87890625 74.716796875 306.87890625 74.716796875 306.875 75.0107421875 c 0,541,542
 305.583984375 166.375 305.583984375 166.375 304.73828125 198.076171875 c 0,543,544
 304.438476562 209.317382812 304.438476562 209.317382812 304.122070312 217.538085938 c 1,545,546
 307.305664062 216.315429688 307.305664062 216.315429688 310.434570312 214.9453125 c 0,536,537
291.88671875 221.626953125 m 0,547,548
 290.34765625 185.041015625 290.34765625 185.041015625 288.502929688 73.1171875 c 0,549,550
 288.1484375 51.5625 288.1484375 51.5625 287.9140625 37.9462890625 c 1,551,552
 286.1328125 160.526367188 286.1328125 160.526367188 285.756835938 178.837890625 c 0,553,554
 285.157226562 207.9296875 285.157226562 207.9296875 284.506835938 223.53515625 c 1,555,556
 288.229492188 222.672851562 288.229492188 222.672851562 291.88671875 221.626953125 c 0,547,548
272.568359375 225.798828125 m 0,557,558
 271.135742188 189.736328125 271.135742188 189.736328125 269.688476562 73.3583984375 c 1,559,560
 269.6875 73.46484375 269.6875 73.46484375 269.462890625 73.6796875 c 128,-1,561
 269.23828125 73.8935546875 269.23828125 73.8935546875 269.237304688 74.0009765625 c 0,562,563
 267.658203125 189.770507812 267.658203125 189.770507812 266.19140625 226.615234375 c 1,564,565
 269.403320312 226.270507812 269.403320312 226.270507812 272.568359375 225.798828125 c 0,557,558
EndSplineSet
EndChar

